<svg width="597" height="344" viewBox="0 0 597 344" fill="none" xmlns="http://www.w3.org/2000/svg">
<path d="M597 343.186C597 343.322 463.344 343.421 298.518 343.421C133.692 343.421 0 343.322 0 343.186C0 343.05 133.629 342.951 298.518 342.951C463.407 342.951 597 343.059 597 343.186Z" fill="#00273E"/>
<path d="M406.232 11.7985H164.99V170.332H406.232V11.7985Z" fill="#FDFFFE"/>
<path d="M406.232 170.332C406.232 168.804 406.16 108.491 406.043 11.7983L406.232 11.9881H165.008L165.243 11.7531C165.243 68.1325 165.243 121.782 165.243 170.286L165.027 170.069L406.268 170.286L165.027 170.503H164.81V170.286C164.81 121.782 164.81 68.1235 164.81 11.7531V11.518H165.063L406.286 11.5722H406.476V11.7531C406.304 108.491 406.232 168.795 406.232 170.332Z" fill="#00273E"/>
<path d="M238.718 99.3421L262.442 99.6766C262.262 112.334 251.613 122.668 238.718 122.668H238.573L238.718 99.3421Z" fill="#7E969F"/>
<path d="M277.955 131.537C277.783 131.552 277.611 131.552 277.44 131.537H275.996L270.69 131.6H270.645L270.6 131.546C268.479 128.879 265.754 125.425 262.776 121.664L256.459 113.609L256.585 113.663L249.601 113.6L247.633 113.645C247.402 113.67 247.17 113.67 246.939 113.645C247.169 113.611 247.401 113.595 247.633 113.6H249.583L256.567 113.536H256.64V113.591L262.956 121.628L270.717 131.573L270.609 131.519L275.915 131.582H277.359C277.555 131.542 277.755 131.526 277.955 131.537Z" fill="#00273E"/>
<path d="M286.464 134.276C286.464 134.376 283.026 134.457 278.785 134.457C274.543 134.457 271.105 134.376 271.105 134.276C271.105 134.177 274.543 134.095 278.785 134.095C283.026 134.095 286.464 134.177 286.464 134.276Z" fill="#00273E"/>
<path d="M286.464 137.151C286.464 137.251 283.026 137.332 278.785 137.332C274.543 137.332 271.105 137.251 271.105 137.151C271.105 137.052 274.543 136.971 278.785 136.971C283.026 136.971 286.464 137.025 286.464 137.151Z" fill="#00273E"/>
<path d="M234.964 95.9605L234.63 119.286C221.743 119.105 211.23 108.636 211.23 95.9605C211.23 83.2851 221.942 72.6438 234.964 72.6438C247.985 72.6438 258.697 83.1675 258.697 95.9605H234.964Z" fill="#B19FFD"/>
<path d="M225.696 88.3299C225.565 88.3766 225.428 88.407 225.29 88.4203L224.108 88.6102L219.848 89.2159H219.776L219.722 89.1617L214.037 83.6196C211.329 80.9073 208.848 78.4934 207.079 76.7123L205.003 74.5877C204.736 74.3386 204.492 74.0663 204.273 73.774C204.571 73.9853 204.849 74.2244 205.103 74.4882L207.26 76.5224C209.064 78.2583 211.555 80.6722 214.289 83.3574L219.929 88.9447H219.803L224.089 88.4746L225.272 88.3661C225.41 88.328 225.553 88.3158 225.696 88.3299Z" fill="#00273E"/>
<path d="M198.263 72.7614C198.263 72.8609 194.824 72.9422 190.583 72.9422C186.342 72.9422 182.913 72.8609 182.913 72.7614C182.913 72.662 186.342 72.5806 190.583 72.5806C194.824 72.5806 198.263 72.662 198.263 72.7614Z" fill="#00273E"/>
<path d="M198.263 75.6093C198.263 75.7088 194.824 75.7902 190.583 75.7902C186.342 75.7902 182.913 75.7088 182.913 75.6093C182.913 75.5099 186.342 75.4285 190.583 75.4285C194.824 75.4285 198.263 75.5099 198.263 75.6093Z" fill="#00273E"/>
<path d="M317.976 49.8878L317.886 35.4222C313.479 35.5026 309.245 37.1569 305.947 40.0874C303.84 41.9296 302.215 44.2602 301.213 46.8761C300.211 49.492 299.863 52.3138 300.199 55.0954C300.276 55.8032 300.39 56.5063 300.542 57.2019C300.538 57.2198 300.538 57.2383 300.542 57.2562L317.967 53.3233L317.976 49.8878Z" fill="#B19FFD"/>
<g opacity="0.3">
<path d="M317.976 49.8878L317.886 35.4222C313.479 35.5026 309.245 37.1569 305.947 40.0874C303.84 41.9296 302.215 44.2602 301.213 46.8761C300.211 49.492 299.863 52.3138 300.199 55.0954C300.276 55.8032 300.39 56.5063 300.542 57.2019C300.538 57.2198 300.538 57.2383 300.542 57.2562L317.967 53.3233L317.976 49.8878Z" fill="#FDFFFE"/>
</g>
<path d="M335.943 45.4309C334.671 42.6928 332.7 40.3392 330.23 38.6075C327.761 36.8757 324.878 35.8271 321.875 35.5672L321.324 35.513H320.972C320.63 35.513 320.278 35.513 319.926 35.513H319.826L319.926 49.9785V53.3779L337.423 57.1661C337.693 55.934 337.823 54.6754 337.811 53.4141C337.785 50.6475 337.147 47.921 335.943 45.4309Z" fill="#B19FFD"/>
<g opacity="0.3">
<path d="M335.943 45.4309C334.671 42.6928 332.7 40.3392 330.23 38.6075C327.761 36.8757 324.878 35.8271 321.875 35.5672L321.324 35.513H320.972C320.63 35.513 320.278 35.513 319.926 35.513H319.826L319.926 49.9785V53.3779L337.423 57.1661C337.693 55.934 337.823 54.6754 337.811 53.4141C337.785 50.6475 337.147 47.921 335.943 45.4309Z" fill="#00273E"/>
</g>
<path d="M318.915 55.1045L301.48 59.0373C302.374 63.0118 304.595 66.5618 307.775 69.1009C310.955 71.6401 314.905 73.0165 318.971 73.0028C323.038 72.9891 326.978 71.5861 330.141 69.0256C333.304 66.4651 335.5 62.9002 336.368 58.9198L318.933 55.1045" fill="#B19FFD"/>
<path d="M386.758 52.5007C386.758 52.6273 377.734 52.7358 366.635 52.7358C355.535 52.7358 346.502 52.6273 346.502 52.5007C346.502 52.3741 355.526 52.2566 366.635 52.2566C377.743 52.2566 386.758 52.3651 386.758 52.5007Z" fill="#00273E"/>
<path d="M386.758 47.8991C386.758 48.0256 377.734 48.1341 366.635 48.1341C355.535 48.1341 346.502 48.0256 346.502 47.8991C346.502 47.7725 355.526 47.664 366.635 47.664C377.743 47.664 386.758 47.7725 386.758 47.8991Z" fill="#00273E"/>
<path d="M386.758 43.3062C386.758 43.4327 377.734 43.5412 366.635 43.5412C355.535 43.5412 346.502 43.4327 346.502 43.3062C346.502 43.1796 355.526 43.0711 366.635 43.0711C377.743 43.0711 386.758 43.1706 386.758 43.3062Z" fill="#00273E"/>
<path d="M386.758 56.7773C386.758 56.9038 377.734 57.0123 366.635 57.0123C355.535 57.0123 346.502 56.9038 346.502 56.7773C346.502 56.6507 355.526 56.5331 366.635 56.5331C377.743 56.5331 386.758 56.6868 386.758 56.7773Z" fill="#00273E"/>
<path d="M374.296 61.4242C374.296 61.5598 368.105 61.6593 360.471 61.6593C352.837 61.6593 346.646 61.5598 346.646 61.4242C346.646 61.2886 352.837 61.1891 360.471 61.1891C368.105 61.1891 374.296 61.2976 374.296 61.4242Z" fill="#00273E"/>
<path d="M308.438 94.704H304.296V141.093H308.438V94.704Z" fill="#B19FFD"/>
<path d="M316.442 110.453H312.3V141.084H316.442V110.453Z" fill="#B19FFD"/>
<path d="M324.447 100.463H320.305V141.319H324.447V100.463Z" fill="#B19FFD"/>
<path d="M332.451 96.494H328.309V141.093H332.451V96.494Z" fill="#B19FFD"/>
<path d="M340.447 111.394H336.304V141.084H340.447V111.394Z" fill="#B19FFD"/>
<path d="M348.451 117.216H344.309V141.084H348.451V117.216Z" fill="#B19FFD"/>
<path d="M356.455 99.4596H352.313V141.084H356.455V99.4596Z" fill="#B19FFD"/>
<path d="M364.46 106.963H360.318V141.084H364.46V106.963Z" fill="#B19FFD"/>
<path d="M372.464 100.969H368.322V141.084H372.464V100.969Z" fill="#B19FFD"/>
<path d="M380.469 113.753H376.326V141.084H380.469V113.753Z" fill="#B19FFD"/>
<path d="M388.473 108.555H384.331V141.084H388.473V108.555Z" fill="#B19FFD"/>
<path d="M390.17 144.321C390.17 144.411 370.506 144.492 346.249 144.492C321.992 144.492 302.329 144.411 302.329 144.321C302.329 144.23 321.992 144.149 346.249 144.149C370.506 144.149 390.17 144.221 390.17 144.321Z" fill="#00273E"/>
<path d="M310.207 148C308.161 148.217 306.098 148.217 304.052 148C306.097 147.771 308.162 147.771 310.207 148Z" fill="#00273E"/>
<path d="M320.413 148.154C317.967 148.383 315.505 148.383 313.058 148.154C315.505 147.925 317.967 147.925 320.413 148.154Z" fill="#00273E"/>
<path d="M329.121 148.154C326.675 148.383 324.213 148.383 321.767 148.154C324.213 147.925 326.675 147.925 329.121 148.154Z" fill="#00273E"/>
<path d="M337.82 148.154C335.374 148.383 332.912 148.383 330.466 148.154C332.912 147.925 335.374 147.925 337.82 148.154Z" fill="#00273E"/>
<path d="M346.529 148.154C344.083 148.383 341.621 148.383 339.174 148.154C341.621 147.925 344.083 147.925 346.529 148.154Z" fill="#00273E"/>
<path d="M355.228 148.154C352.782 148.383 350.32 148.383 347.873 148.154C350.32 147.925 352.782 147.925 355.228 148.154Z" fill="#00273E"/>
<path d="M363.936 148.154C361.49 148.383 359.028 148.383 356.582 148.154C359.028 147.925 361.49 147.925 363.936 148.154Z" fill="#00273E"/>
<path d="M372.617 148.154C370.171 148.383 367.709 148.383 365.263 148.154C367.709 147.925 370.171 147.925 372.617 148.154Z" fill="#00273E"/>
<path d="M381.344 148.154C378.898 148.383 376.435 148.383 373.989 148.154C376.435 147.925 378.898 147.925 381.344 148.154Z" fill="#00273E"/>
<path d="M390.052 148.154C387.606 148.383 385.144 148.383 382.698 148.154C385.144 147.925 387.606 147.925 390.052 148.154Z" fill="#00273E"/>
<g opacity="0.3">
<path d="M316.442 110.453H312.3V141.084H316.442V110.453Z" fill="#FDFFFE"/>
</g>
<g opacity="0.3">
<path d="M332.451 96.494H328.309V141.093H332.451V96.494Z" fill="#FDFFFE"/>
</g>
<g opacity="0.3">
<path d="M348.451 117.216H344.309V141.084H348.451V117.216Z" fill="#FDFFFE"/>
</g>
<g opacity="0.3">
<path d="M364.46 106.963H360.318V141.084H364.46V106.963Z" fill="#FDFFFE"/>
</g>
<g opacity="0.3">
<path d="M380.469 113.753H376.326V141.084H380.469V113.753Z" fill="#FDFFFE"/>
</g>
<path d="M194.301 41.5973C194.303 42.3902 194.069 43.1659 193.631 43.8259C193.192 44.4859 192.568 45.0007 191.837 45.3049C191.106 45.6092 190.302 45.6892 189.525 45.535C188.749 45.3807 188.036 44.9991 187.476 44.4384C186.917 43.8778 186.536 43.1633 186.382 42.3855C186.228 41.6078 186.308 40.8017 186.612 40.0695C186.915 39.3373 187.429 38.7119 188.088 38.2725C188.747 37.8331 189.521 37.5994 190.312 37.6012C191.37 37.6012 192.385 38.0223 193.133 38.7717C193.881 39.5211 194.301 40.5375 194.301 41.5973Z" fill="#B19FFD"/>
<path d="M262.911 38.4418C262.911 38.5774 249.456 38.6769 232.861 38.6769C216.266 38.6769 202.811 38.5774 202.811 38.4418C202.811 38.3062 216.257 38.2068 232.861 38.2068C249.465 38.2068 262.911 38.3153 262.911 38.4418Z" fill="#B19FFD"/>
<path d="M226.932 43.279C226.637 43.3502 226.333 43.3806 226.03 43.3694L223.494 43.4508C221.346 43.4508 218.386 43.514 215.12 43.514C211.853 43.514 208.884 43.514 206.745 43.4508L204.2 43.3694C203.897 43.3797 203.593 43.3493 203.298 43.279C203.594 43.214 203.897 43.1837 204.2 43.1886C204.805 43.1886 205.671 43.1343 206.745 43.1162C208.884 43.1162 211.844 43.0439 215.12 43.0439C218.395 43.0439 221.346 43.0439 223.494 43.1162C224.568 43.1162 225.434 43.1614 226.03 43.1886C226.333 43.1828 226.636 43.2132 226.932 43.279Z" fill="#B19FFD"/>
<path d="M160.072 26.1555H33.8159V170.522H160.072V26.1555Z" fill="#FDFFFE"/>
<path d="M160.081 170.512C160.081 170.512 160.081 170.277 160.081 169.834C160.081 169.391 160.081 168.704 160.081 167.827C160.081 166.019 160.081 163.442 160.081 160.034C160.081 153.217 160.081 143.245 160.027 130.578C160.027 105.264 159.964 69.1994 159.928 26.1554L160.136 26.3633H33.8881L34.1227 26.1283C34.1227 79.3524 34.1227 128.987 34.1227 170.485L33.9242 170.286L125.357 170.422L150.967 170.476H157.717H160.045H157.753H151.048L125.483 170.53L33.7798 170.63H33.5812V170.422C33.5812 128.924 33.5812 79.2891 33.5812 26.065V25.9474H33.8339H160.081H160.289V26.1554C160.244 69.2537 160.208 105.363 160.181 130.714C160.181 143.371 160.136 153.316 160.127 160.115C160.127 163.506 160.127 166.109 160.127 167.872C160.127 168.777 160.127 169.4 160.127 169.852C160.127 170.304 160.081 170.512 160.081 170.512Z" fill="#00273E"/>
<path d="M149.225 99.8665C149.225 99.9569 147.827 99.1613 145.165 98.3205C141.402 97.1446 137.422 96.8356 133.523 97.4164C130.849 97.8301 128.257 98.6663 125.844 99.8936C123.101 101.365 120.562 103.188 118.291 105.318C115.818 107.506 113.355 109.992 110.521 112.289C107.63 114.765 104.246 116.595 100.594 117.659C98.7085 118.158 96.7424 118.278 94.81 118.012C92.9485 117.729 91.139 117.171 89.4406 116.357C86.3359 114.739 83.3232 112.949 80.4165 110.996C77.8325 109.268 74.9773 107.988 71.9699 107.208C69.3412 106.565 66.6256 106.354 63.9294 106.584C60.0024 106.924 56.2054 108.161 52.8297 110.2C50.4474 111.656 49.3284 112.75 49.2201 112.677C49.4535 112.38 49.7233 112.112 50.0232 111.882C50.8284 111.155 51.6916 110.496 52.6041 109.911C55.4579 108.064 58.6529 106.809 61.9996 106.222C65.3464 105.635 68.7767 105.727 72.0872 106.493C75.1786 107.272 78.1187 108.561 80.7865 110.309C83.6653 112.226 86.6479 113.983 89.7204 115.571C92.9844 117.248 96.7422 117.691 100.306 116.818C103.867 115.809 107.175 114.06 110.016 111.683C112.813 109.432 115.277 106.964 117.794 104.767C120.128 102.608 122.734 100.766 125.546 99.2878C128.59 97.7743 131.904 96.8815 135.295 96.6611C138.686 96.4407 142.086 96.8972 145.3 98.004C146.326 98.3503 147.322 98.7797 148.278 99.2878C148.611 99.45 148.929 99.6438 149.225 99.8665Z" fill="#B19FFD"/>
<path d="M79.2976 119.259H68.5679V148.344H79.2976V119.259Z" fill="#B19FFD"/>
<path d="M124.851 119.259H114.122V148.344H124.851V119.259Z" fill="#B19FFD"/>
<path d="M140.03 102.172H129.3V148.335H140.03V102.172Z" fill="#B19FFD"/>
<path d="M65.4094 139.186H54.6797V148.977H65.4094V139.186Z" fill="#B19FFD"/>
<path d="M94.494 132.387H83.7553V148.335H94.494V132.387Z" fill="#B19FFD"/>
<path d="M109.664 128.725H98.934V148.335H109.664V128.725Z" fill="#B19FFD"/>
<path d="M79.7396 151.77C79.7396 152.006 77.1407 152.204 73.9371 152.204C70.7335 152.204 68.1346 152.006 68.1346 151.77C68.1346 151.535 70.7335 151.337 73.9371 151.337C77.1407 151.337 79.7396 151.526 79.7396 151.77Z" fill="#00273E"/>
<path d="M66.384 151.77C66.384 152.006 63.785 152.204 60.5814 152.204C57.3779 152.204 54.7789 152.006 54.7789 151.77C54.7789 151.535 57.3779 151.337 60.5814 151.337C63.785 151.337 66.384 151.526 66.384 151.77Z" fill="#00273E"/>
<path d="M142.15 151.77C142.15 152.006 139.218 152.204 135.599 152.204C131.98 152.204 129.038 152.006 129.038 151.77C129.038 151.535 131.971 151.337 135.599 151.337C139.227 151.337 142.15 151.526 142.15 151.77Z" fill="#00273E"/>
<path d="M119.653 152.204C123.272 152.204 126.205 152.01 126.205 151.77C126.205 151.531 123.272 151.337 119.653 151.337C116.035 151.337 113.102 151.531 113.102 151.77C113.102 152.01 116.035 152.204 119.653 152.204Z" fill="#00273E"/>
<path d="M109.673 151.77C109.673 152.006 107.074 152.204 103.87 152.204C100.667 152.204 98.0676 152.006 98.0676 151.77C98.0676 151.535 100.667 151.337 103.87 151.337C107.074 151.337 109.673 151.526 109.673 151.77Z" fill="#00273E"/>
<path d="M93.9797 151.77C93.9797 152.006 91.3897 152.204 88.1862 152.204C84.9826 152.204 82.3837 152.006 82.3837 151.77C82.3837 151.535 84.9826 151.337 88.1862 151.337C91.3897 151.337 93.9797 151.526 93.9797 151.77Z" fill="#00273E"/>
<path d="M142.15 47.203H54.4269V83.7013H142.15V47.203Z" fill="#F2F2FE"/>
<path d="M72.6556 58.7297C72.6574 59.5419 72.4187 60.3364 71.9696 61.0126C71.5205 61.6887 70.8812 62.2162 70.1328 62.5283C69.3843 62.8404 68.5603 62.9229 67.7649 62.7656C66.9696 62.6082 66.2388 62.218 65.6649 61.6443C65.091 61.0707 64.6999 60.3393 64.5411 59.5429C64.3823 58.7464 64.4629 57.9206 64.7727 57.1701C65.0826 56.4195 65.6077 55.778 66.2816 55.3265C66.9555 54.8751 67.748 54.6342 68.5587 54.6342C69.6437 54.6342 70.6844 55.0654 71.4525 55.8332C72.2205 56.601 72.6532 57.6427 72.6556 58.7297Z" fill="#00273E"/>
<path d="M105.242 55.9002H76.7436V57.4824H105.242V55.9002Z" fill="#00273E"/>
<path d="M132.179 59.5078H76.7436V61.09H132.179V59.5078Z" fill="#FDFFFE"/>
<path d="M72.6556 71.3335C72.6574 72.1457 72.4187 72.9402 71.9696 73.6164C71.5205 74.2926 70.8812 74.8201 70.1328 75.1321C69.3843 75.4442 68.5603 75.5268 67.7649 75.3694C66.9696 75.2121 66.2388 74.8218 65.6649 74.2482C65.091 73.6745 64.6999 72.9431 64.5411 72.1467C64.3823 71.3502 64.4629 70.5245 64.7727 69.7739C65.0826 69.0234 65.6077 68.3818 66.2816 67.9304C66.9555 67.4789 67.748 67.238 68.5587 67.238C69.0963 67.2368 69.6288 67.3419 70.1258 67.5471C70.6228 67.7524 71.0746 68.0539 71.4551 68.4344C71.8357 68.8148 72.1376 69.2667 72.3436 69.7641C72.5496 70.2616 72.6556 70.7949 72.6556 71.3335Z" fill="#B19FFD"/>
<path d="M91.2905 68.503H76.7436V70.0851H91.2905V68.503Z" fill="#B19FFD"/>
<path d="M132.179 72.1017H76.7436V73.6839H132.179V72.1017Z" fill="#FDFFFE"/>
<path d="M556.71 0.234955H418.063V158.768H556.71V0.234955Z" fill="#FDFFFE"/>
<path d="M556.71 158.768C556.71 158.768 556.71 158.506 556.71 158.018C556.71 157.53 556.71 156.779 556.71 155.812C556.71 153.868 556.71 151.002 556.71 147.259C556.71 139.773 556.71 128.825 556.655 114.92C556.655 87.1187 556.592 47.5103 556.556 0.235091L556.764 0.443036H418.126L418.37 0.207969C418.37 58.6578 418.37 113.166 418.325 158.741L418.126 158.542L518.7 158.642L546.81 158.696H554.219H556.782C556.782 158.696 555.934 158.696 554.264 158.696H546.891L518.808 158.85L418.108 158.949H417.91V158.75C417.91 113.175 417.91 58.6668 417.91 0.217012V3.05176e-05H418.162H556.8H557.007V0.207969C557.007 47.5374 556.926 87.191 556.899 115.028C556.899 128.924 556.899 139.855 556.845 147.332C556.845 151.047 556.845 153.904 556.845 155.839V158.018C556.71 158.524 556.71 158.768 556.71 158.768Z" fill="#00273E"/>
<path d="M541.477 12.9102H429.163V103.184H541.477V12.9102Z" fill="#F2F2FE"/>
<path d="M440.687 87.1364H437.005V88.2032H440.687V87.1364Z" fill="#00273E"/>
<path d="M450.063 92.8233H445.352V93.8902H450.063V92.8233Z" fill="#00273E"/>
<path d="M466.468 92.8233H461.758V93.8902H466.468V92.8233Z" fill="#00273E"/>
<path d="M482.884 92.8233H478.173V93.8902H482.884V92.8233Z" fill="#00273E"/>
<path d="M499.289 92.8233H494.579V93.8902H499.289V92.8233Z" fill="#00273E"/>
<path d="M515.704 92.8233H510.994V93.8902H515.704V92.8233Z" fill="#00273E"/>
<path d="M532.11 92.8233H527.399V93.8902H532.11V92.8233Z" fill="#00273E"/>
<path d="M440.687 72.9152H437.005V73.982H440.687V72.9152Z" fill="#00273E"/>
<path d="M440.687 46.1721H437.005V47.239H440.687V46.1721Z" fill="#00273E"/>
<path d="M440.687 32.7282H437.005V33.795H440.687V32.7282Z" fill="#00273E"/>
<path d="M440.876 59.5437H437.194V60.6106H440.876V59.5437Z" fill="#00273E"/>
<path d="M531.984 88.1944C531.851 88.2061 531.719 88.2061 531.586 88.1944H530.431H525.919L509.522 88.2757L455.378 88.339H442.383V88.104C442.383 70.022 442.446 54.0286 442.464 42.5827C442.464 36.8869 442.518 32.3122 442.536 29.1388C442.536 27.5838 442.536 26.3723 442.536 25.5224C442.536 25.1246 442.536 24.8172 442.536 24.6183C442.523 24.5133 442.523 24.4069 442.536 24.3019C442.55 24.4069 442.55 24.5133 442.536 24.6183C442.536 24.8534 442.536 25.1608 442.536 25.5224C442.536 26.3723 442.536 27.5838 442.536 29.1388C442.536 32.3122 442.582 36.8869 442.609 42.5827C442.609 54.0286 442.609 69.9859 442.69 88.104L442.455 87.8779H455.278L509.423 87.9503L525.82 88.0226L530.332 88.0678H531.487L531.984 88.1944Z" fill="#00273E"/>
<path d="M533.021 60.0771C533.021 60.2037 513.583 60.3122 489.606 60.3122C465.629 60.3122 446.182 60.2037 446.182 60.0771C446.182 59.9506 465.62 59.8421 489.606 59.8421C513.592 59.8421 533.021 59.9506 533.021 60.0771Z" fill="#00273E"/>
<path d="M533.021 46.7418C533.021 46.8774 513.583 46.9768 489.606 46.9768C465.629 46.9768 446.182 46.8774 446.182 46.7418C446.182 46.6062 465.62 46.5067 489.606 46.5067C513.592 46.5067 533.021 46.57 533.021 46.7418Z" fill="#00273E"/>
<path d="M533.021 33.2527C533.021 33.3883 513.583 33.4878 489.606 33.4878C465.629 33.4878 446.182 33.3883 446.182 33.2527C446.182 33.1171 465.62 33.0176 489.606 33.0176C513.592 33.0176 533.021 33.1261 533.021 33.2527Z" fill="#00273E"/>
<path d="M533.021 73.4489C533.021 73.5845 513.583 73.6839 489.606 73.6839C465.629 73.6839 446.182 73.5845 446.182 73.4489C446.182 73.3133 465.62 73.2138 489.606 73.2138C513.592 73.2138 533.021 73.3223 533.021 73.4489Z" fill="#00273E"/>
<path d="M447.076 85.3196V73.4488L454.457 61.9668L459.475 65.8183L469.753 49.8158L475.817 54.0921L484.255 39.3283L491.113 44.9246L501.392 25.3419L512.492 47.2301L521.452 36.2814L532.002 33.2527V85.3196H447.076Z" fill="#CCDCFE"/>
<path d="M533.021 29.0392C533.021 29.0392 532.958 29.0392 532.832 29.0392H532.281H530.143L522.021 29.1025L522.129 29.0483L513.466 40.4128L513.412 40.4851H513.394H491.682L491.871 40.3766C489.011 45.1412 485.934 50.3217 482.748 55.6016L473.778 70.5282L473.607 70.8175L473.399 70.5463C469.122 64.6335 465.151 59.1637 461.668 54.3358H461.956L451.173 71.152L448.168 75.772L447.364 76.9744C447.184 77.2457 447.076 77.3813 447.076 77.3813C447.076 77.3813 447.148 77.2276 447.319 76.9473L448.068 75.7087L450.992 71.0345L461.595 54.2093L461.749 53.9652L461.911 54.2002L473.688 70.3926H473.309L482.261 55.4569L491.402 40.241L491.465 40.1325H491.601H513.313L513.168 40.2048L521.913 28.9127V28.8584H521.976L530.098 28.9217H532.236H532.787L533.021 29.0392Z" fill="#B19FFD"/>
<path d="M465.322 58.1423C465.33 58.3099 465.287 58.4759 465.199 58.6188C465.111 58.7618 464.983 58.8751 464.83 58.9444C464.678 59.0136 464.508 59.0355 464.343 59.0072C464.178 58.979 464.025 58.9019 463.904 58.7859C463.783 58.6699 463.699 58.5202 463.664 58.3562C463.628 58.1922 463.643 58.0213 463.705 57.8656C463.767 57.7098 463.875 57.5763 464.013 57.4822C464.152 57.3881 464.316 57.3378 464.483 57.3376C464.591 57.3352 464.698 57.3541 464.799 57.3933C464.899 57.4324 464.991 57.491 465.069 57.5657C465.147 57.6404 465.21 57.7298 465.253 57.8287C465.296 57.9277 465.32 58.0342 465.322 58.1423Z" fill="#B19FFD"/>
<path d="M490.364 43.8757C490.373 44.044 490.332 44.2111 490.245 44.3554C490.158 44.4997 490.029 44.6145 489.877 44.6848C489.724 44.7552 489.553 44.7779 489.387 44.75C489.221 44.7221 489.068 44.6449 488.946 44.5284C488.825 44.4119 488.741 44.2615 488.706 44.0967C488.67 43.9318 488.685 43.7602 488.749 43.6041C488.812 43.4479 488.921 43.3145 489.061 43.221C489.201 43.1276 489.366 43.0785 489.534 43.08C489.749 43.0776 489.956 43.1595 490.111 43.3082C490.266 43.4569 490.357 43.6606 490.364 43.8757Z" fill="#B19FFD"/>
<path d="M509.838 40.4132C509.846 40.5808 509.803 40.7468 509.715 40.8898C509.627 41.0327 509.499 41.1461 509.346 41.2153C509.194 41.2845 509.024 41.3064 508.859 41.2782C508.694 41.2499 508.541 41.1728 508.42 41.0568C508.299 40.9408 508.215 40.7911 508.18 40.6271C508.144 40.4631 508.159 40.2923 508.221 40.1365C508.283 39.9807 508.391 39.8472 508.529 39.7531C508.668 39.6591 508.832 39.6087 508.999 39.6085C509.107 39.6061 509.214 39.625 509.315 39.6642C509.415 39.7033 509.507 39.7619 509.585 39.8367C509.663 39.9114 509.726 40.0008 509.769 40.0997C509.813 40.1986 509.836 40.3051 509.838 40.4132Z" fill="#B19FFD"/>
<path d="M536.414 116.601C536.414 116.737 512.717 116.836 483.488 116.836C454.259 116.836 430.552 116.737 430.552 116.601C430.552 116.465 454.25 116.366 483.488 116.366C512.726 116.366 536.414 116.474 536.414 116.601Z" fill="#00273E"/>
<path d="M536.414 122.333C536.414 122.469 512.717 122.568 483.488 122.568C454.259 122.568 430.552 122.469 430.552 122.333C430.552 122.197 454.25 122.098 483.488 122.098C512.726 122.098 536.414 122.207 536.414 122.333Z" fill="#00273E"/>
<path d="M536.414 128.11C536.414 128.237 512.717 128.345 483.488 128.345C454.259 128.345 430.552 128.237 430.552 128.11C430.552 127.983 454.25 127.875 483.488 127.875C512.726 127.875 536.414 127.938 536.414 128.11Z" fill="#00273E"/>
<path d="M536.414 133.806C536.414 133.933 512.717 134.041 483.488 134.041C454.259 134.041 430.552 133.933 430.552 133.806C430.552 133.679 454.25 133.571 483.488 133.571C512.726 133.571 536.414 133.67 536.414 133.806Z" fill="#00273E"/>
<path d="M494.486 131.555C497.383 126.682 498.231 120.191 498.998 114.567C499.341 111.918 499.955 108.157 498.096 106.494C496.237 104.83 495.93 101.973 493.647 100.608C492.514 99.8979 491.202 99.5268 489.866 99.538C488.529 99.5492 487.224 99.9423 486.103 100.671" fill="#00273E"/>
<path d="M486.455 148.814C485.406 148.895 484.352 148.764 483.356 148.427C482.359 148.09 481.441 147.556 480.656 146.855C479.87 146.154 479.234 145.302 478.786 144.349C478.337 143.397 478.085 142.363 478.044 141.31C477.882 137.043 477.737 132.74 477.737 132.74C477.737 132.74 471.294 132.134 470.825 125.742C470.356 119.35 470.572 104.595 470.572 104.595C474.107 102.81 478.053 102.002 482.003 102.257C485.954 102.511 489.765 103.818 493.042 106.042L492.645 128.535V140.641C492.6 144.701 490.497 148.507 486.455 148.814Z" fill="#FFBE9D"/>
<path d="M477.178 117.939C477.647 117.256 478.359 116.776 479.168 116.598C479.977 116.42 480.824 116.557 481.536 116.981C482.257 117.484 482.777 118.227 483.003 119.078C483.23 119.929 483.148 120.832 482.773 121.628C482.442 122.218 481.993 122.733 481.454 123.14C480.915 123.548 480.298 123.839 479.641 123.997C479.053 124.127 478.533 124.468 478.178 124.956C477.824 125.444 477.661 126.045 477.719 126.646C477.909 128.246 480.571 128.852 481.771 130.181C483.639 132.242 487.745 133.119 490.515 133.445C493.286 133.77 492.898 133.788 494.477 131.555C495.545 130.041 496.09 128.219 496.029 126.366L496.327 112.225C496.432 110.528 496.323 108.824 496.002 107.154C495.664 105.462 494.696 103.962 493.295 102.958C491.743 101.937 489.775 101.846 488.016 101.277C485.805 100.563 483.928 99.089 481.861 98.0312C479.795 96.9734 477.259 96.3405 475.183 97.3802C473.694 98.1306 472.693 99.6224 471.24 100.445C469.182 101.62 466.376 101.349 465.374 104.396C465.018 105.448 465.018 106.589 465.374 107.642C466.773 111.782 471.881 113.446 475.562 111.656C475.635 112.361 474.949 113.916 475.68 116.131C475.914 116.836 476.004 117.939 477.105 117.939" fill="#00273E"/>
<path d="M478.324 121.927C478.378 121.927 478.594 122.261 479.127 122.234C479.463 122.164 479.765 121.98 479.981 121.713C480.198 121.447 480.317 121.113 480.318 120.769C480.334 120.421 480.236 120.077 480.039 119.79C479.842 119.503 479.556 119.288 479.226 119.178C478.694 118.988 478.324 119.088 478.324 119.016C478.324 118.943 478.676 118.726 479.335 118.862C479.719 118.949 480.068 119.151 480.336 119.44C480.665 119.813 480.834 120.3 480.805 120.797C480.82 121.256 480.655 121.703 480.344 122.041C480.034 122.379 479.603 122.581 479.145 122.605C479.008 122.601 478.873 122.567 478.75 122.506C478.627 122.445 478.519 122.359 478.432 122.252C478.297 122.044 478.297 121.936 478.324 121.927Z" fill="#FFBE9D"/>
<path d="M484.966 102.651C484.966 102.651 485.101 102.407 485.498 102.109C486.075 101.707 486.741 101.449 487.438 101.358C488.478 101.222 489.535 101.382 490.488 101.82C491.64 102.385 492.614 103.258 493.304 104.342C494.472 106.31 495.153 108.53 495.289 110.815C495.423 111.74 495.48 112.675 495.461 113.609C495.213 112.722 495.044 111.814 494.955 110.897C494.734 108.688 494.039 106.554 492.916 104.64C492.272 103.628 491.372 102.805 490.308 102.254C489.463 101.828 488.518 101.643 487.576 101.72C486.634 101.796 485.731 102.131 484.966 102.688V102.651Z" fill="#7E969F"/>
<path d="M466.998 109.197C466.918 109.213 466.835 109.213 466.755 109.197C466.529 109.139 466.314 109.041 466.123 108.907C465.813 108.694 465.559 108.409 465.383 108.076C465.139 107.622 465.068 107.095 465.185 106.593C465.323 105.981 465.691 105.447 466.213 105.101C466.832 104.768 467.536 104.629 468.235 104.703C468.914 104.785 469.599 104.611 470.157 104.215C470.724 103.7 471.246 103.137 471.718 102.534C472.789 101.39 474.174 100.591 475.698 100.237C476.921 99.9301 478.197 99.8992 479.434 100.147C480.266 100.307 481.063 100.613 481.789 101.051C482.061 101.197 482.308 101.387 482.52 101.611C481.535 101.078 480.477 100.694 479.38 100.472C478.178 100.269 476.947 100.328 475.77 100.644C474.343 101.003 473.049 101.766 472.043 102.841C471.551 103.467 471.004 104.048 470.41 104.577C470.086 104.825 469.709 104.995 469.309 105.074C468.942 105.132 468.57 105.15 468.199 105.128C467.582 105.043 466.953 105.144 466.394 105.418C465.946 105.704 465.623 106.15 465.491 106.665C465.4 107.046 465.42 107.445 465.548 107.815C465.676 108.185 465.907 108.511 466.213 108.754C466.462 108.923 466.725 109.072 466.998 109.197Z" fill="#7E969F"/>
<path d="M484.072 126.981C484.072 126.935 484.388 126.818 484.912 126.465C485.649 125.966 486.248 125.288 486.653 124.494C486.948 123.921 487.125 123.295 487.175 122.652C487.224 122.009 487.145 121.363 486.942 120.751C486.715 120.027 486.319 119.367 485.787 118.826C485.19 118.254 484.519 117.764 483.793 117.37C483.044 116.936 482.286 116.529 481.6 116.059C480.908 115.608 480.298 115.043 479.795 114.387C478.967 113.284 478.45 111.979 478.297 110.607C478.193 109.698 478.266 108.777 478.513 107.895C478.569 107.654 478.654 107.42 478.766 107.199C478.838 107.036 478.883 106.964 478.892 106.973C478.578 108.151 478.489 109.378 478.631 110.589C478.82 111.887 479.339 113.113 480.138 114.151C480.612 114.755 481.179 115.28 481.816 115.707C482.484 116.15 483.233 116.547 483.991 116.99C484.757 117.406 485.462 117.926 486.085 118.536C486.658 119.13 487.082 119.852 487.321 120.643C487.53 121.309 487.601 122.012 487.53 122.706C487.459 123.401 487.246 124.074 486.906 124.684C486.452 125.494 485.783 126.164 484.975 126.619C484.701 126.798 484.394 126.921 484.072 126.981Z" fill="#7E969F"/>
<path d="M495.136 117.596C494.873 117.701 494.596 117.765 494.315 117.786C493.551 117.877 492.781 117.899 492.013 117.849C489.466 117.69 487.009 116.844 484.902 115.399C482.719 114.029 481.07 111.952 480.228 109.513C480.014 108.76 479.983 107.967 480.138 107.199C480.179 106.915 480.287 106.646 480.453 106.412C480.217 107.407 480.251 108.446 480.553 109.423C481.452 111.733 483.068 113.692 485.164 115.01C487.214 116.402 489.577 117.262 492.04 117.515C493.935 117.723 495.127 117.506 495.136 117.596Z" fill="#7E969F"/>
<path d="M496.128 113.22C497.208 111.943 498.558 110.923 500.079 110.232C501.601 109.541 503.257 109.197 504.927 109.224C508.248 109.414 511.487 111.719 512.3 114.947C512.913 117.388 512.164 119.929 511.857 122.415C511.551 124.901 511.857 127.84 513.87 129.295C515.097 130.199 516.676 130.344 518.147 130.705C519.618 131.067 521.179 131.799 521.685 133.228C522.262 134.864 521.08 136.718 519.492 137.414C517.841 137.988 516.05 138.013 514.384 137.486C514.713 138.427 514.703 139.453 514.357 140.387C514.011 141.321 513.351 142.105 512.489 142.603C511.608 143.069 510.619 143.293 509.624 143.252C508.628 143.21 507.662 142.905 506.822 142.368C505.151 141.261 503.926 139.595 503.366 137.667C502.274 139.593 499.404 140 497.563 138.77C496.677 138.104 495.99 137.208 495.576 136.178C495.162 135.148 495.038 134.025 495.217 132.93C495.601 130.735 496.625 128.703 498.159 127.089C498.939 126.296 499.626 125.416 500.207 124.467C500.495 123.989 500.657 123.446 500.679 122.888C500.701 122.33 500.582 121.775 500.334 121.276C500.198 121.037 500.013 120.83 499.791 120.669C499.569 120.509 499.315 120.397 499.047 120.343C498.778 120.289 498.501 120.294 498.234 120.356C497.967 120.419 497.717 120.538 497.5 120.706" fill="#00273E"/>
<path d="M499.982 119.973C499.683 120.118 499.356 120.193 499.025 120.193C498.694 120.193 498.367 120.118 498.068 119.973C497.331 119.665 496.687 119.169 496.2 118.535C495.712 117.901 495.398 117.15 495.289 116.357C495.144 115.481 495.247 114.582 495.587 113.762C495.864 113.101 496.283 112.508 496.814 112.026C497.265 111.556 497.852 111.239 498.493 111.122C497.987 111.483 497.505 111.875 497.049 112.298C496.536 112.822 496.152 113.458 495.926 114.156C495.701 114.854 495.64 115.595 495.749 116.321C495.853 117.043 496.129 117.73 496.555 118.322C496.981 118.914 497.544 119.394 498.195 119.72C498.768 119.921 499.375 120.007 499.982 119.973Z" fill="#B19FFD"/>
<path d="M477.53 132.631C477.038 132.705 476.536 132.655 476.068 132.487C474.918 132.165 473.856 131.587 472.962 130.794C472.068 130.002 471.365 129.016 470.906 127.912C470.68 127.47 470.569 126.979 470.581 126.484C470.818 126.9 471.026 127.332 471.204 127.776C471.715 128.803 472.417 129.723 473.27 130.489C474.122 131.237 475.104 131.822 476.167 132.215C476.631 132.318 477.087 132.457 477.53 132.631Z" fill="#FFBE9D"/>
<path d="M502.093 137.866C502.093 137.866 501.976 137.866 501.778 137.866C501.484 137.785 501.204 137.66 500.947 137.495C500.021 136.836 499.376 135.852 499.142 134.738C498.96 133.977 498.932 133.186 499.061 132.414C499.221 131.54 499.507 130.693 499.91 129.901C500.713 128.21 501.976 126.61 502.915 124.756C503.371 123.864 503.676 122.901 503.817 121.909C503.991 120.663 503.734 119.395 503.089 118.316C502.443 117.237 501.449 116.412 500.27 115.978C499.255 115.625 498.162 115.559 497.112 115.788C496.363 115.942 495.984 116.149 495.966 116.113C495.948 116.077 496.047 116.041 496.228 115.932C496.497 115.798 496.778 115.689 497.067 115.607C498.429 115.219 499.888 115.355 501.155 115.989C502.422 116.623 503.407 117.709 503.916 119.034C504.279 119.964 504.403 120.971 504.277 121.963C504.117 123.011 503.785 124.025 503.294 124.964C502.319 126.881 501.047 128.463 500.252 130.091C499.451 131.471 499.157 133.09 499.422 134.665C499.611 135.731 500.174 136.693 501.01 137.378C501.357 137.571 501.719 137.734 502.093 137.866Z" fill="#7E969F"/>
<path d="M511.713 142.576C511.581 142.59 511.448 142.59 511.316 142.576C510.93 142.559 510.548 142.492 510.179 142.377C508.81 141.912 507.636 140.998 506.849 139.782C505.727 137.96 505.226 135.821 505.423 133.689C505.672 131.143 506.082 128.615 506.651 126.122C506.882 124.836 506.973 123.53 506.921 122.225C506.857 121.022 506.579 119.84 506.1 118.735C505.706 117.792 505.089 116.96 504.303 116.308C503.518 115.656 502.586 115.205 501.588 114.992C500.237 114.683 498.833 114.683 497.482 114.992C496.516 115.209 496.011 115.426 495.993 115.381C495.975 115.336 496.11 115.299 496.345 115.191C496.701 115.042 497.066 114.915 497.437 114.811C498.812 114.423 500.26 114.37 501.66 114.658C502.642 114.854 503.567 115.268 504.367 115.869C505.283 116.583 506.006 117.516 506.47 118.581C506.99 119.721 507.296 120.947 507.373 122.198C507.441 123.535 507.353 124.877 507.111 126.194C506.553 128.673 506.132 131.181 505.847 133.707C505.64 135.755 506.089 137.817 507.129 139.593C507.854 140.776 508.943 141.69 510.233 142.196C510.716 142.361 511.211 142.488 511.713 142.576Z" fill="#7E969F"/>
<path d="M513.635 171.661L500.054 182.275L505.748 191.659L522.118 179.581L513.635 171.661Z" fill="#FFBE9D"/>
<path d="M477.286 135.976C477.286 135.976 477.358 134.837 474.389 134.674C473.294 134.578 472.195 134.542 471.095 134.566C470.443 133.768 469.961 132.845 469.679 131.854C469.726 130.89 469.939 129.941 470.31 129.051L473.315 128.78L472.503 126.736L470.382 126.881L464.418 127.604L462.044 138.056L445.747 168.524C445.124 169.46 444.708 170.518 444.528 171.629C444.348 172.739 444.408 173.875 444.703 174.961C444.998 176.046 445.521 177.055 446.239 177.921C446.956 178.787 447.849 179.488 448.86 179.979C453.074 182.022 458.714 177.691 460.276 173.27L469.3 139.376L472.476 136.898L476.988 136.067" fill="#FFBE9D"/>
<path d="M440.179 338.765L462.333 210.925C462.387 210.736 462.432 210.555 462.477 210.374C466.259 195.375 472.079 190.574 472.079 190.574L506.019 192.708C508.907 197.907 509.276 210.374 509.276 210.374C509.674 211.902 502.102 335.79 502.102 335.79L490.714 335.438L484.559 218.231L451.522 339.262L440.179 338.765Z" fill="#FFBE9D"/>
<path d="M439.881 339.922L439.926 338.774L451.603 339.108L451.504 342.915H450.782C447.57 342.996 434.44 343.104 432.31 342.445C429.946 341.73 439.881 339.922 439.881 339.922Z" fill="#B19FFD"/>
<g opacity="0.6">
<path d="M447.29 342.716C447.504 341.791 448.058 340.981 448.842 340.447C449.635 339.902 450.591 339.65 451.549 339.732L451.459 342.761L447.29 342.716Z" fill="#FDFFFE"/>
</g>
<g opacity="0.6">
<path d="M435.017 340.971C435.017 340.971 431.534 341.803 431.949 342.345C432.364 342.888 445.638 343.249 451.504 342.915V342.671L436.01 342.381C436.01 342.381 435.667 341.016 435.017 340.971Z" fill="#FDFFFE"/>
</g>
<path d="M451.676 342.67H451.477H450.9H448.788C446.983 342.67 444.529 342.67 441.803 342.598C439.078 342.526 436.614 342.417 434.828 342.309L432.716 342.173H432.147C432.012 342.173 431.949 342.173 431.949 342.173H432.147H432.725L434.837 342.263C436.641 342.345 439.087 342.444 441.812 342.517C444.538 342.589 447.001 342.607 448.788 342.625H451.676V342.67Z" fill="#00273E"/>
<path d="M436.001 342.553C435.88 341.864 435.499 341.249 434.936 340.835C435.29 340.956 435.583 341.209 435.757 341.54C435.862 341.685 435.938 341.848 435.98 342.022C436.022 342.196 436.029 342.376 436.001 342.553Z" fill="#00273E"/>
<path d="M439.484 341.025C439.484 341.025 439.294 340.853 439.132 340.6C438.97 340.347 438.861 340.13 438.897 340.112C438.934 340.094 439.087 340.284 439.249 340.537C439.412 340.79 439.52 341.007 439.484 341.025Z" fill="#00273E"/>
<path d="M440.441 340.573C440.441 340.573 440.233 340.474 440.035 340.302C439.836 340.13 439.701 339.967 439.728 339.94C439.882 339.999 440.02 340.092 440.134 340.211C440.332 340.401 440.468 340.573 440.441 340.573Z" fill="#00273E"/>
<path d="M441.081 339.579C440.886 339.642 440.681 339.663 440.477 339.642C440.272 339.659 440.066 339.631 439.872 339.561C440.067 339.498 440.274 339.48 440.477 339.506C440.681 339.491 440.886 339.515 441.081 339.579Z" fill="#00273E"/>
<path d="M441.289 338.864C441.086 338.989 440.85 339.049 440.612 339.036C440.372 339.07 440.127 339.032 439.908 338.928C440.139 338.908 440.372 338.908 440.603 338.928C440.829 338.886 441.059 338.865 441.289 338.864Z" fill="#00273E"/>
<path d="M439.114 340.076C438.868 340.111 438.619 340.111 438.374 340.076C438.105 340.036 437.84 339.975 437.58 339.895C437.424 339.846 437.273 339.782 437.129 339.705C437.042 339.656 436.977 339.575 436.948 339.479C436.939 339.426 436.946 339.372 436.969 339.324C436.991 339.275 437.028 339.235 437.074 339.208C437.361 339.083 437.68 339.057 437.984 339.132C438.287 339.207 438.557 339.38 438.753 339.624C438.865 339.761 438.945 339.922 438.987 340.094C438.987 340.221 438.987 340.284 438.987 340.284C438.92 340.064 438.813 339.859 438.672 339.678C438.501 339.491 438.282 339.354 438.04 339.28C437.75 339.165 437.427 339.165 437.138 339.28C437.02 339.353 437.065 339.488 437.192 339.561C437.323 339.635 437.462 339.696 437.607 339.741C437.857 339.829 438.113 339.899 438.374 339.949C438.834 340.04 439.114 340.049 439.114 340.076Z" fill="#00273E"/>
<path d="M438.924 340.103C438.837 339.956 438.812 339.781 438.852 339.615C438.881 339.43 438.955 339.256 439.069 339.108C439.14 339.007 439.235 338.923 439.345 338.865C439.454 338.807 439.576 338.776 439.701 338.774C439.774 338.787 439.838 338.829 439.881 338.89C439.923 338.951 439.939 339.026 439.926 339.099C439.905 339.211 439.859 339.316 439.791 339.407C439.684 339.559 439.559 339.698 439.421 339.823C439.298 339.944 439.15 340.036 438.988 340.094C438.988 340.094 439.141 339.967 439.349 339.759C439.475 339.636 439.584 339.496 439.674 339.343C439.782 339.199 439.863 338.937 439.674 338.9C439.575 338.91 439.48 338.941 439.394 338.991C439.308 339.041 439.235 339.109 439.177 339.19C439.065 339.316 438.988 339.468 438.952 339.633C438.924 339.788 438.915 339.946 438.924 340.103Z" fill="#00273E"/>
<path d="M451.531 339.669C451.531 339.669 451.197 339.669 450.629 339.669C449.952 339.732 449.3 339.962 448.734 340.338C448.195 340.721 447.773 341.247 447.516 341.857C447.326 342.309 447.299 342.626 447.272 342.617C447.258 342.545 447.258 342.471 447.272 342.4C447.298 342.202 447.347 342.008 447.416 341.821C447.654 341.18 448.082 340.628 448.644 340.239C449.227 339.837 449.912 339.609 450.62 339.579C450.83 339.557 451.042 339.557 451.252 339.579C451.351 339.585 451.447 339.616 451.531 339.669Z" fill="#00273E"/>
<path d="M445.864 341.622C445.303 341.732 444.73 341.772 444.159 341.739C443.588 341.746 443.019 341.688 442.462 341.567C442.462 341.522 443.229 341.567 444.159 341.567C445.088 341.567 445.855 341.586 445.864 341.622Z" fill="#00273E"/>
<path d="M448.138 341.685C448.138 341.685 448.075 341.829 447.994 341.992C447.913 342.155 447.858 342.291 447.822 342.291C447.786 342.291 447.768 342.119 447.822 341.929C447.876 341.739 448.111 341.658 448.138 341.685Z" fill="#00273E"/>
<path d="M449.031 340.709C449.031 340.709 448.977 340.844 448.851 340.953C448.725 341.061 448.607 341.134 448.58 341.107C448.553 341.079 448.634 340.971 448.752 340.862C448.869 340.754 449.004 340.682 449.031 340.709Z" fill="#00273E"/>
<path d="M450.268 340.284C450.268 340.284 450.105 340.284 449.934 340.365C449.762 340.447 449.636 340.501 449.609 340.474C449.582 340.447 449.681 340.302 449.889 340.239C450.096 340.175 450.286 340.257 450.268 340.284Z" fill="#00273E"/>
<path d="M451.152 340.094C451.152 340.094 451.098 340.184 450.999 340.211C450.899 340.239 450.809 340.211 450.8 340.211C450.791 340.211 450.854 340.121 450.953 340.094C451.053 340.067 451.134 340.058 451.152 340.094Z" fill="#00273E"/>
<path d="M496.914 139.575C500.144 140.081 503.224 141.291 505.938 143.119C516.667 150.089 534.616 164.817 533.127 171.661C531.828 177.465 517.786 184.526 517.786 184.526L508.762 173.569L514.33 170.377L500.641 161.246L496.914 139.575Z" fill="#00273E"/>
<path d="M503.032 161.77L502.59 163.397L501.01 170.956L500.64 182.031C508.762 192.536 508.906 201.378 508.906 201.378L467.784 206.188C467.784 198.051 470.752 187.799 470.752 187.799C473.126 183.758 473.018 171.661 472.557 171.218C469.994 168.668 469.372 166.797 471.42 163.533C471.42 163.533 458.669 176.95 457.361 178.152C452.849 182.293 448.517 181.136 446.532 179.337C440.901 174.301 446.676 167.809 446.676 167.809L468.154 143.155C469.613 141.464 471.563 140.273 473.73 139.746C475.25 139.398 476.786 139.126 478.333 138.933L492.672 139.05C494.108 139.098 495.536 139.274 496.941 139.574C498.559 140.229 499.984 141.286 501.08 142.647C502.176 144.008 502.907 145.626 503.203 147.35C504.458 153.525 503.032 161.77 503.032 161.77Z" fill="#00273E"/>
<path d="M503.483 151.888C503.557 152.281 503.587 152.682 503.573 153.082C503.573 153.85 503.573 154.971 503.492 156.345C503.243 159.919 502.77 163.473 502.076 166.987C501.814 168.388 501.525 169.744 501.227 171.001V170.956C501.101 174.156 500.975 176.923 500.866 178.894C500.803 179.798 500.758 180.575 500.722 181.19C500.72 181.471 500.683 181.75 500.614 182.022C500.562 181.748 500.547 181.468 500.568 181.19C500.568 180.566 500.568 179.798 500.568 178.884C500.568 176.914 500.668 174.138 500.767 170.937V170.892C501.047 169.654 501.326 168.298 501.588 166.896C502.373 162.792 502.897 159.04 503.14 156.309C503.258 154.944 503.321 153.841 503.366 153.073C503.368 152.675 503.407 152.278 503.483 151.888Z" fill="#7E969F"/>
<path d="M503.618 162.963C508.711 166.113 513.636 169.526 518.373 173.189C515.784 171.686 513.277 170.044 510.865 168.271C508.359 166.629 505.94 164.857 503.618 162.963Z" fill="#7E969F"/>
<path d="M477.033 146.816C477.033 146.816 477.124 146.861 477.25 146.979C477.435 147.151 477.604 147.338 477.755 147.54C478.315 148.294 478.698 149.166 478.874 150.089C479.14 151.464 479.059 152.884 478.64 154.221C478.102 155.836 477.323 157.36 476.329 158.741C475.82 159.453 475.252 160.121 474.633 160.739C474.037 161.345 473.397 161.842 472.828 162.358C471.691 163.379 470.716 164.347 469.904 165.178C469.092 166.01 468.451 166.688 468.009 167.158C467.567 167.629 467.314 167.9 467.287 167.873C467.45 167.574 467.647 167.295 467.874 167.041C468.271 166.535 468.876 165.811 469.679 164.943C470.482 164.075 471.42 163.135 472.557 162.041C473.126 161.508 473.749 161.001 474.362 160.414C474.961 159.808 475.51 159.155 476.005 158.461C476.964 157.13 477.73 155.669 478.279 154.121C478.697 152.852 478.808 151.501 478.604 150.179C478.375 148.943 477.834 147.785 477.033 146.816Z" fill="#7E969F"/>
<path d="M472.25 183.243L472.729 177.709H500.776L500.622 182.031L472.25 183.243Z" fill="#7E969F"/>
<path d="M448.3 166.724C447.747 167.234 447.225 167.777 446.739 168.352C445.613 169.76 445.033 171.528 445.106 173.331C445.179 175.134 445.9 176.849 447.136 178.161C447.672 178.691 448.236 179.192 448.824 179.662C448.824 179.662 448.598 179.662 448.246 179.418C447.755 179.138 447.303 178.795 446.902 178.396C445.526 177.069 444.714 175.261 444.637 173.349C444.56 171.437 445.222 169.569 446.487 168.135C446.851 167.702 447.273 167.322 447.741 167.005C448.102 166.788 448.3 166.697 448.3 166.724Z" fill="#7E969F"/>
<path d="M502.066 335.754L505.252 343.168L491.012 342.996L490.714 335.438L502.066 335.754Z" fill="#B19FFD"/>
<path d="M490.912 341.712C491.571 341.796 492.234 341.83 492.898 341.812C494.134 341.812 495.84 341.812 497.717 341.812L502.517 341.712C503.184 341.724 503.85 341.688 504.512 341.604C503.85 341.527 503.184 341.497 502.517 341.514C501.281 341.514 499.585 341.514 497.708 341.514L492.898 341.604C492.234 341.601 491.571 341.637 490.912 341.712Z" fill="#00273E"/>
<path d="M496.841 335.591C496.669 336.583 496.651 337.596 496.787 338.593C496.767 339.601 496.897 340.607 497.175 341.577C497.347 340.585 497.365 339.572 497.229 338.575C497.25 337.567 497.119 336.561 496.841 335.591Z" fill="#00273E"/>
<path opacity="0.6" d="M505.225 343.322L491.003 342.843L490.912 341.487L504.512 341.604L505.234 343.159" fill="#FDFFFE"/>
<path d="M507.977 194.236C518.689 228.095 504.882 269.195 508.194 308.65C508.519 312.528 510.089 317.157 506.47 319.363C505.482 319.943 504.347 320.223 503.203 320.168C500.316 320.068 497.897 318.568 495.316 317.537C490.361 315.575 484.887 315.362 479.795 316.931C476.384 317.998 472.991 319.888 469.453 319.354C464.752 318.64 461.71 313.984 457.388 312.013C453.336 310.205 448.662 310.856 444.213 310.747H444.077C442.574 310.687 441.104 310.288 439.777 309.578C438.45 308.869 437.3 307.869 436.413 306.651C435.526 305.434 434.925 304.032 434.655 302.549C434.385 301.067 434.454 299.542 434.855 298.09C441.325 274.366 462.757 197.319 472.251 183.27L500.641 182.031C503.239 185.195 506.596 189.924 507.977 194.236Z" fill="#B19FFD"/>
<path d="M498.042 210.175C497.592 210.872 497.075 211.524 496.498 212.119C495.198 213.641 493.799 215.075 492.311 216.414C490.789 217.721 489.131 218.86 487.366 219.813C486.655 220.246 485.899 220.597 485.11 220.862C485.011 220.699 488.485 219.054 491.995 216.052C493.746 214.533 495.181 212.987 496.255 211.893C496.793 211.264 497.392 210.689 498.042 210.175Z" fill="#00273E"/>
<g opacity="0.1">
<path d="M485.516 222.95C476.573 246.054 474.922 271.35 480.787 295.423C481.293 297.493 481.816 299.844 480.634 301.625C479.118 303.921 475.427 303.768 473.342 301.959C471.258 300.151 470.428 297.321 469.904 294.609C466.006 274.412 473.063 254.106 480.679 235.002" fill="#00273E"/>
</g>
<path d="M324.598 234.36H270.823V236.982H324.598V234.36Z" fill="#00273E"/>
<path d="M262.485 236.982L252.405 199.118H294.385L303.517 236.982H262.485Z" fill="#00273E"/>
<path d="M301 234.116H263.495L254.769 200.863H292.463L301 234.116Z" fill="#FDFFFE"/>
<path d="M255.392 203.259H293.085L292.445 200.863H254.769L255.392 203.259Z" fill="#B7B7B7"/>
<path d="M259.462 202.066C259.462 202.148 259.486 202.228 259.532 202.297C259.577 202.365 259.642 202.418 259.718 202.45C259.794 202.481 259.877 202.489 259.958 202.473C260.038 202.457 260.112 202.418 260.17 202.36C260.228 202.301 260.268 202.227 260.284 202.147C260.3 202.066 260.292 201.982 260.26 201.906C260.229 201.83 260.176 201.765 260.107 201.72C260.039 201.674 259.959 201.65 259.877 201.65C259.767 201.65 259.661 201.693 259.583 201.771C259.505 201.849 259.462 201.955 259.462 202.066Z" fill="#FDFFFE"/>
<path d="M258.045 202.066C258.045 202.148 258.069 202.228 258.115 202.297C258.16 202.365 258.225 202.418 258.301 202.45C258.377 202.481 258.46 202.489 258.541 202.473C258.621 202.457 258.695 202.418 258.753 202.36C258.811 202.301 258.851 202.227 258.867 202.147C258.883 202.066 258.875 201.982 258.843 201.906C258.812 201.83 258.759 201.765 258.69 201.72C258.622 201.674 258.542 201.65 258.46 201.65C258.35 201.65 258.244 201.693 258.166 201.771C258.088 201.849 258.045 201.955 258.045 202.066Z" fill="#FDFFFE"/>
<path d="M256.628 202.066C256.63 202.174 256.675 202.278 256.753 202.354C256.83 202.43 256.935 202.472 257.043 202.472C257.142 202.458 257.232 202.408 257.297 202.333C257.362 202.257 257.397 202.161 257.397 202.061C257.397 201.961 257.362 201.865 257.297 201.789C257.232 201.714 257.142 201.664 257.043 201.65C256.989 201.65 256.935 201.66 256.884 201.681C256.834 201.702 256.788 201.733 256.75 201.771C256.711 201.81 256.681 201.856 256.66 201.906C256.639 201.957 256.628 202.011 256.628 202.066Z" fill="#FDFFFE"/>
<path d="M283.727 217.824L287.86 222.561C288.631 222.027 289.262 221.316 289.7 220.487C290.138 219.658 290.371 218.735 290.378 217.797C290.378 214.488 287.346 211.775 283.691 211.793C280.037 211.811 277.032 214.506 277.05 217.851L283.727 217.824Z" fill="#B19FFD"/>
<path d="M283.204 218.583C283.633 218.941 284.029 219.338 284.386 219.768C285.126 220.563 286.191 221.72 287.436 223.131L287.581 223.294L287.4 223.42C286.398 224.126 285.231 224.56 284.012 224.681C282.793 224.801 281.563 224.604 280.443 224.107C279.294 223.615 278.302 222.818 277.573 221.802C276.934 220.887 276.567 219.808 276.517 218.692V218.52H276.725C278.701 218.52 280.334 218.52 281.471 218.52C282.053 218.5 282.636 218.527 283.213 218.601C282.616 218.694 282.013 218.742 281.408 218.746C280.271 218.8 278.701 218.854 276.734 218.909L276.932 218.692C277.008 219.723 277.364 220.714 277.961 221.558C278.652 222.503 279.588 223.241 280.668 223.691C281.719 224.154 282.869 224.344 284.012 224.245C285.155 224.145 286.255 223.759 287.211 223.122V223.411C286.011 222.01 285.027 220.825 284.341 219.985C283.927 219.547 283.547 219.078 283.204 218.583Z" fill="#00273E"/>
<path d="M280.506 214.252C280.508 214.352 280.549 214.448 280.619 214.518C280.69 214.589 280.785 214.63 280.885 214.632C280.984 214.63 281.078 214.589 281.147 214.518C281.216 214.447 281.255 214.352 281.255 214.252C281.255 214.204 281.245 214.156 281.227 214.111C281.208 214.066 281.181 214.025 281.147 213.99C281.112 213.956 281.071 213.929 281.027 213.91C280.982 213.891 280.934 213.882 280.885 213.882C280.836 213.881 280.787 213.889 280.741 213.907C280.695 213.925 280.653 213.953 280.617 213.987C280.582 214.022 280.554 214.063 280.535 214.108C280.516 214.154 280.506 214.203 280.506 214.252Z" fill="#00273E"/>
<path d="M273.079 211.549C274.555 211.306 276.052 211.221 277.546 211.296H278.232L278.304 211.359C279.266 212.227 280.132 213.197 280.885 214.252C279.825 213.506 278.848 212.648 277.97 211.694L278.142 211.757H277.546C276.054 211.841 274.557 211.772 273.079 211.549Z" fill="#00273E"/>
<path d="M264.641 216.278C264.453 215.708 264.308 215.125 264.208 214.533C263.956 213.385 263.604 211.712 263.189 209.66L263.143 209.434H263.378L272.709 209.353C272.655 209.353 273.151 209.723 272.944 209.552V209.651V209.759V209.986L273.025 210.428C273.079 210.727 273.142 211.016 273.196 211.333C273.305 211.911 273.404 212.481 273.512 213.041C273.72 214.153 273.909 215.22 274.099 216.233L274.144 216.486H273.891C271.085 216.486 268.729 216.441 267.087 216.414L265.201 216.359C264.986 216.367 264.771 216.349 264.56 216.305C264.799 216.266 265.04 216.247 265.282 216.251L267.213 216.188C268.865 216.142 271.166 216.088 273.891 216.061L273.684 216.314L273.142 213.096C273.034 212.544 272.926 211.975 272.817 211.396C272.763 211.107 272.7 210.808 272.646 210.492L272.565 210.049L272.519 209.823V209.714V209.624C272.312 209.452 272.799 209.859 272.745 209.823H263.378L263.568 209.597C263.92 211.577 264.19 213.213 264.38 214.407C264.569 215.6 264.659 216.251 264.641 216.278Z" fill="#00273E"/>
<path d="M279.955 221.784C279.969 221.873 280.015 221.955 280.083 222.014C280.152 222.073 280.239 222.105 280.33 222.105C280.42 222.105 280.508 222.073 280.576 222.014C280.645 221.955 280.69 221.873 280.704 221.784C280.704 221.683 280.664 221.586 280.593 221.515C280.522 221.444 280.426 221.404 280.325 221.404C280.276 221.404 280.227 221.414 280.182 221.433C280.136 221.452 280.095 221.48 280.06 221.516C280.026 221.551 279.999 221.593 279.981 221.639C279.963 221.685 279.954 221.734 279.955 221.784Z" fill="#00273E"/>
<path d="M273.548 221.811C274.662 221.568 275.804 221.482 276.941 221.558C278.074 221.472 279.214 221.548 280.325 221.784C279.214 222.021 278.075 222.103 276.941 222.028C275.806 222.109 274.664 222.036 273.548 221.811Z" fill="#00273E"/>
<path d="M264.668 224.758C264.5 224.354 264.365 223.937 264.262 223.511C264.019 222.679 263.667 221.449 263.243 219.894L263.188 219.677H263.414C265.959 219.632 269.343 219.596 273.043 219.587L273.268 219.759V219.831V219.912V220.075L273.35 220.401L273.512 221.034C273.62 221.458 273.729 221.874 273.828 222.281C274.035 223.095 274.234 223.89 274.424 224.65L274.496 224.921H274.216C271.364 224.921 268.928 224.921 267.231 224.849L265.264 224.795C265.037 224.801 264.81 224.783 264.587 224.74C264.838 224.701 265.091 224.68 265.345 224.677L267.358 224.614C269.063 224.559 271.437 224.514 274.216 224.487L273.999 224.758C273.801 223.999 273.593 223.212 273.386 222.399L273.061 221.151L272.898 220.509L272.817 220.193L272.772 220.03V219.949V219.885C272.718 219.885 273.205 220.22 272.998 220.066C269.298 220.066 265.914 220.066 263.378 220.066L263.54 219.84C263.901 221.323 264.172 222.552 264.362 223.393C264.499 223.84 264.602 224.296 264.668 224.758Z" fill="#00273E"/>
<path d="M265.381 211.658C266.426 211.426 267.499 211.344 268.567 211.414C269.637 211.327 270.714 211.403 271.761 211.64C270.713 211.871 269.638 211.954 268.567 211.884C267.5 211.97 266.426 211.893 265.381 211.658Z" fill="#00273E"/>
<path d="M265.454 212.706C266.508 212.475 267.589 212.393 268.666 212.462C269.742 212.381 270.824 212.454 271.879 212.679C269.749 212.999 267.583 212.999 265.454 212.679V212.706Z" fill="#00273E"/>
<path d="M265.643 213.719C266.659 213.477 267.706 213.391 268.747 213.466C269.785 213.391 270.827 213.467 271.843 213.692C270.83 213.935 269.786 214.021 268.747 213.945C267.707 214.02 266.662 213.944 265.643 213.719Z" fill="#00273E"/>
<path d="M265.571 221.72C266.567 221.488 267.592 221.405 268.612 221.476C269.631 221.39 270.658 221.467 271.653 221.702C270.657 221.934 269.632 222.016 268.612 221.946C267.593 222.032 266.566 221.956 265.571 221.72Z" fill="#00273E"/>
<path d="M265.941 222.878C267.659 222.564 269.42 222.564 271.139 222.878C269.42 223.191 267.659 223.191 265.941 222.878Z" fill="#00273E"/>
<path d="M207.14 236.864V241.828H210.388V342.372H217.048V241.828H252.396V342.372H259.055V241.828H412.402V342.345H419.071V241.828H421.95V236.864H207.14Z" fill="#00273E"/>
<path d="M351.562 274.32C354.444 274.573 357.343 274.573 360.225 274.32C357.342 274.079 354.444 274.079 351.562 274.32Z" fill="#00273E"/>
<path d="M288.474 275.351C288.604 275.351 288.709 275.299 288.709 275.234C288.709 275.169 288.604 275.116 288.474 275.116C288.345 275.116 288.24 275.169 288.24 275.234C288.24 275.299 288.345 275.351 288.474 275.351Z" fill="#7E969F"/>
<path d="M330.915 185.855L306.044 160.541L305.503 157.828C305.403 157.331 305.295 156.771 305.196 156.129C305.089 155.39 305.104 154.638 305.241 153.905C305.372 152.987 305.63 152.092 306.008 151.246C306.423 150.514 305.755 149.628 305.061 149.936C304.366 150.243 303.166 152.223 302.904 154.962C302.642 157.702 300.314 154.058 299.448 152.756C298.581 151.454 295.694 147.54 295.089 147.494C294.187 147.422 293.988 148.399 294.881 149.664C295.775 150.93 298.22 154.998 297.534 155.423C296.855 155.305 296.155 155.407 295.537 155.715C294.918 156.022 294.414 156.518 294.096 157.132C293.465 158.335 292.77 160.052 293.338 160.839C294.57 162.327 295.896 163.735 297.309 165.052L298.139 165.766C298.139 165.766 319.662 197.012 324.354 198.033C327.269 198.657 372.371 202.409 372.371 202.409L375.774 189.96L330.915 185.855Z" fill="#B78876"/>
<path d="M293.085 160.278L295.387 162.493C295.643 162.764 295.949 162.982 296.289 163.135C296.456 163.206 296.639 163.229 296.818 163.2C296.997 163.172 297.164 163.092 297.3 162.972C297.394 162.844 297.456 162.695 297.48 162.537C297.503 162.379 297.488 162.218 297.435 162.068C297.308 161.767 297.128 161.491 296.903 161.254L294.665 158.542" fill="#B78876"/>
<path d="M294.665 158.533C294.719 158.488 295.143 158.913 295.802 159.645C296.172 160.061 296.551 160.486 296.939 160.938C297.188 161.195 297.404 161.484 297.58 161.797C297.686 161.995 297.737 162.218 297.726 162.443C297.715 162.668 297.642 162.885 297.516 163.072C297.361 163.244 297.156 163.364 296.93 163.416C296.704 163.468 296.468 163.449 296.253 163.361C295.91 163.218 295.602 163.002 295.351 162.728L294.15 161.498C293.474 160.793 293.077 160.332 293.122 160.278C293.586 160.543 294.008 160.875 294.376 161.263L295.648 162.412C295.862 162.635 296.12 162.811 296.406 162.927C296.531 162.977 296.666 162.99 296.798 162.964C296.929 162.938 297.05 162.875 297.146 162.782C297.215 162.663 297.252 162.527 297.252 162.389C297.252 162.251 297.215 162.115 297.146 161.996C296.992 161.714 296.807 161.451 296.596 161.209C296.226 160.748 295.874 160.305 295.531 159.853C295.177 159.459 294.885 159.014 294.665 158.533Z" fill="#B78876"/>
<path d="M294.755 158.669L297.056 160.884C297.31 161.154 297.618 161.37 297.958 161.517C298.124 161.595 298.309 161.622 298.489 161.593C298.67 161.564 298.837 161.48 298.969 161.354C299.065 161.226 299.128 161.077 299.151 160.919C299.175 160.761 299.159 160.6 299.105 160.45C298.976 160.147 298.796 159.868 298.572 159.627L296.334 156.915" fill="#B78876"/>
<path d="M296.298 156.915C296.352 156.915 296.776 157.303 297.435 158.036L298.572 159.32C298.822 159.577 299.037 159.866 299.213 160.178C299.32 160.378 299.37 160.603 299.359 160.829C299.348 161.055 299.276 161.274 299.15 161.462C298.994 161.635 298.79 161.755 298.564 161.807C298.338 161.859 298.101 161.839 297.886 161.752C297.543 161.609 297.235 161.393 296.984 161.119L295.793 159.889C295.393 159.534 295.047 159.123 294.764 158.669C295.227 158.932 295.649 159.261 296.018 159.645L297.291 160.802C297.504 161.026 297.762 161.202 298.049 161.318C298.173 161.367 298.309 161.38 298.44 161.355C298.571 161.329 298.692 161.266 298.789 161.173C298.858 161.052 298.894 160.915 298.894 160.775C298.894 160.636 298.858 160.499 298.789 160.377C298.634 160.097 298.446 159.836 298.229 159.6L297.173 158.244C296.813 157.85 296.517 157.402 296.298 156.915Z" fill="#B78876"/>
<path d="M296.551 157.349L298.852 159.564C299.102 159.84 299.41 160.056 299.754 160.197C299.907 160.283 300.084 160.318 300.259 160.296C300.433 160.274 300.596 160.197 300.723 160.076C300.85 159.954 300.935 159.795 300.966 159.622C300.996 159.448 300.97 159.27 300.891 159.112C300.765 158.808 300.585 158.529 300.359 158.289C299.619 157.385 298.87 156.481 298.13 155.577" fill="#B78876"/>
<path d="M298.094 155.595C298.521 155.912 298.904 156.286 299.231 156.707L300.368 158C300.615 158.257 300.827 158.546 301 158.858C301.111 159.057 301.165 159.282 301.154 159.51C301.142 159.737 301.067 159.956 300.936 160.142C300.783 160.315 300.58 160.436 300.355 160.488C300.131 160.54 299.895 160.52 299.682 160.432C299.339 160.289 299.031 160.073 298.78 159.799L297.598 158.569C297.199 158.216 296.855 157.804 296.578 157.349C297.042 157.611 297.464 157.94 297.832 158.325L299.105 159.482C299.316 159.704 299.571 159.879 299.854 159.998C299.978 160.049 300.114 160.062 300.245 160.036C300.377 160.011 300.498 159.947 300.594 159.853C300.667 159.733 300.706 159.596 300.706 159.455C300.706 159.315 300.667 159.177 300.594 159.057C300.439 158.779 300.254 158.518 300.043 158.28L298.987 156.924C298.62 156.532 298.319 156.083 298.094 155.595Z" fill="#B78876"/>
<path d="M300.187 161.182C300.187 161.101 300.756 160.992 301.586 161.246L301.324 161.472C301.197 160.954 301.175 160.416 301.261 159.889C301.384 159.178 301.696 158.513 302.164 157.964C302.516 157.548 302.813 157.385 302.85 157.43C302.348 158.207 301.982 159.063 301.767 159.962C301.695 160.435 301.695 160.917 301.767 161.39L301.812 161.752L301.505 161.616C300.729 161.309 300.178 161.273 300.187 161.182Z" fill="#B78876"/>
<path d="M363.474 147.892L363.582 182.582L350.046 183.224L349.504 174.915C349.504 174.915 342.989 175.901 341.626 170.991C340.724 167.854 340.976 143.624 340.976 143.624L363.474 147.892Z" fill="#B78876"/>
<path d="M337.683 147.042C338.684 149.122 343.449 152.91 343.449 152.91L345.606 158.687C347.474 157.222 349.983 157.304 350.461 160.595C350.804 162.981 347.853 163.461 347.853 163.461C349.568 166.39 350.732 168.759 353.267 171.543C355.975 174.563 357.491 174.861 360.433 174.916H363.672C363.672 174.916 370.296 169.364 368.987 154.754C367.679 140.144 354.531 144.384 351.399 140.768C346.328 134.81 334.344 140.126 337.683 147.042Z" fill="#00273E"/>
<path d="M368.211 166.987C367.679 167.056 367.138 167.031 366.614 166.914C365.17 166.608 363.834 165.921 362.743 164.925C361.182 163.41 359.864 161.663 358.835 159.745C357.572 157.674 356.191 155.27 353.872 153.66C351.553 152.051 348.764 151.771 346.391 151.282C344.228 150.99 342.162 150.201 340.354 148.977C339.156 148.087 338.301 146.809 337.935 145.361C337.795 144.839 337.774 144.292 337.872 143.76C337.833 144.292 337.878 144.826 338.008 145.343C338.398 146.753 339.253 147.99 340.435 148.85C342.237 150.042 344.286 150.805 346.427 151.084C348.791 151.563 351.571 151.87 353.98 153.479C356.39 155.089 357.725 157.557 358.98 159.627C359.996 161.536 361.296 163.279 362.833 164.799C363.901 165.787 365.207 166.482 366.623 166.815C367.009 166.899 367.402 166.947 367.796 166.959L368.211 166.987Z" fill="#7E969F"/>
<path d="M368.978 155.089L368.284 154.872C367.619 154.66 366.936 154.509 366.244 154.42C365.152 154.264 364.042 154.515 363.122 155.125C362.84 155.313 362.599 155.556 362.411 155.838C362.224 156.12 362.094 156.437 362.03 156.77C361.957 157.141 361.977 157.524 362.087 157.885C362.197 158.246 362.394 158.574 362.662 158.841C362.967 159.103 363.351 159.256 363.753 159.275C364.177 159.28 364.594 159.164 364.954 158.94C365.738 158.472 366.321 157.727 366.587 156.852C366.833 156.117 366.912 155.337 366.816 154.568C366.721 153.8 366.454 153.062 366.035 152.411C365.616 151.76 365.057 151.211 364.398 150.806C363.739 150.401 362.997 150.15 362.228 150.071C361.095 150.006 359.96 150.153 358.88 150.505C357.745 150.872 356.584 151.153 355.406 151.346C354.184 151.508 352.946 151.508 351.724 151.346C350.496 151.199 349.297 150.867 348.169 150.36C347.605 150.13 347.097 149.782 346.678 149.339C346.26 148.896 345.94 148.369 345.741 147.793C345.577 147.222 345.567 146.617 345.711 146.041C345.856 145.465 346.149 144.937 346.563 144.511C346.987 144.128 347.515 143.879 348.081 143.797C348.646 143.715 349.223 143.803 349.739 144.05C350.245 144.271 350.659 144.661 350.912 145.153C351.148 145.634 351.236 146.176 351.165 146.708C351.093 147.21 350.915 147.69 350.643 148.118C350.37 148.545 350.01 148.909 349.586 149.185C348.771 149.684 347.833 149.944 346.878 149.935C346.021 149.944 345.167 149.812 344.352 149.546C342.945 149.094 341.669 148.306 340.634 147.25C339.847 146.465 339.206 145.547 338.739 144.538C338.443 143.901 338.216 143.234 338.062 142.549C337.981 142.079 337.953 141.826 337.953 141.826C337.953 141.826 338.008 142.07 338.098 142.54C338.267 143.216 338.502 143.873 338.802 144.502C339.269 145.513 339.914 146.432 340.706 147.214C341.731 148.252 342.996 149.022 344.388 149.456C345.192 149.719 346.033 149.847 346.878 149.836C347.789 149.833 348.682 149.58 349.459 149.103C349.864 148.839 350.207 148.491 350.466 148.083C350.724 147.674 350.892 147.214 350.957 146.735C351.039 146.232 350.953 145.716 350.713 145.267C350.474 144.818 350.093 144.46 349.631 144.248C349.146 144.019 348.605 143.938 348.075 144.017C347.544 144.096 347.05 144.331 346.653 144.691C346.263 145.093 345.987 145.59 345.85 146.133C345.714 146.676 345.723 147.245 345.877 147.783C346.072 148.334 346.381 148.837 346.784 149.259C347.186 149.681 347.674 150.013 348.214 150.234C349.335 150.725 350.525 151.04 351.742 151.165C352.94 151.325 354.154 151.325 355.352 151.165C356.52 150.979 357.673 150.704 358.799 150.342C359.904 149.977 361.068 149.826 362.228 149.899C363.024 149.981 363.792 150.241 364.473 150.66C365.155 151.079 365.734 151.647 366.168 152.32C366.601 152.994 366.877 153.757 366.977 154.552C367.076 155.348 366.995 156.155 366.74 156.915C366.454 157.822 365.844 158.592 365.026 159.076C364.643 159.309 364.202 159.428 363.753 159.419C363.317 159.406 362.898 159.24 362.571 158.949C362.292 158.666 362.085 158.319 361.971 157.937C361.856 157.556 361.836 157.152 361.913 156.761C362.053 156.06 362.465 155.442 363.059 155.043C364.006 154.435 365.14 154.191 366.253 154.356C366.948 154.448 367.632 154.611 368.293 154.844C368.744 154.989 368.978 155.089 368.978 155.089Z" fill="#7E969F"/>
<path d="M351.814 333.9L347.411 328.232L357.96 319.887L364.502 328.114L363.88 328.675C361.1 331.134 349.549 341.016 347.14 341.965C344.451 343.023 351.814 333.9 351.814 333.9Z" fill="#B19FFD"/>
<g opacity="0.4">
<path d="M348.34 338.512C348.34 338.512 345.913 341.911 346.716 342.128C347.519 342.345 359.557 332.798 364.502 328.123L364.295 327.897L350.344 339.144C350.344 339.144 348.972 338.05 348.34 338.512Z" fill="#FDFFFE"/>
</g>
<path d="M364.457 327.753C364.409 327.813 364.355 327.868 364.295 327.916L363.799 328.359L361.949 329.959C360.369 331.297 358.177 333.123 355.704 335.085C353.231 337.047 350.957 338.774 349.297 339.995L347.312 341.441L346.77 341.821L346.572 341.938L346.752 341.794L347.275 341.387L349.225 339.904C350.867 338.656 353.132 336.921 355.605 334.959C358.077 332.997 360.279 331.189 361.867 329.869L363.753 328.314L364.268 327.889L364.457 327.753Z" fill="#00273E"/>
<path d="M350.479 339.298C350.143 339.047 349.78 338.834 349.396 338.665C348.997 338.544 348.585 338.472 348.169 338.448C348.589 338.311 349.045 338.334 349.45 338.511C349.878 338.637 350.245 338.917 350.479 339.298Z" fill="#00273E"/>
<path d="M352.347 335.248C352.347 335.293 352.04 335.248 351.688 335.112C351.336 334.977 351.074 334.859 351.092 334.814C351.111 334.769 351.399 334.814 351.742 334.959C351.962 335.009 352.169 335.108 352.347 335.248Z" fill="#00273E"/>
<path d="M352.843 334.117C352.843 334.163 352.581 334.19 352.275 334.172C351.968 334.154 351.715 334.099 351.715 334.054C351.715 334.009 351.968 333.982 352.284 334.009C352.476 334.001 352.668 334.038 352.843 334.117Z" fill="#00273E"/>
<path d="M352.591 332.698C352.591 332.698 352.401 332.96 352.094 333.205C351.787 333.449 351.526 333.62 351.499 333.584C351.472 333.548 351.697 333.322 351.995 333.078C352.293 332.834 352.564 332.662 352.591 332.698Z" fill="#00273E"/>
<path d="M352.22 331.848C352.11 332.1 351.948 332.326 351.746 332.513C351.545 332.7 351.307 332.843 351.047 332.933C351.047 332.888 351.318 332.689 351.643 332.391C351.968 332.092 352.184 331.821 352.22 331.848Z" fill="#00273E"/>
<path d="M351.255 334.615C351.064 334.833 350.835 335.014 350.578 335.148C350.308 335.309 350.024 335.445 349.73 335.555C349.554 335.632 349.369 335.687 349.179 335.718C349.062 335.729 348.944 335.7 348.845 335.636C348.795 335.595 348.758 335.539 348.738 335.476C348.719 335.414 348.719 335.347 348.737 335.284C348.895 334.956 349.16 334.692 349.489 334.537C349.817 334.383 350.189 334.346 350.542 334.434C350.752 334.482 350.949 334.574 351.12 334.705C351.237 334.805 351.291 334.868 351.282 334.877C351.049 334.719 350.789 334.606 350.515 334.542C350.213 334.477 349.898 334.505 349.612 334.624C349.275 334.745 348.999 334.995 348.845 335.32C348.845 335.483 348.945 335.582 349.125 335.555C349.297 335.523 349.466 335.477 349.631 335.419C349.92 335.313 350.204 335.189 350.479 335.049C350.984 334.796 351.237 334.588 351.255 334.615Z" fill="#00273E"/>
<path d="M351.111 334.787C351.111 334.787 350.867 334.705 350.659 334.38C350.54 334.183 350.468 333.959 350.452 333.729C350.433 333.584 350.449 333.437 350.5 333.3C350.55 333.163 350.633 333.04 350.741 332.942C350.821 332.901 350.914 332.893 351 332.92C351.086 332.947 351.159 333.007 351.201 333.087C351.271 333.209 351.314 333.345 351.327 333.485C351.354 333.704 351.354 333.926 351.327 334.145C351.319 334.352 351.26 334.554 351.156 334.733C351.156 334.733 351.156 334.498 351.21 334.136C351.235 333.926 351.235 333.713 351.21 333.503C351.21 333.286 351.047 332.979 350.858 333.087C350.775 333.17 350.712 333.271 350.674 333.383C350.637 333.494 350.625 333.613 350.641 333.729C350.649 333.934 350.701 334.134 350.795 334.317C350.886 334.482 350.992 334.64 351.111 334.787Z" fill="#00273E"/>
<path d="M361.958 325.031C361.958 325.031 361.633 325.239 361.209 325.673C360.642 326.235 360.246 326.945 360.064 327.722C359.882 328.499 359.922 329.312 360.18 330.067C360.378 330.646 360.604 330.971 360.577 330.971C360.55 330.971 360.505 330.908 360.405 330.763C360.276 330.553 360.164 330.332 360.072 330.103C359.78 329.33 359.721 328.488 359.9 327.68C360.087 326.873 360.515 326.141 361.127 325.583C361.307 325.415 361.504 325.267 361.714 325.14C361.789 325.09 361.871 325.054 361.958 325.031Z" fill="#00273E"/>
<path d="M357.4 321.496C358.041 322.161 358.643 322.862 359.205 323.594C360.162 324.787 360.911 325.773 360.884 325.8C360.241 325.138 359.638 324.437 359.079 323.702C358.471 323.005 357.911 322.268 357.4 321.496Z" fill="#00273E"/>
<path d="M358.465 331.08C358.058 331.601 357.581 332.063 357.049 332.454C356.553 332.887 356.004 333.255 355.415 333.548C355.415 333.548 356.11 333.006 356.949 332.319C357.788 331.632 358.438 331.044 358.465 331.08Z" fill="#00273E"/>
<path d="M360.532 329.434C360.577 329.434 360.595 329.624 360.649 329.841C360.703 330.058 360.775 330.23 360.739 330.257C360.703 330.284 360.55 330.131 360.487 329.877C360.423 329.624 360.496 329.425 360.532 329.434Z" fill="#00273E"/>
<path d="M360.55 327.852C360.595 327.852 360.613 328.015 360.55 328.214C360.487 328.413 360.478 328.566 360.433 328.566C360.387 328.566 360.369 328.395 360.387 328.196C360.405 327.997 360.505 327.843 360.55 327.852Z" fill="#00273E"/>
<path d="M361.308 326.523C361.308 326.523 361.191 326.677 361.082 326.849C360.974 327.021 360.92 327.202 360.875 327.192C360.83 327.183 360.803 326.975 360.938 326.759C361.073 326.542 361.299 326.478 361.308 326.523Z" fill="#00273E"/>
<path d="M361.94 325.683C361.94 325.683 361.94 325.809 361.94 325.909C361.94 326.008 361.795 326.08 361.759 326.062C361.723 326.044 361.759 325.936 361.759 325.827C361.759 325.719 361.903 325.664 361.94 325.683Z" fill="#00273E"/>
<g opacity="0.3">
<path d="M361.723 324.76L351.047 332.933L350.064 331.64L361.281 324.028L361.723 324.76Z" fill="#00273E"/>
</g>
<path d="M303.301 339.596V332.409L316.747 332.355L316.828 342.878L315.989 342.932C312.28 343.158 297.119 343.791 294.638 343.05C291.885 342.218 303.301 339.596 303.301 339.596Z" fill="#B19FFD"/>
<g opacity="0.4">
<path d="M297.724 341.079C297.724 341.079 293.717 342.245 294.223 342.887C294.728 343.529 310.078 343.484 316.846 342.887V342.589L298.942 342.815C298.942 342.815 298.5 341.106 297.724 341.079Z" fill="#FDFFFE"/>
</g>
<path d="M317.035 342.571H316.801H316.133L313.696 342.688C311.63 342.77 308.778 342.851 305.629 342.869C302.479 342.887 299.619 342.869 297.552 342.77L295.116 342.679H294.448H294.213H295.116H297.561C299.619 342.679 302.479 342.743 305.629 342.734C308.778 342.725 311.63 342.652 313.687 342.598L316.133 342.535H317.035V342.571Z" fill="#00273E"/>
<path d="M298.924 343.014C298.812 342.609 298.654 342.218 298.455 341.848C298.215 341.515 297.936 341.211 297.625 340.944C298.043 341.097 298.39 341.399 298.599 341.793C298.85 342.148 298.966 342.581 298.924 343.014Z" fill="#00273E"/>
<path d="M302.877 340.98C302.877 340.98 302.651 340.772 302.452 340.464C302.254 340.157 302.128 339.886 302.164 339.868C302.2 339.85 302.389 340.067 302.588 340.383C302.786 340.699 302.913 340.962 302.877 340.98Z" fill="#00273E"/>
<path d="M303.969 340.401C303.969 340.401 303.725 340.293 303.49 340.085C303.256 339.877 303.093 339.687 303.12 339.651C303.147 339.615 303.364 339.759 303.599 339.967C303.833 340.175 303.996 340.365 303.969 340.401Z" fill="#00273E"/>
<path d="M304.645 339.126C304.424 339.212 304.186 339.243 303.951 339.217C303.713 339.249 303.472 339.224 303.247 339.144C303.469 339.064 303.706 339.033 303.941 339.054C304.179 339.028 304.419 339.052 304.645 339.126Z" fill="#00273E"/>
<path d="M304.88 338.231C304.646 338.382 304.373 338.461 304.095 338.457C303.823 338.507 303.543 338.472 303.292 338.358C303.554 338.312 303.82 338.29 304.086 338.295C304.348 338.251 304.614 338.229 304.88 338.231Z" fill="#00273E"/>
<path d="M302.416 339.814C302.118 339.866 301.813 339.866 301.514 339.814C301.207 339.777 300.905 339.71 300.612 339.615C300.43 339.566 300.254 339.496 300.088 339.407C299.986 339.345 299.91 339.249 299.872 339.136C299.858 339.071 299.864 339.004 299.888 338.943C299.912 338.882 299.953 338.83 300.007 338.792C300.335 338.628 300.71 338.583 301.067 338.666C301.424 338.748 301.742 338.953 301.965 339.244C302.099 339.415 302.194 339.612 302.245 339.823C302.263 339.9 302.263 339.98 302.245 340.058C302.157 339.789 302.022 339.538 301.848 339.316C301.651 339.09 301.395 338.924 301.108 338.837C300.94 338.781 300.762 338.759 300.585 338.773C300.409 338.787 300.236 338.836 300.079 338.919C299.944 339.018 299.998 339.181 300.151 339.271C300.305 339.357 300.469 339.424 300.639 339.47C300.932 339.574 301.234 339.653 301.541 339.705C302.11 339.786 302.416 339.786 302.416 339.814Z" fill="#00273E"/>
<path d="M302.191 339.85C302.09 339.668 302.055 339.457 302.092 339.253C302.117 339.026 302.198 338.809 302.326 338.62C302.4 338.494 302.504 338.388 302.628 338.311C302.752 338.233 302.893 338.188 303.039 338.177C303.083 338.185 303.126 338.201 303.163 338.225C303.201 338.25 303.234 338.281 303.259 338.318C303.284 338.356 303.302 338.397 303.31 338.442C303.319 338.486 303.319 338.531 303.31 338.575C303.289 338.713 303.24 338.846 303.165 338.964C303.053 339.155 302.917 339.332 302.759 339.488C302.489 339.75 302.281 339.859 302.263 339.841C302.245 339.823 302.434 339.687 302.678 339.407C302.815 339.247 302.936 339.075 303.039 338.891C303.156 338.702 303.229 338.376 303.039 338.34C302.85 338.304 302.606 338.53 302.48 338.702C302.357 338.871 302.273 339.065 302.236 339.271C302.211 339.463 302.196 339.656 302.191 339.85Z" fill="#00273E"/>
<path d="M316.738 338.882C316.738 338.882 316.359 338.882 315.745 338.882C314.958 338.984 314.213 339.296 313.588 339.787C312.969 340.29 312.504 340.957 312.244 341.712C312.142 342.03 312.058 342.353 311.991 342.68C311.973 342.59 311.973 342.498 311.991 342.408C312.007 342.16 312.053 341.914 312.126 341.676C312.374 340.887 312.844 340.187 313.48 339.66C314.124 339.138 314.91 338.823 315.736 338.756C315.982 338.726 316.23 338.726 316.476 338.756C316.572 338.778 316.661 338.821 316.738 338.882Z" fill="#00273E"/>
<path d="M315.321 333.286C315.422 334.204 315.467 335.128 315.456 336.052C315.506 336.974 315.506 337.897 315.456 338.819C315.356 337.9 315.314 336.976 315.33 336.052C315.274 335.131 315.271 334.207 315.321 333.286Z" fill="#00273E"/>
<path d="M310.231 341.477C309.59 341.626 308.932 341.693 308.273 341.676C307.614 341.709 306.953 341.66 306.306 341.531C306.306 341.486 307.208 341.531 308.273 341.531C309.338 341.531 310.231 341.477 310.231 341.477Z" fill="#00273E"/>
<path d="M312.939 341.477C312.939 341.477 312.875 341.667 312.785 341.866C312.695 342.065 312.641 342.246 312.596 342.246C312.551 342.246 312.532 342.029 312.596 341.803C312.659 341.577 312.875 341.477 312.939 341.477Z" fill="#00273E"/>
<path d="M313.895 340.229C313.895 340.229 313.841 340.401 313.706 340.537C313.57 340.672 313.426 340.772 313.39 340.745C313.354 340.717 313.444 340.564 313.588 340.428C313.733 340.292 313.841 340.193 313.895 340.229Z" fill="#00273E"/>
<path d="M315.312 339.669C315.312 339.669 315.122 339.669 314.924 339.786C314.725 339.904 314.59 339.967 314.554 339.931C314.518 339.895 314.626 339.714 314.879 339.633C315.131 339.551 315.33 339.614 315.312 339.669Z" fill="#00273E"/>
<path d="M316.323 339.38C316.323 339.425 316.26 339.497 316.151 339.542C316.043 339.587 315.935 339.587 315.917 339.542C315.899 339.497 315.98 339.434 316.088 339.389C316.196 339.343 316.305 339.343 316.323 339.38Z" fill="#00273E"/>
<g opacity="0.3">
<path d="M316.846 338.34L303.292 338.358L303.301 336.731L316.792 336.649L316.846 338.34Z" fill="#00273E"/>
</g>
<path d="M336.482 215.482L331.068 231.756C329.615 236.141 325.789 236.891 321.141 236.891H291.281V230.165L318.642 226.25L325.157 209.56L336.482 215.482Z" fill="#B78876"/>
<path d="M287.969 228.727L285.595 227.606C285.595 227.606 283.033 222.643 282.446 222.841C281.859 223.04 281.679 224.496 282.708 226.783L279.558 225.879C279.558 225.879 272.709 229.044 273.016 229.496C273.108 229.712 273.247 229.905 273.423 230.061C273.599 230.216 273.807 230.331 274.033 230.396C274.258 230.461 274.495 230.475 274.727 230.436C274.958 230.398 275.179 230.308 275.371 230.174C276.86 229.405 278.809 228.51 278.809 228.51L282.5 229.568L277.745 230.174L273.232 234.251C273.627 234.544 274.108 234.697 274.599 234.684C275.089 234.671 275.562 234.493 275.94 234.179L287.671 236.656L291.281 236.855V230.128L287.969 228.727Z" fill="#B78876"/>
<path d="M276.003 234.152C276.057 234.152 276.273 233.844 276.689 233.383C276.934 233.121 277.22 232.901 277.537 232.732C277.931 232.544 278.356 232.431 278.791 232.398C279.97 232.325 281.138 232.125 282.274 231.801C281.093 231.761 279.911 231.84 278.746 232.036C278.263 232.075 277.793 232.213 277.365 232.443C277.015 232.638 276.708 232.902 276.463 233.22C276.239 233.49 276.081 233.809 276.003 234.152Z" fill="#B78876"/>
<path d="M277.826 234.622C277.871 234.622 277.907 234.378 278.232 234.305C278.557 234.233 279.089 234.188 279.64 234.134C280.324 234.121 281.006 234.051 281.679 233.926C281.013 233.693 280.298 233.637 279.603 233.763C279.106 233.807 278.615 233.91 278.142 234.07C278.06 234.101 277.986 234.149 277.925 234.211C277.864 234.274 277.818 234.349 277.79 234.432C277.744 234.559 277.799 234.622 277.826 234.622Z" fill="#B78876"/>
<path d="M339.018 211.938L336.717 219.758L322.098 213.095C322.631 211.459 325.049 204.172 329.669 192.608C330.933 189.436 332.991 186.644 335.645 184.5C338.299 182.356 341.459 180.932 344.821 180.367C349.441 179.53 354.122 179.071 358.817 178.993C367.02 179.083 379.085 184.218 380.701 192.265C381.946 198.413 380.746 209.262 380.746 222.444L379.717 247.659L337.71 249.078L339.018 211.938Z" fill="#B19FFD"/>
<g opacity="0.3">
<path d="M380.701 216.64C375.593 217.688 370.341 216.64 365.134 216.323C361.976 216.133 358.474 215.79 355.975 217.734C353.998 219.28 353.204 221.874 352.627 224.315C350.452 233.646 350.055 239.893 349.568 249.458L374.835 250.995L380.701 216.64Z" fill="#00273E"/>
</g>
<path d="M337.944 184.607C337.944 184.607 338.368 184.67 339.063 184.942C340.033 185.362 340.869 186.041 341.482 186.904C342.376 188.195 342.877 189.718 342.926 191.288C342.984 193.221 342.836 195.155 342.483 197.057C341.888 200.535 341.105 203.979 340.137 207.372C339.794 208.638 339.506 209.678 339.289 210.473C339.165 210.847 339.074 211.232 339.018 211.622C339.188 211.264 339.324 210.892 339.424 210.51C339.659 209.786 339.993 208.747 340.381 207.445C341.434 204.06 342.257 200.607 342.844 197.111C343.199 195.182 343.338 193.221 343.26 191.261C343.19 189.633 342.644 188.061 341.689 186.741C341.031 185.86 340.136 185.186 339.108 184.797C338.829 184.705 338.542 184.639 338.251 184.598C338.053 184.598 337.944 184.589 337.944 184.607Z" fill="#00273E"/>
<path d="M322.558 211.133C323.211 211.583 323.899 211.979 324.616 212.318C325.915 212.996 327.729 213.891 329.769 214.813C331.808 215.735 333.685 216.504 335.057 217.028C335.78 217.351 336.533 217.606 337.304 217.788C336.609 217.407 335.888 217.075 335.147 216.793C333.811 216.205 331.952 215.401 329.922 214.479C327.892 213.556 326.06 212.67 324.733 212.083C324.033 211.713 323.306 211.395 322.558 211.133Z" fill="#00273E"/>
<path d="M315.862 250.995C312.422 252.876 309.855 256.033 308.713 259.789C307.571 263.545 307.944 267.601 309.753 271.084L346.328 333.973L363.194 323.765L334.804 266.988L355.352 253.526" fill="#00273E"/>
<path d="M360.378 247.876L310.186 249.684C306.269 249.824 302.563 251.496 299.863 254.343C297.164 257.189 295.686 260.983 295.748 264.909L297.832 336.722H318.94L318.236 268.824L360.378 267.712V247.876Z" fill="#00273E"/>
<path d="M318.236 271.201C318.278 271.422 318.299 271.646 318.299 271.871C318.299 272.353 318.326 272.986 318.38 273.769C318.443 275.424 318.506 277.819 318.57 280.785C318.696 286.707 318.777 294.889 318.822 303.921C318.867 312.953 318.912 321.099 318.94 327.057C318.94 329.986 318.94 332.364 318.985 334.072C318.985 334.868 318.985 335.501 318.985 335.98C319.006 336.202 319.006 336.427 318.985 336.649C318.943 336.428 318.922 336.204 318.921 335.98C318.921 335.501 318.876 334.868 318.84 334.072C318.777 332.418 318.714 330.022 318.651 327.066C318.524 321.144 318.443 312.962 318.398 303.921C318.353 294.88 318.308 286.743 318.281 280.785C318.281 277.865 318.281 275.487 318.281 273.778V271.861C318.245 271.643 318.23 271.422 318.236 271.201Z" fill="#7E969F"/>
<path d="M382.118 202.31H366.93C363.996 202.31 361.182 203.477 359.107 205.556C357.032 207.635 355.866 210.454 355.866 213.394V266.437H325.572C323.54 266.437 321.592 267.246 320.155 268.685C318.718 270.125 317.911 272.077 317.911 274.113H387.171C388.801 274.045 390.341 273.349 391.47 272.169C392.598 270.989 393.228 269.418 393.226 267.784V213.394C393.226 211.934 392.939 210.489 392.38 209.142C391.821 207.794 391.002 206.57 389.97 205.54C388.938 204.51 387.713 203.695 386.365 203.14C385.018 202.586 383.574 202.304 382.118 202.31Z" fill="#7E969F"/>
<path d="M360.279 204.054C360.405 204.054 360.514 219.65 360.514 238.889C360.514 258.128 360.405 273.724 360.279 273.724C360.153 273.724 360.044 258.128 360.044 238.889C360.044 219.65 360.153 204.054 360.279 204.054Z" fill="#00273E"/>
<path d="M358.357 329.85V274.176H353.421V329.85C350.407 335.799 343.323 339.795 334.696 343.123H378.697C369.791 339.488 361.669 336.694 358.357 329.85Z" fill="#7E969F"/>
<path d="M80.3598 322.636L80.5042 322.31L80.9464 321.361C81.4796 320.138 81.9142 318.874 82.2459 317.582C83.2822 312.766 83.2422 307.779 82.1285 302.981C81.4374 299.656 80.5331 296.379 79.4213 293.171C78.2752 289.69 76.9487 286.002 75.8117 282.005C74.588 277.838 73.9978 273.51 74.061 269.167C74.2234 264.647 75.568 260.126 77.0389 255.606C78.5099 251.085 80.035 246.673 80.4952 242.225C81.0008 237.949 80.1416 233.623 78.0406 229.866C76.0914 226.25 73.6369 223.176 71.7959 219.984C70.0756 217.023 68.8072 213.82 68.0329 210.482C66.9286 205.647 66.8487 200.632 67.7982 195.764C68.135 193.984 68.649 192.242 69.3323 190.565C69.3103 190.682 69.2801 190.796 69.2421 190.909C69.1609 191.153 69.0616 191.478 68.9263 191.903C68.5595 193.183 68.2583 194.48 68.0238 195.791C67.1417 200.628 67.2645 205.596 68.3848 210.383C69.1695 213.682 70.4408 216.845 72.1569 219.768C73.9617 222.923 76.4614 225.997 78.4738 229.649C80.6271 233.476 81.5118 237.889 81.0005 242.252C80.5403 246.773 79.0062 251.221 77.5353 255.732C76.0643 260.244 74.7378 264.773 74.5663 269.194C74.5039 273.493 75.0818 277.778 76.2809 281.906C77.3548 285.875 78.6633 289.573 79.8003 293.063C80.9023 296.288 81.7886 299.583 82.4534 302.926C83.5568 307.767 83.5568 312.795 82.4534 317.636C82.0916 318.934 81.6113 320.196 81.0186 321.406C80.811 321.795 80.6576 322.102 80.5313 322.31C80.4896 322.426 80.4319 322.536 80.3598 322.636Z" fill="#00273E"/>
<path d="M74.3499 223.103C74.3499 223.103 70.6139 211.142 77.3098 204.117C77.3621 204.061 77.4292 204.02 77.5035 203.999C77.5778 203.979 77.6563 203.979 77.7303 204.001C77.8044 204.022 77.8709 204.064 77.9225 204.121C77.9742 204.179 78.0088 204.249 78.0227 204.325C78.3746 206.314 78.8258 212.336 74.3499 223.103Z" fill="#B19FFD"/>
<path d="M76.5878 208.123C76.5772 208.865 76.4926 209.604 76.3351 210.329C76.0824 211.848 75.7937 213.638 75.4327 215.609C75.0717 217.58 74.8371 219.37 74.6025 220.889C74.5335 221.625 74.4006 222.354 74.2054 223.068C74.1364 222.326 74.1576 221.58 74.2686 220.843C74.3949 219.478 74.6296 217.598 74.9725 215.536C75.3154 213.475 75.6673 211.613 75.9651 210.266C76.0851 209.529 76.2942 208.809 76.5878 208.123Z" fill="#00273E"/>
<path d="M78.7354 251.33C78.7354 251.33 81.0185 239.007 90.2141 235.96C90.2863 235.933 90.3644 235.928 90.4396 235.944C90.5147 235.96 90.5837 235.998 90.6385 236.052C90.6933 236.106 90.7317 236.174 90.7492 236.249C90.7667 236.324 90.7627 236.403 90.7375 236.475C90.1329 238.41 87.7234 243.907 78.7354 251.33Z" fill="#B19FFD"/>
<path d="M87.7054 239.133C87.3503 239.778 86.9299 240.383 86.4511 240.942L83.2385 245.209L80.0349 249.476C79.6361 250.102 79.1766 250.686 78.6633 251.221C78.9519 250.535 79.3215 249.885 79.7642 249.286C80.5132 248.138 81.569 246.574 82.8595 244.92C84.1499 243.265 85.314 241.782 86.1894 240.734C86.6306 240.143 87.1394 239.606 87.7054 239.133Z" fill="#00273E"/>
<path d="M76.2448 282.249C76.2448 282.249 74.8641 269.791 82.7693 264.168C82.8317 264.122 82.9055 264.095 82.9824 264.089C83.0593 264.084 83.1362 264.1 83.2046 264.135C83.273 264.171 83.3302 264.225 83.3696 264.291C83.4091 264.358 83.4293 264.434 83.428 264.511C83.4009 266.545 82.6971 272.539 76.2448 282.249Z" fill="#B19FFD"/>
<path d="M81.2983 267.974C81.1478 268.7 80.9241 269.409 80.6305 270.089L78.8257 275.107C78.1399 276.988 77.5262 278.723 77.0209 280.134C76.8143 280.843 76.5455 281.533 76.2177 282.195C76.2904 281.455 76.4541 280.726 76.705 280.025C77.084 278.705 77.6796 276.906 78.4016 274.944C79.1235 272.982 79.8364 271.229 80.3778 269.972C80.6062 269.272 80.9151 268.602 81.2983 267.974Z" fill="#00273E"/>
<path d="M83.1754 313.359C83.1754 313.359 82.273 300.856 90.3405 295.549C90.4033 295.504 90.4776 295.478 90.5547 295.474C90.6317 295.47 90.7084 295.487 90.7756 295.525C90.8428 295.563 90.8979 295.62 90.9343 295.688C90.9707 295.756 90.987 295.833 90.9812 295.91C90.882 297.917 89.9615 303.875 83.1754 313.359Z" fill="#B19FFD"/>
<path d="M88.7342 299.265C88.5543 299.987 88.3034 300.69 87.9852 301.362C87.4077 302.791 86.7218 304.463 85.9728 306.308C85.2238 308.152 84.538 309.834 83.9605 311.262C83.7266 311.968 83.4243 312.649 83.058 313.296C83.1658 312.56 83.3565 311.838 83.6266 311.145C84.0507 309.843 84.7095 308.071 85.5126 306.136C86.3158 304.201 87.0738 302.465 87.6604 301.227C87.9418 300.533 88.3021 299.875 88.7342 299.265Z" fill="#00273E"/>
<path d="M68.9804 212.598C68.9804 212.598 57.8897 206.766 57.6641 197.093C57.6606 197.015 57.6787 196.939 57.7164 196.871C57.754 196.803 57.8097 196.748 57.8772 196.71C57.9447 196.673 58.0213 196.655 58.0985 196.658C58.1756 196.662 58.2502 196.687 58.3139 196.731C59.9653 197.87 64.5315 201.812 68.9804 212.598Z" fill="#B19FFD"/>
<path d="M59.9744 200.438C60.4922 200.972 60.9548 201.556 61.3551 202.183L64.4775 206.514L67.6179 210.835C68.0961 211.396 68.5191 212.001 68.8812 212.643C68.3074 212.17 67.795 211.626 67.3562 211.025C66.4537 209.976 65.3167 208.476 64.0985 206.776C62.8802 205.076 61.8244 203.512 61.0844 202.355C60.6435 201.76 60.2711 201.117 59.9744 200.438Z" fill="#00273E"/>
<path d="M80.8923 238.292C80.8923 238.292 69.4677 233.175 68.6646 223.501C68.6558 223.425 68.6689 223.348 68.7023 223.278C68.7357 223.209 68.788 223.151 68.8532 223.11C68.9184 223.069 68.9938 223.048 69.0706 223.048C69.1475 223.049 69.2226 223.071 69.2872 223.113C71.0018 224.152 75.7936 227.796 80.8923 238.292Z" fill="#B19FFD"/>
<path d="M71.1643 226.657C71.7104 227.155 72.2061 227.706 72.6443 228.302L76.0283 232.443C77.3007 233.98 78.4468 235.372 79.4214 236.566C79.9309 237.101 80.3901 237.682 80.793 238.302C80.196 237.862 79.6537 237.352 79.1777 236.783C78.2753 235.788 76.9849 234.36 75.6673 232.732C74.3498 231.105 73.1947 229.613 72.3826 228.51C71.9087 227.94 71.5001 227.318 71.1643 226.657Z" fill="#00273E"/>
<path d="M74.3137 266.962C74.3137 266.962 66.4717 257.188 70.1536 248.211C70.1804 248.138 70.2271 248.075 70.2883 248.029C70.3494 247.982 70.4225 247.954 70.4991 247.947C70.5756 247.941 70.6524 247.956 70.7207 247.991C70.7889 248.027 70.8457 248.081 70.8845 248.147C71.9403 249.856 74.5573 255.29 74.3137 266.962Z" fill="#B19FFD"/>
<path d="M70.9297 252.188C71.1905 252.885 71.3809 253.605 71.4982 254.34C71.8321 255.841 72.2111 257.613 72.6352 259.566C73.0594 261.518 73.4474 263.272 73.7813 264.782C73.9928 265.493 74.1378 266.223 74.2144 266.961C73.8748 266.297 73.6231 265.592 73.4654 264.864C73.0774 263.544 72.6172 261.708 72.175 259.656C71.7328 257.604 71.3899 255.75 71.1733 254.403C71.0095 253.676 70.9278 252.933 70.9297 252.188Z" fill="#00273E"/>
<path d="M82.0834 300.693C82.0834 300.693 70.7491 295.368 70.1084 285.694C70.1037 285.618 70.12 285.542 70.1554 285.475C70.1908 285.408 70.244 285.351 70.3091 285.312C70.3743 285.273 70.4489 285.253 70.5249 285.253C70.6009 285.253 70.6753 285.275 70.7401 285.315C72.4366 286.381 77.1743 290.106 82.0834 300.693Z" fill="#B19FFD"/>
<path d="M72.554 288.922C73.0913 289.434 73.5779 289.997 74.0068 290.603L77.3277 294.789C78.564 296.353 79.692 297.764 80.6486 298.966C81.1487 299.528 81.5986 300.133 81.9932 300.774C81.4032 300.319 80.8673 299.797 80.3959 299.219C79.4935 298.207 78.2482 296.76 76.9577 295.115C75.6673 293.469 74.5393 291.959 73.7451 290.838C73.276 290.247 72.8763 289.604 72.554 288.922Z" fill="#00273E"/>
<path d="M104.662 251.393C104.662 251.393 104.662 251.492 104.662 251.673C104.662 251.854 104.662 252.152 104.662 252.478C104.626 253.225 104.581 254.238 104.527 255.515C104.382 258.228 104.175 261.916 103.931 266.365C103.119 270.885 100.818 275.921 97.7133 280.83C95.4392 284.446 93.0659 287.701 91.0084 290.775C89.1398 293.432 87.4602 296.218 85.9819 299.111C85.0068 301.069 84.2182 303.116 83.6266 305.223C83.4281 305.973 83.2747 306.552 83.1935 306.949C83.1554 307.156 83.098 307.359 83.022 307.555C83.0238 307.345 83.048 307.136 83.0942 306.931C83.1574 306.525 83.2747 305.937 83.4462 305.177C83.9788 303.036 84.7287 300.955 85.6841 298.966C87.1266 296.038 88.7856 293.221 90.6474 290.54C92.6869 287.475 95.0602 284.211 97.3162 280.595C100.402 275.74 102.731 270.786 103.534 266.319C103.841 261.862 104.102 258.182 104.292 255.47C104.391 254.204 104.472 253.192 104.536 252.441C104.536 252.125 104.599 251.863 104.617 251.646C104.621 251.56 104.637 251.475 104.662 251.393Z" fill="#00273E"/>
<path d="M97.9116 279.908C97.9116 279.908 102.712 268.335 96.6753 260.75C96.6302 260.688 96.5683 260.639 96.4968 260.611C96.4253 260.582 96.3471 260.574 96.2714 260.589C96.1958 260.603 96.1257 260.638 96.0694 260.691C96.0131 260.743 95.9728 260.811 95.9534 260.886C95.457 262.82 94.4283 268.778 97.9116 279.908Z" fill="#B19FFD"/>
<path d="M97.0454 264.782C97.2503 265.495 97.3774 266.229 97.4245 266.97C97.5959 268.335 97.7854 270.216 97.9298 272.304C98.0742 274.393 98.1554 276.291 98.1464 277.656C98.188 278.4 98.1456 279.146 98.02 279.88C97.8832 279.153 97.8167 278.414 97.8215 277.674C97.7132 276.137 97.5959 274.329 97.4606 272.34C97.3252 270.351 97.1989 268.543 97.0906 267.006C96.996 266.268 96.9808 265.523 97.0454 264.782Z" fill="#00273E"/>
<g opacity="0.3">
<path d="M97.9116 279.908C97.9116 279.908 102.712 268.335 96.6753 260.75C96.6302 260.688 96.5683 260.639 96.4968 260.611C96.4253 260.582 96.3471 260.574 96.2714 260.589C96.1958 260.603 96.1257 260.638 96.0694 260.691C96.0131 260.743 95.9728 260.811 95.9534 260.886C95.457 262.82 94.4283 268.778 97.9116 279.908Z" fill="#00273E"/>
</g>
<path d="M83.049 307.808C83.049 307.808 86.8933 295.883 80.2605 288.822C80.2088 288.765 80.1424 288.724 80.0687 288.703C79.995 288.682 79.917 288.682 79.8432 288.702C79.7694 288.723 79.7027 288.764 79.6505 288.82C79.5984 288.876 79.5627 288.946 79.5476 289.021C79.2137 290.983 78.6633 296.995 83.049 307.808Z" fill="#B19FFD"/>
<path d="M80.9464 292.809C81.2149 293.503 81.4026 294.225 81.5059 294.961C81.7857 296.299 82.1286 298.161 82.4084 300.232C82.6881 302.302 82.9498 304.183 83.0581 305.548C83.1495 306.286 83.1495 307.034 83.0581 307.772C82.8704 307.055 82.7466 306.323 82.6881 305.584C82.4625 304.065 82.1918 302.275 81.903 300.304C81.6142 298.333 81.3345 296.534 81.0999 295.015C80.9747 294.287 80.9233 293.548 80.9464 292.809Z" fill="#00273E"/>
<g opacity="0.3">
<path d="M83.049 307.808C83.049 307.808 86.8933 295.883 80.2605 288.822C80.2088 288.765 80.1424 288.724 80.0687 288.703C79.995 288.682 79.917 288.682 79.8432 288.702C79.7694 288.723 79.7027 288.764 79.6505 288.82C79.5984 288.876 79.5627 288.946 79.5476 289.021C79.2137 290.983 78.6633 296.995 83.049 307.808Z" fill="#00273E"/>
</g>
<path d="M104.03 265.759C104.03 265.759 114.282 258.571 113.244 248.925C113.236 248.849 113.208 248.777 113.162 248.716C113.116 248.655 113.054 248.608 112.983 248.58C112.912 248.552 112.835 248.544 112.76 248.557C112.685 248.57 112.615 248.603 112.558 248.653C111.069 250.001 107.053 254.494 104.03 265.759Z" fill="#B19FFD"/>
<g opacity="0.3">
<path d="M104.03 265.759C104.03 265.759 114.282 258.571 113.244 248.925C113.236 248.849 113.208 248.777 113.162 248.716C113.116 248.655 113.054 248.608 112.983 248.58C112.912 248.552 112.835 248.544 112.76 248.557C112.685 248.57 112.615 248.603 112.558 248.653C111.069 250.001 107.053 254.494 104.03 265.759Z" fill="#00273E"/>
</g>
<path d="M111.394 252.523C111.183 253.236 110.896 253.924 110.537 254.575C109.959 255.814 109.111 257.513 108.118 259.349C107.125 261.184 106.169 262.829 105.411 263.987C105.057 264.643 104.62 265.251 104.111 265.795C104.396 265.111 104.737 264.451 105.131 263.824C105.871 262.477 106.728 260.895 107.685 259.141C108.641 257.387 109.49 255.796 110.23 254.439C110.549 253.761 110.94 253.119 111.394 252.523Z" fill="#00273E"/>
<path d="M87.1821 295.983C87.1821 295.983 99.5452 294.048 102.857 284.935C102.885 284.863 102.892 284.785 102.878 284.709C102.864 284.633 102.83 284.563 102.778 284.506C102.727 284.449 102.661 284.407 102.587 284.385C102.513 284.364 102.435 284.363 102.361 284.383C100.43 284.944 94.8436 287.231 87.1821 295.983Z" fill="#B19FFD"/>
<g opacity="0.3">
<path d="M87.1821 295.983C87.1821 295.983 99.5452 294.048 102.857 284.935C102.885 284.863 102.892 284.785 102.878 284.709C102.864 284.633 102.83 284.563 102.778 284.506C102.727 284.449 102.661 284.407 102.587 284.385C102.513 284.364 102.435 284.363 102.361 284.383C100.43 284.944 94.8436 287.231 87.1821 295.983Z" fill="#00273E"/>
</g>
<path d="M99.6083 287.349C99.1087 287.901 98.5487 288.395 97.9388 288.822C96.874 289.672 95.367 290.82 93.6614 292.032C91.9558 293.243 90.3856 294.292 89.2215 295.015C88.6121 295.443 87.9511 295.793 87.2543 296.055C87.81 295.555 88.4147 295.113 89.0591 294.735L93.4087 291.652L97.7584 288.551C98.3351 288.092 98.9546 287.689 99.6083 287.349Z" fill="#00273E"/>
<path d="M75.3876 318.784L71.778 343.105H94.257L91.3423 318.784H75.3876Z" fill="#7E969F"/>
<path d="M92.2355 326.315C89.2337 326.552 86.2214 326.631 83.2114 326.55C80.2013 326.631 77.1891 326.552 74.1873 326.315C77.1894 326.083 80.2013 326.005 83.2114 326.08C86.2214 326.005 89.2334 326.083 92.2355 326.315Z" fill="#00273E"/>
<path d="M92.6868 328.25C89.5705 328.489 86.4441 328.567 83.3198 328.485C80.1985 328.567 77.0751 328.489 73.9618 328.25C73.9618 328.124 78.149 328.015 83.3198 328.015C88.4906 328.015 92.6868 328.124 92.6868 328.25Z" fill="#00273E"/>
</svg>
