<svg width="334" height="125" viewBox="0 0 334 125" fill="none" xmlns="http://www.w3.org/2000/svg">
<path d="M61.9573 0.5C28.0364 0.5 0.5 28.2583 0.5 62.4986C0.5 96.7388 28.0364 124.5 61.9573 124.5C95.8782 124.5 123.42 96.7417 123.42 62.4986C123.42 28.2554 95.8839 0.5 61.9573 0.5ZM37.6884 83.6001C33.9698 83.6001 30.3347 82.4875 27.2429 80.403C24.151 78.3185 21.7412 75.3557 20.3181 71.8893C18.8951 68.4229 18.5228 64.6086 19.2482 60.9287C19.9737 57.2488 21.7643 53.8685 24.3938 51.2155C27.0232 48.5624 30.3733 46.7556 34.0204 46.0236C37.6675 45.2917 41.4479 45.6673 44.8834 47.1032C48.3189 48.539 51.2553 50.9705 53.3212 54.0902C55.3871 57.2099 56.4898 60.8776 56.4898 64.6296C56.4898 69.6609 54.5089 74.4861 50.983 78.0438C47.457 81.6015 42.6748 83.6001 37.6884 83.6001ZM90.4902 104.017C88.217 105.951 85.614 107.452 82.8084 108.445C82.8084 108.445 76.2252 106.231 70.7406 99.036C66.6556 93.6797 65.2532 86.8569 65.2532 86.8569C65.2532 86.8569 70.3631 79.3924 71.8307 74.1851C72.6445 71.2501 73.0524 68.2158 73.0429 65.1681C73.0511 62.1067 72.6442 59.0584 71.8336 56.1082C71.0489 53.2712 69.9119 50.5457 68.4497 47.9964C65.5334 42.9524 61.3731 38.7557 56.3734 35.8144C55.1763 35.1131 53.9382 34.4856 52.6659 33.9354V29.954H65.4917V15.0823L82.2605 14.8933V29.8394L95.6767 29.954V42.1446H82.2378V46.6158C82.2378 52.8601 82.0731 59.1015 82.0362 65.3457C82.0078 69.6107 81.7523 73.8957 81.7722 78.1693C81.7561 80.7576 82.0681 83.3373 82.7005 85.8458C84.1937 91.4083 91.1687 95.4671 95.9748 97.9247C95.424 99.0332 94.3283 100.697 90.4902 104.017Z" fill="#6640FC"/>
<path d="M167.345 56.7472C172.938 56.7472 177.035 52.9362 177.035 47.6899C177.035 42.4437 172.938 38.6327 167.345 38.6327C161.752 38.6327 157.655 42.4437 157.655 47.6899C157.655 52.9362 161.752 56.7472 167.345 56.7472ZM167.345 52.0206C165.211 52.0206 163.494 50.3873 163.494 47.6899C163.494 44.9926 165.211 43.3593 167.345 43.3593C169.479 43.3593 171.197 44.9926 171.197 47.6899C171.197 50.3873 169.479 52.0206 167.345 52.0206Z" fill="#6640FC"/>
<path d="M193.094 43.4335V39.0286H179.136V56.3512H184.926V50.808H192.089V46.4031H184.926V43.4335H193.094Z" fill="#6640FC"/>
<path d="M206.007 56.3512H211.796V43.5573H216.825V39.0286H200.978V43.5573H206.007V56.3512Z" fill="#6640FC"/>
<path d="M229.466 39.0286V45.1658H224.118V39.0286H218.329V56.3512H224.118V49.9666H229.466V56.3512H235.255V39.0286H229.466Z" fill="#6640FC"/>
<path d="M238.044 56.3512H243.834V39.0286H238.044V56.3512Z" fill="#6640FC"/>
<path d="M253.023 56.7472C258.347 56.7472 261.021 54.0746 261.021 50.907C261.021 44.5224 251.527 46.2546 251.527 44.1759C251.527 43.582 252.067 43.0871 253.759 43.0871C255.256 43.0871 256.85 43.5078 258.543 44.3739L260.285 40.1422C258.494 39.1276 256.114 38.6327 253.808 38.6327C248.485 38.6327 245.811 41.2558 245.811 44.4729C245.811 50.9317 255.305 49.1747 255.305 51.3524C255.305 51.9464 254.716 52.2928 253.072 52.2928C251.184 52.2928 249.025 51.6741 247.406 50.709L245.541 54.9654C247.259 56.0295 250.153 56.7472 253.023 56.7472Z" fill="#6640FC"/>
<path d="M159.52 86.5826H171.27V84.4297H161.973V69.26H159.52V86.5826Z" fill="#6640FC"/>
<path d="M186.596 84.4297V78.837H195.206V76.7335H186.596V71.413H196.261V69.26H184.143V86.5826H196.605V84.4297H186.596Z" fill="#6640FC"/>
<path d="M215.639 86.7806C220.177 86.7806 222.287 84.5039 222.287 81.856C222.287 75.4962 211.886 78.1441 211.886 73.9124C211.886 72.4029 213.137 71.1655 216.056 71.1655C217.577 71.1655 219.27 71.611 220.766 72.5761L221.576 70.5964C220.153 69.6065 218.068 69.0621 216.056 69.0621C211.542 69.0621 209.482 71.3388 209.482 74.0114C209.482 80.4455 219.883 77.7729 219.883 82.0045C219.883 83.5141 218.607 84.6772 215.639 84.6772C213.431 84.6772 211.248 83.8358 209.972 82.6727L209.065 84.6029C210.438 85.8897 213.014 86.7806 215.639 86.7806Z" fill="#6640FC"/>
<path d="M240.933 86.7806C245.471 86.7806 247.581 84.5039 247.581 81.856C247.581 75.4962 237.18 78.1441 237.18 73.9124C237.18 72.4029 238.431 71.1655 241.35 71.1655C242.871 71.1655 244.563 71.611 246.06 72.5761L246.869 70.5964C245.447 69.6065 243.361 69.0621 241.35 69.0621C236.836 69.0621 234.776 71.3388 234.776 74.0114C234.776 80.4455 245.177 77.7729 245.177 82.0045C245.177 83.5141 243.901 84.6772 240.933 84.6772C238.725 84.6772 236.542 83.8358 235.266 82.6727L234.358 84.6029C235.732 85.8897 238.308 86.7806 240.933 86.7806Z" fill="#6640FC"/>
<path d="M268.974 86.7806C274.199 86.7806 278.075 83.0191 278.075 77.9213C278.075 72.8236 274.199 69.0621 268.974 69.0621C263.7 69.0621 259.824 72.8483 259.824 77.9213C259.824 82.9944 263.7 86.7806 268.974 86.7806ZM268.974 84.5782C265.123 84.5782 262.277 81.7571 262.277 77.9213C262.277 74.0856 265.123 71.2645 268.974 71.2645C272.776 71.2645 275.622 74.0856 275.622 77.9213C275.622 81.7571 272.776 84.5782 268.974 84.5782Z" fill="#6640FC"/>
<path d="M304.197 69.26V82.1778L293.894 69.26H291.882V86.5826H294.335V73.6649L304.639 86.5826H306.65V69.26H304.197Z" fill="#6640FC"/>
<path d="M326.852 86.7806C331.39 86.7806 333.5 84.5039 333.5 81.856C333.5 75.4962 323.099 78.1441 323.099 73.9124C323.099 72.4029 324.35 71.1655 327.269 71.1655C328.79 71.1655 330.483 71.611 331.979 72.5761L332.789 70.5964C331.366 69.6065 329.281 69.0621 327.269 69.0621C322.755 69.0621 320.695 71.3388 320.695 74.0114C320.695 80.4455 331.096 77.7729 331.096 82.0045C331.096 83.5141 329.82 84.6772 326.852 84.6772C324.644 84.6772 322.461 83.8358 321.185 82.6727L320.278 84.6029C321.651 85.8897 324.227 86.7806 326.852 86.7806Z" fill="#6640FC"/>
</svg>
