<svg width="419" height="613" viewBox="0 0 419 613" fill="none" xmlns="http://www.w3.org/2000/svg">
<path d="M102.501 40.76V32.984H118.101V26.936H102.501V19.64H120.165V13.4H94.7731V47H120.789V40.76H102.501ZM133.6 24.584V21.176H126.448V47H133.936V34.808C133.936 29.864 136.672 27.608 140.8 27.608C141.376 27.608 141.856 27.656 142.48 27.704V20.792C138.496 20.792 135.424 22.088 133.6 24.584ZM154.085 24.584V21.176H146.933V47H154.421V34.808C154.421 29.864 157.157 27.608 161.285 27.608C161.861 27.608 162.341 27.656 162.965 27.704V20.792C158.981 20.792 155.909 22.088 154.085 24.584ZM179.471 47.384C187.679 47.384 193.631 41.864 193.631 34.088C193.631 26.312 187.679 20.792 179.471 20.792C171.263 20.792 165.263 26.312 165.263 34.088C165.263 41.864 171.263 47.384 179.471 47.384ZM179.471 41.24C175.727 41.24 172.847 38.552 172.847 34.088C172.847 29.624 175.727 26.936 179.471 26.936C183.215 26.936 186.047 29.624 186.047 34.088C186.047 38.552 183.215 41.24 179.471 41.24ZM205.788 24.584V21.176H198.636V47H206.124V34.808C206.124 29.864 208.86 27.608 212.988 27.608C213.564 27.608 214.044 27.656 214.668 27.704V20.792C210.684 20.792 207.612 22.088 205.788 24.584ZM262.085 33.608H256.613V27.32H249.269V33.608H240.245L254.933 13.4H246.773L230.933 34.712V39.944H249.029V47H256.613V39.944H262.085V33.608ZM278.811 47.576C287.115 47.576 293.211 41.288 293.211 30.2C293.211 19.112 287.115 12.824 278.811 12.824C270.555 12.824 264.411 19.112 264.411 30.2C264.411 41.288 270.555 47.576 278.811 47.576ZM278.811 41C274.971 41 272.283 37.832 272.283 30.2C272.283 22.568 274.971 19.4 278.811 19.4C282.699 19.4 285.387 22.568 285.387 30.2C285.387 37.832 282.699 41 278.811 41ZM327.757 33.608H322.285V27.32H314.941V33.608H305.917L320.605 13.4H312.445L296.605 34.712V39.944H314.701V47H322.285V39.944H327.757V33.608Z" fill="#6640FC"/>
<path d="M38.1808 71.1V82.575L28.7848 71.1H25.1668V90H29.4868V78.525L38.9098 90H42.5008V71.1H38.1808ZM53.5874 90.216C58.2044 90.216 61.5524 87.111 61.5524 82.737C61.5524 78.363 58.2044 75.258 53.5874 75.258C48.9704 75.258 45.5954 78.363 45.5954 82.737C45.5954 87.111 48.9704 90.216 53.5874 90.216ZM53.5874 86.76C51.4814 86.76 49.8614 85.248 49.8614 82.737C49.8614 80.226 51.4814 78.714 53.5874 78.714C55.6934 78.714 57.2864 80.226 57.2864 82.737C57.2864 85.248 55.6934 86.76 53.5874 86.76ZM86.2433 82.791C86.2433 78.12 82.9493 75.258 78.6833 75.258C74.2553 75.258 70.9343 78.39 70.9343 82.737C70.9343 87.057 74.2013 90.216 79.2233 90.216C81.8423 90.216 83.8673 89.406 85.2173 87.867L82.9763 85.437C81.9773 86.382 80.8703 86.841 79.3313 86.841C77.1173 86.841 75.5783 85.734 75.1733 83.925H86.1623C86.1893 83.574 86.2433 83.115 86.2433 82.791ZM78.7103 78.444C80.6003 78.444 81.9773 79.632 82.2743 81.468H75.1193C75.4163 79.605 76.7933 78.444 78.7103 78.444ZM97.8765 75.258C95.9055 75.258 94.2045 75.933 93.0705 77.175V75.474H89.0475V90H93.2595V82.818C93.2595 80.145 94.7175 78.903 96.7425 78.903C98.6055 78.903 99.6855 79.983 99.6855 82.332V90H103.898V81.684C103.898 77.256 101.306 75.258 97.8765 75.258ZM114.894 90.216C117.945 90.216 120.348 88.866 121.401 86.544L118.134 84.762C117.351 86.166 116.19 86.76 114.867 86.76C112.734 86.76 111.06 85.275 111.06 82.737C111.06 80.199 112.734 78.714 114.867 78.714C116.19 78.714 117.351 79.335 118.134 80.712L121.401 78.957C120.348 76.581 117.945 75.258 114.894 75.258C110.169 75.258 106.794 78.363 106.794 82.737C106.794 87.111 110.169 90.216 114.894 90.216ZM130.553 90.216C135.17 90.216 138.518 87.111 138.518 82.737C138.518 78.363 135.17 75.258 130.553 75.258C125.936 75.258 122.561 78.363 122.561 82.737C122.561 87.111 125.936 90.216 130.553 90.216ZM130.553 86.76C128.447 86.76 126.827 85.248 126.827 82.737C126.827 80.226 128.447 78.714 130.553 78.714C132.659 78.714 134.252 80.226 134.252 82.737C134.252 85.248 132.659 86.76 130.553 86.76ZM150.163 75.258C148.192 75.258 146.491 75.933 145.357 77.175V75.474H141.334V90H145.546V82.818C145.546 80.145 147.004 78.903 149.029 78.903C150.892 78.903 151.972 79.983 151.972 82.332V90H156.184V81.684C156.184 77.256 153.592 75.258 150.163 75.258ZM168.237 86.328C167.778 86.679 167.157 86.868 166.536 86.868C165.402 86.868 164.727 86.193 164.727 84.951V79.038H168.345V75.798H164.727V72.261H160.515V75.798H158.274V79.038H160.515V85.005C160.515 88.461 162.513 90.216 165.942 90.216C167.238 90.216 168.507 89.919 169.371 89.298L168.237 86.328ZM175.758 77.391V75.474H171.735V90H175.947V83.142C175.947 80.361 177.486 79.092 179.808 79.092C180.132 79.092 180.402 79.119 180.753 79.146V75.258C178.512 75.258 176.784 75.987 175.758 77.391ZM189.037 75.258C186.715 75.258 184.366 75.879 182.773 77.013L184.285 79.956C185.338 79.119 186.931 78.606 188.47 78.606C190.738 78.606 191.818 79.659 191.818 81.468H188.47C184.042 81.468 182.233 83.25 182.233 85.815C182.233 88.326 184.258 90.216 187.66 90.216C189.793 90.216 191.305 89.514 192.088 88.191V90H196.03V81.711C196.03 77.31 193.465 75.258 189.037 75.258ZM188.713 87.381C187.228 87.381 186.337 86.679 186.337 85.626C186.337 84.654 186.958 83.925 188.929 83.925H191.818V85.41C191.332 86.733 190.117 87.381 188.713 87.381ZM218.445 75.258C216.258 75.258 214.368 76.149 213.207 77.634C212.181 76.041 210.453 75.258 208.428 75.258C206.565 75.258 204.945 75.906 203.865 77.148V75.474H199.842V90H204.054V82.71C204.054 80.118 205.377 78.903 207.24 78.903C208.995 78.903 209.994 79.983 209.994 82.332V90H214.206V82.71C214.206 80.118 215.529 78.903 217.419 78.903C219.12 78.903 220.173 79.983 220.173 82.332V90H224.385V81.684C224.385 77.256 221.901 75.258 218.445 75.258ZM235.231 90.216C239.848 90.216 243.196 87.111 243.196 82.737C243.196 78.363 239.848 75.258 235.231 75.258C230.614 75.258 227.239 78.363 227.239 82.737C227.239 87.111 230.614 90.216 235.231 90.216ZM235.231 86.76C233.125 86.76 231.505 85.248 231.505 82.737C231.505 80.226 233.125 78.714 235.231 78.714C237.337 78.714 238.93 80.226 238.93 82.737C238.93 85.248 237.337 86.76 235.231 86.76ZM250.898 90.216C255.245 90.216 257.756 88.299 257.756 85.599C257.756 79.875 248.981 82.278 248.981 79.794C248.981 79.038 249.791 78.444 251.681 78.444C253.004 78.444 254.435 78.714 255.866 79.524L257.27 76.527C255.893 75.717 253.679 75.258 251.681 75.258C247.442 75.258 244.958 77.202 244.958 79.956C244.958 85.761 253.733 83.331 253.733 85.707C253.733 86.517 253.004 87.03 251.06 87.03C249.278 87.03 247.307 86.463 246.011 85.626L244.607 88.65C245.957 89.541 248.441 90.216 250.898 90.216ZM268.002 90H272.214V69.966H268.002V90ZM281.982 75.258C279.66 75.258 277.311 75.879 275.718 77.013L277.23 79.956C278.283 79.119 279.876 78.606 281.415 78.606C283.683 78.606 284.763 79.659 284.763 81.468H281.415C276.987 81.468 275.178 83.25 275.178 85.815C275.178 88.326 277.203 90.216 280.605 90.216C282.738 90.216 284.25 89.514 285.033 88.191V90H288.975V81.711C288.975 77.31 286.41 75.258 281.982 75.258ZM281.658 87.381C280.173 87.381 279.282 86.679 279.282 85.626C279.282 84.654 279.903 83.925 281.874 83.925H284.763V85.41C284.277 86.733 283.062 87.381 281.658 87.381ZM309.019 75.258C307.075 75.258 305.509 75.879 304.456 77.148V75.474H300.433V95.238H304.645V88.461C305.725 89.649 307.21 90.216 309.019 90.216C313.096 90.216 316.255 87.3 316.255 82.737C316.255 78.174 313.096 75.258 309.019 75.258ZM308.29 86.76C306.184 86.76 304.591 85.248 304.591 82.737C304.591 80.226 306.184 78.714 308.29 78.714C310.396 78.714 311.989 80.226 311.989 82.737C311.989 85.248 310.396 86.76 308.29 86.76ZM324.697 75.258C322.375 75.258 320.026 75.879 318.433 77.013L319.945 79.956C320.998 79.119 322.591 78.606 324.13 78.606C326.398 78.606 327.478 79.659 327.478 81.468H324.13C319.702 81.468 317.893 83.25 317.893 85.815C317.893 88.326 319.918 90.216 323.32 90.216C325.453 90.216 326.965 89.514 327.748 88.191V90H331.69V81.711C331.69 77.31 329.125 75.258 324.697 75.258ZM324.373 87.381C322.888 87.381 321.997 86.679 321.997 85.626C321.997 84.654 322.618 83.925 324.589 83.925H327.478V85.41C326.992 86.733 325.777 87.381 324.373 87.381ZM346.649 75.474V77.337C345.542 75.933 343.868 75.258 341.843 75.258C337.82 75.258 334.58 78.039 334.58 82.278C334.58 86.517 337.82 89.298 341.843 89.298C343.733 89.298 345.326 88.704 346.433 87.489V88.11C346.433 90.729 345.137 92.079 342.167 92.079C340.304 92.079 338.279 91.431 337.037 90.432L335.363 93.456C337.064 94.779 339.737 95.454 342.491 95.454C347.729 95.454 350.645 92.97 350.645 87.57V75.474H346.649ZM342.68 85.842C340.466 85.842 338.846 84.411 338.846 82.278C338.846 80.145 340.466 78.714 342.68 78.714C344.894 78.714 346.487 80.145 346.487 82.278C346.487 84.411 344.894 85.842 342.68 85.842ZM356.671 73.449C358.237 73.449 359.29 72.423 359.29 71.019C359.29 69.723 358.237 68.751 356.671 68.751C355.105 68.751 354.052 69.777 354.052 71.1C354.052 72.423 355.105 73.449 356.671 73.449ZM354.565 90H358.777V75.474H354.565V90ZM371.515 75.258C369.544 75.258 367.843 75.933 366.709 77.175V75.474H362.686V90H366.898V82.818C366.898 80.145 368.356 78.903 370.381 78.903C372.244 78.903 373.324 79.983 373.324 82.332V90H377.536V81.684C377.536 77.256 374.944 75.258 371.515 75.258ZM387.213 75.258C384.891 75.258 382.542 75.879 380.949 77.013L382.461 79.956C383.514 79.119 385.107 78.606 386.646 78.606C388.914 78.606 389.994 79.659 389.994 81.468H386.646C382.218 81.468 380.409 83.25 380.409 85.815C380.409 88.326 382.434 90.216 385.836 90.216C387.969 90.216 389.481 89.514 390.264 88.191V90H394.206V81.711C394.206 77.31 391.641 75.258 387.213 75.258ZM386.889 87.381C385.404 87.381 384.513 86.679 384.513 85.626C384.513 84.654 385.134 83.925 387.105 83.925H389.994V85.41C389.508 86.733 388.293 87.381 386.889 87.381ZM59.7016 108.474V110.148C58.6486 108.879 57.1096 108.258 55.1656 108.258C51.0616 108.258 47.9026 111.174 47.9026 115.737C47.9026 120.3 51.0616 123.216 55.1656 123.216C56.9476 123.216 58.4596 122.649 59.5126 121.461V128.238H63.7246V108.474H59.7016ZM55.8946 119.76C53.7886 119.76 52.1686 118.248 52.1686 115.737C52.1686 113.226 53.7886 111.714 55.8946 111.714C57.9736 111.714 59.5936 113.226 59.5936 115.737C59.5936 118.248 57.9736 119.76 55.8946 119.76ZM78.0462 108.474V115.656C78.0462 118.329 76.6422 119.571 74.6982 119.571C72.8352 119.571 71.7552 118.491 71.7552 116.061V108.474H67.5432V116.682C67.5432 121.164 70.1082 123.216 73.7532 123.216C75.5352 123.216 77.1552 122.541 78.2622 121.272V123H82.2582V108.474H78.0462ZM100.389 115.791C100.389 111.12 97.0953 108.258 92.8293 108.258C88.4013 108.258 85.0803 111.39 85.0803 115.737C85.0803 120.057 88.3473 123.216 93.3693 123.216C95.9883 123.216 98.0133 122.406 99.3633 120.867L97.1223 118.437C96.1233 119.382 95.0163 119.841 93.4773 119.841C91.2633 119.841 89.7243 118.734 89.3193 116.925H100.308C100.335 116.574 100.389 116.115 100.389 115.791ZM92.8563 111.444C94.7463 111.444 96.1233 112.632 96.4203 114.468H89.2653C89.5623 112.605 90.9393 111.444 92.8563 111.444ZM125.069 115.791C125.069 111.12 121.775 108.258 117.509 108.258C113.081 108.258 109.76 111.39 109.76 115.737C109.76 120.057 113.027 123.216 118.049 123.216C120.668 123.216 122.693 122.406 124.043 120.867L121.802 118.437C120.803 119.382 119.696 119.841 118.157 119.841C115.943 119.841 114.404 118.734 113.999 116.925H124.988C125.015 116.574 125.069 116.115 125.069 115.791ZM117.536 111.444C119.426 111.444 120.803 112.632 121.1 114.468H113.945C114.242 112.605 115.619 111.444 117.536 111.444ZM132.76 123.216C137.107 123.216 139.618 121.299 139.618 118.599C139.618 112.875 130.843 115.278 130.843 112.794C130.843 112.038 131.653 111.444 133.543 111.444C134.866 111.444 136.297 111.714 137.728 112.524L139.132 109.527C137.755 108.717 135.541 108.258 133.543 108.258C129.304 108.258 126.82 110.202 126.82 112.956C126.82 118.761 135.595 116.331 135.595 118.707C135.595 119.517 134.866 120.03 132.922 120.03C131.14 120.03 129.169 119.463 127.873 118.626L126.469 121.65C127.819 122.541 130.303 123.216 132.76 123.216ZM150.452 119.328C149.993 119.679 149.372 119.868 148.751 119.868C147.617 119.868 146.942 119.193 146.942 117.951V112.038H150.56V108.798H146.942V105.261H142.73V108.798H140.489V112.038H142.73V118.005C142.73 121.461 144.728 123.216 148.157 123.216C149.453 123.216 150.722 122.919 151.586 122.298L150.452 119.328ZM159.809 108.258C157.487 108.258 155.138 108.879 153.545 110.013L155.057 112.956C156.11 112.119 157.703 111.606 159.242 111.606C161.51 111.606 162.59 112.659 162.59 114.468H159.242C154.814 114.468 153.005 116.25 153.005 118.815C153.005 121.326 155.03 123.216 158.432 123.216C160.565 123.216 162.077 122.514 162.86 121.191V123H166.802V114.711C166.802 110.31 164.237 108.258 159.809 108.258ZM159.485 120.381C158 120.381 157.109 119.679 157.109 118.626C157.109 117.654 157.73 116.925 159.701 116.925H162.59V118.41C162.104 119.733 160.889 120.381 159.485 120.381ZM179.2 108.258C177.391 108.258 175.906 108.825 174.826 110.013V102.966H170.614V123H174.637V121.326C175.69 122.595 177.256 123.216 179.2 123.216C183.277 123.216 186.436 120.3 186.436 115.737C186.436 111.174 183.277 108.258 179.2 108.258ZM178.471 119.76C176.365 119.76 174.772 118.248 174.772 115.737C174.772 113.226 176.365 111.714 178.471 111.714C180.577 111.714 182.17 113.226 182.17 115.737C182.17 118.248 180.577 119.76 178.471 119.76ZM194.878 108.258C192.556 108.258 190.207 108.879 188.614 110.013L190.126 112.956C191.179 112.119 192.772 111.606 194.311 111.606C196.579 111.606 197.659 112.659 197.659 114.468H194.311C189.883 114.468 188.074 116.25 188.074 118.815C188.074 121.326 190.099 123.216 193.501 123.216C195.634 123.216 197.146 122.514 197.929 121.191V123H201.871V114.711C201.871 110.31 199.306 108.258 194.878 108.258ZM194.554 120.381C193.069 120.381 192.178 119.679 192.178 118.626C192.178 117.654 192.799 116.925 194.77 116.925H197.659V118.41C197.173 119.733 195.958 120.381 194.554 120.381ZM210.57 123.216C214.917 123.216 217.428 121.299 217.428 118.599C217.428 112.875 208.653 115.278 208.653 112.794C208.653 112.038 209.463 111.444 211.353 111.444C212.676 111.444 214.107 111.714 215.538 112.524L216.942 109.527C215.565 108.717 213.351 108.258 211.353 108.258C207.114 108.258 204.63 110.202 204.63 112.956C204.63 118.761 213.405 116.331 213.405 118.707C213.405 119.517 212.676 120.03 210.732 120.03C208.95 120.03 206.979 119.463 205.683 118.626L204.279 121.65C205.629 122.541 208.113 123.216 210.57 123.216ZM236.259 108.258C234.45 108.258 232.965 108.825 231.885 110.013V102.966H227.673V123H231.696V121.326C232.749 122.595 234.315 123.216 236.259 123.216C240.336 123.216 243.495 120.3 243.495 115.737C243.495 111.174 240.336 108.258 236.259 108.258ZM235.53 119.76C233.424 119.76 231.831 118.248 231.831 115.737C231.831 113.226 233.424 111.714 235.53 111.714C237.636 111.714 239.229 113.226 239.229 115.737C239.229 118.248 237.636 119.76 235.53 119.76ZM256.737 108.474V115.656C256.737 118.329 255.333 119.571 253.389 119.571C251.526 119.571 250.446 118.491 250.446 116.061V108.474H246.234V116.682C246.234 121.164 248.799 123.216 252.444 123.216C254.226 123.216 255.846 122.541 256.953 121.272V123H260.949V108.474H256.737ZM269.738 123.216C274.085 123.216 276.596 121.299 276.596 118.599C276.596 112.875 267.821 115.278 267.821 112.794C267.821 112.038 268.631 111.444 270.521 111.444C271.844 111.444 273.275 111.714 274.706 112.524L276.11 109.527C274.733 108.717 272.519 108.258 270.521 108.258C266.282 108.258 263.798 110.202 263.798 112.956C263.798 118.761 272.573 116.331 272.573 118.707C272.573 119.517 271.844 120.03 269.9 120.03C268.118 120.03 266.147 119.463 264.851 118.626L263.447 121.65C264.797 122.541 267.281 123.216 269.738 123.216ZM286.214 123.216C289.265 123.216 291.668 121.866 292.721 119.544L289.454 117.762C288.671 119.166 287.51 119.76 286.187 119.76C284.054 119.76 282.38 118.275 282.38 115.737C282.38 113.199 284.054 111.714 286.187 111.714C287.51 111.714 288.671 112.335 289.454 113.712L292.721 111.957C291.668 109.581 289.265 108.258 286.214 108.258C281.489 108.258 278.114 111.363 278.114 115.737C278.114 120.111 281.489 123.216 286.214 123.216ZM301.006 108.258C298.684 108.258 296.335 108.879 294.742 110.013L296.254 112.956C297.307 112.119 298.9 111.606 300.439 111.606C302.707 111.606 303.787 112.659 303.787 114.468H300.439C296.011 114.468 294.202 116.25 294.202 118.815C294.202 121.326 296.227 123.216 299.629 123.216C301.762 123.216 303.274 122.514 304.057 121.191V123H307.999V114.711C307.999 110.31 305.434 108.258 301.006 108.258ZM300.682 120.381C299.197 120.381 298.306 119.679 298.306 118.626C298.306 117.654 298.927 116.925 300.898 116.925H303.787V118.41C303.301 119.733 302.086 120.381 300.682 120.381ZM320.64 108.258C318.669 108.258 316.968 108.933 315.834 110.175V108.474H311.811V123H316.023V115.818C316.023 113.145 317.481 111.903 319.506 111.903C321.369 111.903 322.449 112.983 322.449 115.332V123H326.661V114.684C326.661 110.256 324.069 108.258 320.64 108.258ZM341.221 102.966V110.013C340.168 108.825 338.656 108.258 336.874 108.258C332.77 108.258 329.611 111.174 329.611 115.737C329.611 120.3 332.77 123.216 336.874 123.216C338.818 123.216 340.357 122.595 341.41 121.326V123H345.433V102.966H341.221ZM337.603 119.76C335.497 119.76 333.877 118.248 333.877 115.737C333.877 113.226 335.497 111.714 337.603 111.714C339.682 111.714 341.302 113.226 341.302 115.737C341.302 118.248 339.682 119.76 337.603 119.76ZM356.243 123.216C360.86 123.216 364.208 120.111 364.208 115.737C364.208 111.363 360.86 108.258 356.243 108.258C351.626 108.258 348.251 111.363 348.251 115.737C348.251 120.111 351.626 123.216 356.243 123.216ZM356.243 119.76C354.137 119.76 352.517 118.248 352.517 115.737C352.517 113.226 354.137 111.714 356.243 111.714C358.349 111.714 359.942 113.226 359.942 115.737C359.942 118.248 358.349 119.76 356.243 119.76ZM368.432 123.216C369.89 123.216 371.051 122.109 371.051 120.57C371.051 119.004 369.89 117.978 368.432 117.978C366.974 117.978 365.813 119.004 365.813 120.57C365.813 122.109 366.974 123.216 368.432 123.216Z" fill="#B19FFD"/>
<path d="M158.069 235.6C158.073 233.907 157.936 232.217 157.66 230.546C156.442 223.164 152.661 216.447 146.981 211.576C141.3 206.705 134.085 203.993 126.603 203.915H126.33C121.311 203.918 116.364 205.115 111.898 207.407C107.432 209.698 103.575 213.019 100.645 217.094C100.163 217.758 99.7358 218.44 99.2995 219.121C99.264 219.166 99.2335 219.215 99.2087 219.267C96.225 224.201 94.653 229.861 94.6641 235.627V235.691C94.6828 242.393 96.8251 248.917 100.783 254.325C104.742 259.734 110.312 263.749 116.695 265.793C123.077 267.838 129.944 267.808 136.308 265.706C142.672 263.604 148.206 259.54 152.116 254.096C152.589 253.433 153.025 252.76 153.452 252.069C153.488 252.024 153.518 251.975 153.543 251.924C156.523 247.002 158.089 241.354 158.069 235.6ZM96.0184 234.882C96.1234 229.692 97.5735 224.619 100.227 220.158H110.143C108.627 224.921 107.834 229.884 107.789 234.882H96.0184ZM111.533 220.158H125.676V234.882H109.152C109.182 229.88 109.985 224.914 111.533 220.158ZM127.039 218.794V205.233C129.005 205.411 130.888 206.111 132.493 207.26C135.865 209.569 138.692 213.622 140.673 218.794H127.039ZM141.164 220.158C142.288 223.562 143.02 227.084 143.345 230.655C143.482 232.073 143.545 233.482 143.563 234.882H127.039V220.158H141.164ZM123.676 205.615C124.329 205.43 124.999 205.314 125.676 205.27V218.821H112.042C114.587 211.968 118.714 206.987 123.676 205.588V205.615ZM125.676 236.272V250.997H111.561C110.436 247.584 109.71 244.052 109.398 240.472C109.27 239.054 109.198 237.645 109.179 236.245L125.676 236.272ZM125.676 252.36V265.921C123.711 265.741 121.828 265.042 120.223 263.894C116.86 261.586 114.033 257.532 112.042 252.36H125.676ZM129.039 265.567C128.387 265.753 127.716 265.869 127.039 265.912V252.333H140.673C138.128 259.159 134.002 264.149 129.039 265.539V265.567ZM127.039 251.024V236.254H143.563C143.538 241.256 142.734 246.224 141.182 250.979L127.039 251.024ZM144.927 236.254H156.742C156.632 241.443 155.183 246.515 152.534 250.979H142.573C144.088 246.215 144.881 241.252 144.927 236.254ZM156.742 234.891H144.927C144.927 233.455 144.836 232.001 144.699 230.537C144.389 227.014 143.691 223.536 142.618 220.167H152.516C154.429 223.414 155.72 226.99 156.324 230.71C156.541 232.091 156.668 233.484 156.706 234.882L156.742 234.891ZM144.136 210.959C147.107 213.099 149.668 215.756 151.698 218.803H142.118C140.082 213.177 137.019 208.723 133.265 206.142L132.975 205.951C136.983 206.849 140.767 208.549 144.1 210.95L144.136 210.959ZM119.714 205.969C115.887 208.487 112.742 213.068 110.625 218.803H101.081L101.745 217.831C106.061 211.805 112.444 207.58 119.677 205.96L119.714 205.969ZM96.082 236.254H107.852C107.852 237.69 107.943 239.145 108.08 240.608C108.394 244.13 109.092 247.608 110.161 250.979H100.208C98.2918 247.733 97.0001 244.157 96.4001 240.435C96.1739 239.052 96.0463 237.655 96.0184 236.254H96.082ZM101.117 252.342H110.625C112.66 257.968 115.723 262.422 119.477 265.003L119.777 265.194C112.14 263.459 105.461 258.859 101.117 252.342ZM133.029 265.167C136.846 262.658 139.991 258.068 142.118 252.333H151.644C151.425 252.66 151.207 252.987 150.98 253.305C146.66 259.334 140.269 263.557 133.029 265.167Z" fill="#B19FFD"/>
<path opacity="0.8" d="M158.069 235.6C158.073 233.907 157.936 232.217 157.66 230.546C156.442 223.164 152.661 216.447 146.981 211.576C141.3 206.705 134.085 203.993 126.603 203.915H126.33C121.311 203.918 116.364 205.115 111.898 207.407C107.432 209.698 103.575 213.019 100.645 217.094C100.163 217.758 99.7358 218.44 99.2995 219.121C99.264 219.166 99.2335 219.215 99.2087 219.267C96.225 224.201 94.653 229.861 94.6641 235.627V235.691C94.6828 242.393 96.8251 248.917 100.783 254.325C104.742 259.734 110.312 263.749 116.695 265.793C123.077 267.838 129.944 267.808 136.308 265.706C142.672 263.604 148.206 259.54 152.116 254.096C152.589 253.433 153.025 252.76 153.452 252.069C153.488 252.024 153.518 251.975 153.543 251.924C156.523 247.002 158.089 241.354 158.069 235.6ZM96.0184 234.882C96.1234 229.692 97.5735 224.619 100.227 220.158H110.143C108.627 224.921 107.834 229.884 107.789 234.882H96.0184ZM111.533 220.158H125.676V234.882H109.152C109.182 229.88 109.985 224.914 111.533 220.158ZM127.039 218.794V205.233C129.005 205.411 130.888 206.111 132.493 207.26C135.865 209.569 138.692 213.622 140.673 218.794H127.039ZM141.164 220.158C142.288 223.562 143.02 227.084 143.345 230.655C143.482 232.073 143.545 233.482 143.563 234.882H127.039V220.158H141.164ZM123.676 205.615C124.329 205.43 124.999 205.314 125.676 205.27V218.821H112.042C114.587 211.968 118.714 206.987 123.676 205.588V205.615ZM125.676 236.272V250.997H111.561C110.436 247.584 109.71 244.052 109.398 240.472C109.27 239.054 109.198 237.645 109.179 236.245L125.676 236.272ZM125.676 252.36V265.921C123.711 265.741 121.828 265.042 120.223 263.894C116.86 261.586 114.033 257.532 112.042 252.36H125.676ZM129.039 265.567C128.387 265.753 127.716 265.869 127.039 265.912V252.333H140.673C138.128 259.159 134.002 264.149 129.039 265.539V265.567ZM127.039 251.024V236.254H143.563C143.538 241.256 142.734 246.224 141.182 250.979L127.039 251.024ZM144.927 236.254H156.742C156.632 241.443 155.183 246.515 152.534 250.979H142.573C144.088 246.215 144.881 241.252 144.927 236.254ZM156.742 234.891H144.927C144.927 233.455 144.836 232.001 144.699 230.537C144.389 227.014 143.691 223.536 142.618 220.167H152.516C154.429 223.414 155.72 226.99 156.324 230.71C156.541 232.091 156.668 233.484 156.706 234.882L156.742 234.891ZM144.136 210.959C147.107 213.099 149.668 215.756 151.698 218.803H142.118C140.082 213.177 137.019 208.723 133.265 206.142L132.975 205.951C136.983 206.849 140.767 208.549 144.1 210.95L144.136 210.959ZM119.714 205.969C115.887 208.487 112.742 213.068 110.625 218.803H101.081L101.745 217.831C106.061 211.805 112.444 207.58 119.677 205.96L119.714 205.969ZM96.082 236.254H107.852C107.852 237.69 107.943 239.145 108.08 240.608C108.394 244.13 109.092 247.608 110.161 250.979H100.208C98.2918 247.733 97.0001 244.157 96.4001 240.435C96.1739 239.052 96.0463 237.655 96.0184 236.254H96.082ZM101.117 252.342H110.625C112.66 257.968 115.723 262.422 119.477 265.003L119.777 265.194C112.14 263.459 105.461 258.859 101.117 252.342ZM133.029 265.167C136.846 262.658 139.991 258.068 142.118 252.333H151.644C151.425 252.66 151.207 252.987 150.98 253.305C146.66 259.334 140.269 263.557 133.029 265.167Z" fill="#FDFFFE"/>
<path d="M365.064 250.706H79.3037V319.946H365.064V250.706Z" fill="#B19FFD"/>
<path opacity="0.6" d="M365.064 250.706H79.3037V319.946H365.064V250.706Z" fill="#FDFFFE"/>
<path d="M358.62 257.15H72.8599V326.39H358.62V257.15Z" fill="#B19FFD"/>
<path opacity="0.3" d="M358.62 257.15H72.8599V326.39H358.62V257.15Z" fill="#00273E"/>
<path d="M352.175 263.594H66.415V332.835H352.175V263.594Z" fill="#B19FFD"/>
<path opacity="0.1" d="M352.175 263.594H66.415V332.835H352.175V263.594Z" fill="#FDFFFE"/>
<path d="M338.542 319.201V277.228H80.0488V319.201H338.542Z" fill="#B19FFD"/>
<path opacity="0.9" d="M338.542 319.201V277.228H80.0488V319.201H338.542Z" fill="#FDFFFE"/>
<path d="M295.06 277.228V319.201H296.578V277.228H295.06Z" fill="#B19FFD"/>
<path opacity="0.6" d="M295.06 277.228V319.201H296.578V277.228H295.06Z" fill="#FDFFFE"/>
<path d="M86.4932 283.017V313.411H88.011V283.017H86.4932Z" fill="#B19FFD"/>
<path opacity="0.6" d="M86.4932 283.017V313.411H88.011V283.017H86.4932Z" fill="#FDFFFE"/>
<path d="M316.11 303.514C315.007 303.513 313.921 303.241 312.949 302.72C311.976 302.2 311.147 301.448 310.535 300.531C309.922 299.614 309.545 298.56 309.437 297.462C309.329 296.365 309.494 295.257 309.916 294.238C310.338 293.22 311.005 292.32 311.857 291.621C312.71 290.921 313.722 290.442 314.803 290.227C315.885 290.012 317.003 290.067 318.059 290.387C319.114 290.706 320.074 291.282 320.854 292.061C321.793 292.999 322.432 294.195 322.691 295.496C322.951 296.798 322.818 298.147 322.31 299.373C321.802 300.599 320.942 301.647 319.838 302.384C318.734 303.121 317.437 303.514 316.11 303.514ZM316.11 291.925C314.978 291.925 313.882 292.318 313.008 293.036C312.133 293.755 311.535 294.754 311.315 295.864C311.095 296.974 311.266 298.126 311.801 299.123C312.335 300.121 313.198 300.902 314.244 301.334C315.29 301.766 316.453 301.822 317.536 301.493C318.618 301.163 319.553 300.468 320.18 299.527C320.808 298.585 321.09 297.455 320.977 296.329C320.865 295.203 320.365 294.151 319.564 293.352C319.115 292.889 318.578 292.52 317.985 292.268C317.392 292.015 316.755 291.883 316.11 291.88V291.925Z" fill="#B19FFD"/>
<path d="M324.809 306.367C324.688 306.367 324.569 306.343 324.459 306.296C324.348 306.249 324.247 306.181 324.163 306.095L319.573 301.505C319.478 301.423 319.401 301.323 319.346 301.21C319.292 301.097 319.261 300.975 319.256 300.849C319.251 300.724 319.273 300.599 319.318 300.483C319.364 300.366 319.433 300.26 319.522 300.172C319.61 300.083 319.716 300.014 319.833 299.968C319.95 299.922 320.074 299.901 320.2 299.906C320.325 299.911 320.448 299.942 320.56 299.996C320.673 300.051 320.773 300.128 320.855 300.223L325.445 304.813C325.614 304.983 325.709 305.214 325.709 305.454C325.709 305.694 325.614 305.924 325.445 306.095C325.277 306.266 325.048 306.364 324.809 306.367Z" fill="#B19FFD"/>
<path d="M316.11 303.514C315.007 303.513 313.921 303.241 312.949 302.72C311.976 302.2 311.147 301.448 310.535 300.531C309.922 299.614 309.545 298.56 309.437 297.462C309.329 296.365 309.494 295.257 309.916 294.238C310.338 293.22 311.005 292.32 311.857 291.621C312.71 290.921 313.722 290.442 314.803 290.227C315.885 290.012 317.003 290.067 318.059 290.387C319.114 290.706 320.074 291.282 320.854 292.061C321.793 292.999 322.432 294.195 322.691 295.496C322.951 296.798 322.818 298.147 322.31 299.373C321.802 300.599 320.942 301.647 319.838 302.384C318.734 303.121 317.437 303.514 316.11 303.514ZM316.11 291.925C314.978 291.925 313.882 292.318 313.008 293.036C312.133 293.755 311.535 294.754 311.315 295.864C311.095 296.974 311.266 298.126 311.801 299.123C312.335 300.121 313.198 300.902 314.244 301.334C315.29 301.766 316.453 301.822 317.536 301.493C318.618 301.163 319.553 300.468 320.18 299.527C320.808 298.585 321.09 297.455 320.977 296.329C320.865 295.203 320.365 294.151 319.564 293.352C319.115 292.889 318.578 292.52 317.985 292.268C317.392 292.015 316.755 291.883 316.11 291.88V291.925Z" fill="#FDFFFE"/>
<path d="M324.809 306.367C324.688 306.367 324.569 306.343 324.459 306.296C324.348 306.249 324.247 306.181 324.163 306.095L319.573 301.505C319.478 301.423 319.401 301.323 319.346 301.21C319.292 301.097 319.261 300.975 319.256 300.849C319.251 300.724 319.273 300.599 319.318 300.483C319.364 300.366 319.433 300.26 319.522 300.172C319.61 300.083 319.716 300.014 319.833 299.968C319.95 299.922 320.074 299.901 320.2 299.906C320.325 299.911 320.448 299.942 320.56 299.996C320.673 300.051 320.773 300.128 320.855 300.223L325.445 304.813C325.614 304.983 325.709 305.214 325.709 305.454C325.709 305.694 325.614 305.924 325.445 306.095C325.277 306.266 325.048 306.364 324.809 306.367Z" fill="#FDFFFE"/>
<path d="M254.45 208.851H225.874V209.56H254.45V208.851Z" fill="#B19FFD"/>
<path d="M254.45 211.859H225.874V212.568H254.45V211.859Z" fill="#B19FFD"/>
<path d="M254.45 214.877H225.874V215.586H254.45V214.877Z" fill="#B19FFD"/>
<path d="M254.45 217.885H225.874V218.594H254.45V217.885Z" fill="#B19FFD"/>
<path d="M254.45 220.894H225.874V221.603H254.45V220.894Z" fill="#B19FFD"/>
<path d="M244.507 223.911H225.874V224.62H244.507V223.911Z" fill="#B19FFD"/>
<path d="M254.45 208.851H225.874V209.56H254.45V208.851Z" fill="#FDFFFE"/>
<path d="M254.45 211.859H225.874V212.568H254.45V211.859Z" fill="#FDFFFE"/>
<path d="M254.45 214.877H225.874V215.586H254.45V214.877Z" fill="#FDFFFE"/>
<path d="M254.45 217.885H225.874V218.594H254.45V217.885Z" fill="#FDFFFE"/>
<path d="M254.45 220.894H225.874V221.603H254.45V220.894Z" fill="#FDFFFE"/>
<path d="M244.507 223.911H225.874V224.62H244.507V223.911Z" fill="#FDFFFE"/>
<path d="M82.4484 338.815H52V339.27H82.4484V338.815Z" fill="#B19FFD"/>
<path d="M82.4484 340.742H52V341.197H82.4484V340.742Z" fill="#B19FFD"/>
<path d="M82.4484 342.669H52V343.124H82.4484V342.669Z" fill="#B19FFD"/>
<path d="M82.4484 344.596H52V345.05H82.4484V344.596Z" fill="#B19FFD"/>
<path d="M82.4484 346.523H52V346.977H82.4484V346.523Z" fill="#B19FFD"/>
<path d="M71.1416 348.459H52V348.913H71.1416V348.459Z" fill="#B19FFD"/>
<path d="M82.4484 338.815H52V339.27H82.4484V338.815Z" fill="#FDFFFE"/>
<path d="M82.4484 340.742H52V341.197H82.4484V340.742Z" fill="#FDFFFE"/>
<path d="M82.4484 342.669H52V343.124H82.4484V342.669Z" fill="#FDFFFE"/>
<path d="M82.4484 344.596H52V345.05H82.4484V344.596Z" fill="#FDFFFE"/>
<path d="M82.4484 346.523H52V346.977H82.4484V346.523Z" fill="#FDFFFE"/>
<path d="M71.1416 348.459H52V348.913H71.1416V348.459Z" fill="#FDFFFE"/>
<path d="M182.519 213.314C180.995 213.314 179.534 213.919 178.457 214.996C177.38 216.073 176.775 217.534 176.775 219.058V238.009C176.775 239.532 177.38 240.993 178.457 242.07C179.534 243.148 180.995 243.753 182.519 243.753C184.042 243.753 185.504 243.148 186.581 242.07C187.658 240.993 188.263 239.532 188.263 238.009V219.058C188.263 217.534 187.658 216.073 186.581 214.996C185.504 213.919 184.042 213.314 182.519 213.314Z" fill="#B19FFD"/>
<path opacity="0.2" d="M182.519 213.314C180.995 213.314 179.534 213.919 178.457 214.996C177.38 216.073 176.775 217.534 176.775 219.058V238.009C176.775 239.532 177.38 240.993 178.457 242.07C179.534 243.148 180.995 243.753 182.519 243.753C184.042 243.753 185.504 243.148 186.581 242.07C187.658 240.993 188.263 239.532 188.263 238.009V219.058C188.263 217.534 187.658 216.073 186.581 214.996C185.504 213.919 184.042 213.314 182.519 213.314Z" fill="#FDFFFE"/>
<path d="M196.916 202.016C195.397 202.023 193.943 202.631 192.872 203.708C191.801 204.784 191.199 206.241 191.199 207.76V238.009C191.199 239.532 191.804 240.993 192.882 242.07C193.959 243.148 195.42 243.753 196.944 243.753C198.467 243.753 199.928 243.148 201.005 242.07C202.083 240.993 202.688 239.532 202.688 238.009V207.76C202.688 207.003 202.538 206.254 202.248 205.556C201.958 204.857 201.532 204.222 200.996 203.689C200.459 203.155 199.823 202.732 199.123 202.445C198.423 202.158 197.673 202.012 196.916 202.016Z" fill="#B19FFD"/>
<path opacity="0.3" d="M196.916 202.016C195.397 202.023 193.943 202.631 192.872 203.708C191.801 204.784 191.199 206.241 191.199 207.76V238.009C191.199 239.532 191.804 240.993 192.882 242.07C193.959 243.148 195.42 243.753 196.944 243.753C198.467 243.753 199.928 243.148 201.005 242.07C202.083 240.993 202.688 239.532 202.688 238.009V207.76C202.688 207.003 202.538 206.254 202.248 205.556C201.958 204.857 201.532 204.222 200.996 203.689C200.459 203.155 199.823 202.732 199.123 202.445C198.423 202.158 197.673 202.012 196.916 202.016Z" fill="#00273E"/>
<path d="M211.304 224.611C209.781 224.611 208.32 225.216 207.243 226.294C206.165 227.371 205.56 228.832 205.56 230.356V238.009C205.56 239.532 206.165 240.993 207.243 242.07C208.32 243.148 209.781 243.753 211.304 243.753C212.059 243.754 212.807 243.606 213.505 243.318C214.203 243.03 214.838 242.607 215.372 242.074C215.906 241.54 216.33 240.906 216.62 240.209C216.909 239.511 217.058 238.764 217.058 238.009V230.356C217.058 229.6 216.909 228.853 216.62 228.155C216.33 227.458 215.906 226.824 215.372 226.291C214.838 225.757 214.203 225.334 213.505 225.046C212.807 224.758 212.059 224.61 211.304 224.611Z" fill="#B19FFD"/>
<path opacity="0.6" d="M211.304 224.611C209.781 224.611 208.32 225.216 207.243 226.294C206.165 227.371 205.56 228.832 205.56 230.356V238.009C205.56 239.532 206.165 240.993 207.243 242.07C208.32 243.148 209.781 243.753 211.304 243.753C212.059 243.754 212.807 243.606 213.505 243.318C214.203 243.03 214.838 242.607 215.372 242.074C215.906 241.54 216.33 240.906 216.62 240.209C216.909 239.511 217.058 238.764 217.058 238.009V230.356C217.058 229.6 216.909 228.853 216.62 228.155C216.33 227.458 215.906 226.824 215.372 226.291C214.838 225.757 214.203 225.334 213.505 225.046C212.807 224.758 212.059 224.61 211.304 224.611Z" fill="#FDFFFE"/>
<path d="M332.634 354.53H355.856L316.21 313.411L332.634 354.53Z" fill="#B19FFD"/>
<path d="M332.634 354.53H355.856L316.21 313.411L332.634 354.53Z" fill="#00273E"/>
<g style="mix-blend-mode:multiply">
<path d="M310.311 332.826L316.21 313.411L319.555 332.826H310.311Z" fill="#B19FFD"/>
</g>
<path d="M316.21 313.411V370.945L320.318 366.846L332.634 354.53L316.21 313.411Z" fill="#B19FFD"/>
<path opacity="0.3" d="M316.21 313.411V370.945L320.318 366.846L332.634 354.53L316.21 313.411Z" fill="#FDFFFE"/>
<path d="M357.275 190H306.376C303.796 190.01 301.325 191.038 299.5 192.861C297.675 194.684 296.645 197.155 296.633 199.734V226.02C296.645 228.598 297.674 231.067 299.497 232.89C301.32 234.713 303.789 235.742 306.367 235.754H343.714L343.441 244.943L352.867 235.754H357.257C359.836 235.745 362.308 234.716 364.133 232.893C365.958 231.07 366.988 228.6 367 226.02V199.734C366.988 197.158 365.96 194.69 364.139 192.868C362.318 191.045 359.851 190.014 357.275 190ZM305.231 201.198C305.231 200.475 305.518 199.781 306.029 199.27C306.541 198.758 307.234 198.471 307.958 198.471H319.673C320.397 198.471 321.09 198.758 321.601 199.27C322.113 199.781 322.4 200.475 322.4 201.198C322.4 201.921 322.113 202.614 321.601 203.126C321.09 203.637 320.397 203.924 319.673 203.924H307.948C307.227 203.922 306.536 203.634 306.026 203.123C305.517 202.612 305.231 201.919 305.231 201.198ZM354.385 226.647H334.134C333.742 226.716 333.34 226.698 332.956 226.595C332.571 226.491 332.214 226.305 331.91 226.049C331.605 225.793 331.36 225.474 331.192 225.113C331.024 224.752 330.937 224.359 330.937 223.961C330.937 223.563 331.024 223.17 331.192 222.81C331.36 222.449 331.605 222.129 331.91 221.873C332.214 221.618 332.571 221.431 332.956 221.328C333.34 221.225 333.742 221.207 334.134 221.275H354.385C354.776 221.207 355.179 221.225 355.563 221.328C355.947 221.431 356.304 221.618 356.609 221.873C356.914 222.129 357.159 222.449 357.327 222.81C357.495 223.17 357.582 223.563 357.582 223.961C357.582 224.359 357.495 224.752 357.327 225.113C357.159 225.474 356.914 225.793 356.609 226.049C356.304 226.305 355.947 226.491 355.563 226.595C355.179 226.698 354.776 226.716 354.385 226.647ZM354.385 215.277H310.675C310.283 215.345 309.881 215.327 309.497 215.224C309.112 215.121 308.755 214.935 308.451 214.679C308.146 214.423 307.901 214.103 307.733 213.743C307.565 213.382 307.478 212.989 307.478 212.591C307.478 212.193 307.565 211.8 307.733 211.439C307.901 211.079 308.146 210.759 308.451 210.503C308.755 210.247 309.112 210.061 309.497 209.958C309.881 209.854 310.283 209.836 310.675 209.905H354.385C354.776 209.836 355.179 209.854 355.563 209.958C355.947 210.061 356.304 210.247 356.609 210.503C356.914 210.759 357.159 211.079 357.327 211.439C357.495 211.8 357.582 212.193 357.582 212.591C357.582 212.989 357.495 213.382 357.327 213.743C357.159 214.103 356.914 214.423 356.609 214.679C356.304 214.935 355.947 215.121 355.563 215.224C355.179 215.327 354.776 215.345 354.385 215.277ZM354.385 203.906H328.508C327.785 203.906 327.091 203.619 326.58 203.108C326.068 202.596 325.781 201.903 325.781 201.18C325.781 200.456 326.068 199.763 326.58 199.251C327.091 198.74 327.785 198.453 328.508 198.453H354.385C355.108 198.453 355.801 198.74 356.313 199.251C356.824 199.763 357.111 200.456 357.111 201.18C357.111 201.903 356.824 202.596 356.313 203.108C355.801 203.619 355.108 203.906 354.385 203.906Z" fill="#B19FFD"/>
<path d="M277.672 273.32C275.498 267.348 272.179 261.859 267.901 257.159H195.634C191.356 261.859 188.037 267.348 185.864 273.32L195.862 323.091C203.51 331.383 213.793 336.771 224.964 338.34C236.135 339.909 247.504 337.562 257.141 331.699C266.778 325.835 274.088 316.817 277.829 306.174C281.57 295.532 281.511 283.923 277.663 273.32H277.672Z" fill="#B19FFD"/>
<path opacity="0.1" d="M277.672 273.32C275.498 267.348 272.179 261.859 267.901 257.159H195.634C191.356 261.859 188.037 267.348 185.864 273.32L195.862 323.091C203.51 331.383 213.793 336.771 224.964 338.34C236.135 339.909 247.504 337.562 257.141 331.699C266.778 325.835 274.088 316.817 277.829 306.174C281.57 295.532 281.511 283.923 277.663 273.32H277.672Z" fill="#FDFFFE"/>
<path d="M280.553 292.252C280.037 303.728 275.478 314.652 267.683 323.091H195.879C189.818 316.504 185.68 308.38 183.917 299.604C182.154 290.828 182.834 281.736 185.882 273.319H277.681C279.886 279.377 280.862 285.813 280.553 292.252Z" fill="#B19FFD"/>
<path opacity="0.9" d="M280.553 292.252C280.037 303.728 275.478 314.652 267.683 323.091H195.879C189.818 316.504 185.68 308.38 183.917 299.604C182.154 290.828 182.834 281.736 185.882 273.319H277.681C279.886 279.377 280.862 285.813 280.553 292.252Z" fill="#FDFFFE"/>
<path opacity="0.3" d="M280.554 292.252C279.988 304.329 274.954 315.765 266.427 324.336C257.901 332.908 246.493 338.004 234.419 338.634C222.346 339.264 210.469 335.383 201.097 327.745C191.725 320.107 185.528 309.257 183.709 297.305C181.89 285.352 184.579 273.151 191.255 263.07C197.93 252.99 208.114 245.752 219.829 242.761C231.543 239.771 243.951 241.243 254.641 246.89C265.331 252.538 273.54 261.958 277.672 273.32C279.877 279.377 280.857 285.813 280.554 292.252Z" fill="#FDFFFE"/>
<path opacity="0.4" d="M259.294 249.67L189.072 313.711C188.721 313.063 188.375 312.409 188.036 311.748C185.889 307.45 184.397 302.854 183.61 298.114L244.261 242.798C249.628 244.213 254.713 246.537 259.294 249.67Z" fill="#FDFFFE"/>
<path opacity="0.4" d="M278.081 274.492L212.104 334.698C205.26 331.678 199.202 327.126 194.398 321.392L266.493 255.641C271.747 260.956 275.711 267.405 278.081 274.492Z" fill="#FDFFFE"/>
<path d="M280.536 261.84C274.966 252.182 266.657 244.394 256.659 239.46C246.662 234.526 235.425 232.668 224.372 234.122C213.318 235.576 202.944 240.275 194.563 247.627C186.181 254.978 180.168 264.65 177.285 275.419C174.402 286.189 174.778 297.572 178.365 308.127C181.953 318.683 188.591 327.937 197.44 334.719C206.288 341.501 216.95 345.506 228.075 346.227C239.201 346.948 250.29 344.353 259.94 338.77C272.865 331.292 282.293 318.991 286.155 304.566C290.017 290.142 287.996 274.775 280.536 261.84ZM193.281 312.23C188.886 304.619 186.847 295.876 187.422 287.106C187.996 278.336 191.158 269.934 196.508 262.961C201.857 255.988 209.154 250.759 217.476 247.933C225.798 245.107 234.771 244.813 243.26 247.087C251.749 249.361 259.374 254.101 265.169 260.708C270.965 267.315 274.671 275.492 275.819 284.205C276.967 292.918 275.505 301.776 271.619 309.659C267.733 317.542 261.597 324.095 253.987 328.49C248.934 331.409 243.355 333.303 237.57 334.065C231.785 334.828 225.906 334.443 220.27 332.933C214.634 331.423 209.35 328.817 204.721 325.265C200.091 321.713 196.207 317.283 193.29 312.23H193.281Z" fill="#B19FFD"/>
<path opacity="0.1" d="M280.536 261.84C274.966 252.182 266.657 244.394 256.659 239.46C246.662 234.526 235.425 232.668 224.372 234.122C213.318 235.576 202.944 240.275 194.563 247.627C186.181 254.978 180.168 264.65 177.285 275.419C174.402 286.189 174.778 297.572 178.365 308.127C181.953 318.683 188.591 327.937 197.44 334.719C206.288 341.501 216.95 345.506 228.075 346.227C239.201 346.948 250.29 344.353 259.94 338.77C272.865 331.292 282.293 318.991 286.155 304.566C290.017 290.142 287.996 274.775 280.536 261.84ZM193.281 312.23C188.886 304.619 186.847 295.876 187.422 287.106C187.996 278.336 191.158 269.934 196.508 262.961C201.857 255.988 209.154 250.759 217.476 247.933C225.798 245.107 234.771 244.813 243.26 247.087C251.749 249.361 259.374 254.101 265.169 260.708C270.965 267.315 274.671 275.492 275.819 284.205C276.967 292.918 275.505 301.776 271.619 309.659C267.733 317.542 261.597 324.095 253.987 328.49C248.934 331.409 243.355 333.303 237.57 334.065C231.785 334.828 225.906 334.443 220.27 332.933C214.634 331.423 209.35 328.817 204.721 325.265C200.091 321.713 196.207 317.283 193.29 312.23H193.281Z" fill="#00273E"/>
<path d="M102.18 347.95L109.143 349.568L103.371 353.876C103.371 353.876 99.2355 352.004 99.0447 349.068L102.18 347.95Z" fill="#FFBE9D"/>
<path d="M112.869 354.203L107.852 357.548L103.371 353.876L109.143 349.577L112.869 354.203Z" fill="#FFBE9D"/>
<path d="M191.626 319.674C184.228 325.127 176.638 330.308 169.013 335.371C161.387 340.433 153.661 345.369 145.899 350.213C138.137 355.057 130.302 359.802 122.44 364.41C118.514 366.755 114.551 369.027 110.624 371.336C108.674 372.578 106.547 373.518 104.317 374.126C103.126 374.442 101.909 374.646 100.681 374.735C99.3174 374.847 97.9451 374.776 96.6 374.526C95.6388 374.336 94.7244 373.958 93.9094 373.414C93.0943 372.87 92.3945 372.171 91.8499 371.356C91.3054 370.542 90.9269 369.628 90.736 368.667C90.5451 367.706 90.5457 366.716 90.7376 365.755C90.7998 365.446 90.8849 365.143 90.9921 364.846C91.4308 363.558 92.0423 362.335 92.8099 361.211C93.4946 360.2 94.2737 359.257 95.1367 358.393C96.7805 356.766 98.6584 355.393 100.708 354.321C104.68 352.058 108.625 349.777 112.624 347.532C120.586 343.033 128.621 338.652 136.674 334.325C144.727 329.999 152.88 325.809 161.078 321.719C169.276 317.629 177.538 313.648 185.973 309.976C187.246 309.413 188.682 309.34 190.005 309.772C191.328 310.203 192.445 311.108 193.142 312.313C193.838 313.518 194.065 314.938 193.779 316.3C193.492 317.662 192.713 318.87 191.59 319.692L191.626 319.674Z" fill="#B19FFD"/>
<path opacity="0.1" d="M191.626 319.674C184.228 325.127 176.638 330.308 169.013 335.371C161.387 340.433 153.661 345.369 145.899 350.213C138.137 355.057 130.302 359.802 122.44 364.41C118.514 366.755 114.551 369.027 110.624 371.336C108.674 372.578 106.547 373.518 104.317 374.126C103.126 374.442 101.909 374.646 100.681 374.735C99.3174 374.847 97.9451 374.776 96.6 374.526C95.6388 374.336 94.7244 373.958 93.9094 373.414C93.0943 372.87 92.3945 372.171 91.8499 371.356C91.3054 370.542 90.9269 369.628 90.736 368.667C90.5451 367.706 90.5457 366.716 90.7376 365.755C90.7998 365.446 90.8849 365.143 90.9921 364.846C91.4308 363.558 92.0423 362.335 92.8099 361.211C93.4946 360.2 94.2737 359.257 95.1367 358.393C96.7805 356.766 98.6584 355.393 100.708 354.321C104.68 352.058 108.625 349.777 112.624 347.532C120.586 343.033 128.621 338.652 136.674 334.325C144.727 329.999 152.88 325.809 161.078 321.719C169.276 317.629 177.538 313.648 185.973 309.976C187.246 309.413 188.682 309.34 190.005 309.772C191.328 310.203 192.445 311.108 193.142 312.313C193.838 313.518 194.065 314.938 193.779 316.3C193.492 317.662 192.713 318.87 191.59 319.692L191.626 319.674Z" fill="#00273E"/>
<path d="M112.269 304.895C111.815 305.631 111.297 306.522 110.806 307.358C110.315 308.194 109.834 309.067 109.379 309.948C108.47 311.684 107.561 313.448 106.652 315.238C105.743 317.029 105.007 318.874 104.262 320.692C103.898 321.6 103.517 322.509 103.18 323.418L102.671 324.809C102.571 325.072 102.553 325.182 102.49 325.372C102.426 325.563 102.399 325.745 102.344 325.927C101.989 327.723 101.81 329.549 101.808 331.38C101.762 333.334 101.808 335.325 101.917 337.334C102.026 339.342 102.135 341.36 102.317 343.378C102.499 345.396 102.68 347.45 102.871 349.449L99.3629 350.167C98.7449 348.141 98.2632 346.123 97.7814 344.078C97.2997 342.033 96.9362 339.979 96.5817 337.888C96.2272 335.798 95.9909 333.698 95.8364 331.526C95.6473 329.251 95.7052 326.962 96.0091 324.7C96.0636 324.382 96.1091 324.082 96.1909 323.791C96.2727 323.5 96.3545 323.091 96.4272 322.882L96.8725 321.337C97.1634 320.31 97.4997 319.292 97.8451 318.283C98.5449 316.256 99.3084 314.266 100.163 312.302C101.017 310.339 101.926 308.421 102.89 306.531C103.389 305.622 103.917 304.649 104.453 303.713C104.989 302.777 105.525 301.895 106.198 300.905L112.269 304.895Z" fill="#FFBE9D"/>
<path d="M108.388 492.566C107.775 492.547 107.166 492.462 106.571 492.312C106.539 492.307 106.509 492.291 106.486 492.269C106.464 492.246 106.449 492.216 106.443 492.185C106.438 492.152 106.441 492.118 106.454 492.087C106.467 492.057 106.489 492.031 106.516 492.012C106.761 491.848 108.906 490.467 109.734 490.839C109.825 490.882 109.904 490.948 109.962 491.031C110.02 491.114 110.054 491.211 110.061 491.312C110.103 491.474 110.101 491.644 110.052 491.805C110.004 491.965 109.913 492.109 109.788 492.221C109.379 492.501 108.881 492.624 108.388 492.566ZM106.998 492.075C108.234 492.321 109.161 492.275 109.515 491.948C109.593 491.873 109.65 491.779 109.681 491.676C109.711 491.572 109.713 491.462 109.688 491.357C109.687 491.311 109.673 491.266 109.647 491.227C109.621 491.189 109.585 491.158 109.543 491.139C109.115 490.948 107.87 491.548 106.998 492.075Z" fill="#B19FFD"/>
<path d="M106.562 492.321C106.535 492.328 106.506 492.328 106.48 492.321C106.454 492.307 106.432 492.286 106.418 492.26C106.403 492.234 106.396 492.205 106.398 492.175C106.398 492.093 106.398 490.057 107.171 489.376C107.266 489.29 107.378 489.225 107.501 489.186C107.623 489.147 107.752 489.134 107.879 489.148C108.013 489.15 108.143 489.198 108.245 489.284C108.348 489.371 108.418 489.49 108.443 489.621C108.607 490.412 107.316 491.939 106.625 492.348C106.602 492.344 106.58 492.335 106.562 492.321ZM107.77 489.448C107.633 489.45 107.5 489.501 107.398 489.594C106.951 490.252 106.722 491.034 106.743 491.83C107.416 491.284 108.216 490.139 108.116 489.657C108.116 489.576 108.052 489.485 107.843 489.458L107.77 489.448Z" fill="#B19FFD"/>
<path d="M140.582 492.566C139.833 492.555 139.087 492.469 138.355 492.312C138.32 492.308 138.288 492.292 138.263 492.267C138.238 492.242 138.223 492.21 138.219 492.175C138.215 492.141 138.221 492.106 138.237 492.075C138.254 492.044 138.279 492.019 138.31 492.002C138.628 491.839 141.445 490.403 142.309 490.875C142.392 490.918 142.462 490.981 142.513 491.06C142.564 491.138 142.594 491.228 142.6 491.321C142.619 491.471 142.602 491.623 142.548 491.764C142.494 491.906 142.405 492.031 142.291 492.13C141.788 492.467 141.185 492.621 140.582 492.566ZM138.909 492.075C140.482 492.339 141.636 492.266 142.072 491.884C142.145 491.817 142.2 491.733 142.233 491.639C142.267 491.546 142.277 491.446 142.263 491.348C142.263 491.311 142.253 491.274 142.234 491.242C142.214 491.21 142.187 491.184 142.154 491.166C141.682 490.912 140.064 491.521 138.909 492.075Z" fill="#B19FFD"/>
<path d="M138.382 492.321C138.368 492.327 138.352 492.33 138.337 492.33C138.321 492.33 138.305 492.327 138.291 492.321C138.265 492.307 138.244 492.286 138.231 492.26C138.218 492.234 138.213 492.204 138.218 492.175C138.218 492.093 138.391 490.185 139.273 489.448C139.526 489.236 139.852 489.132 140.182 489.158C140.645 489.203 140.772 489.439 140.809 489.63C140.936 490.43 139.273 491.957 138.427 492.357L138.382 492.321ZM140.073 489.448C139.859 489.451 139.653 489.528 139.491 489.667C138.97 490.282 138.652 491.044 138.582 491.848C139.436 491.33 140.572 490.13 140.491 489.648C140.491 489.648 140.491 489.485 140.163 489.458L140.073 489.448Z" fill="#B19FFD"/>
<path d="M123.03 277.6C123.585 281.845 124.848 290.452 121.776 293.052C121.776 293.052 122.685 297.378 130.429 297.878C138.991 298.433 134.792 293.897 134.792 293.897C130.193 292.479 130.538 289.016 131.565 285.817L123.03 277.6Z" fill="#FFBE9D"/>
<path d="M138.91 268.975C138.855 268.974 138.802 268.958 138.755 268.929C138.716 268.909 138.681 268.882 138.652 268.847C138.624 268.813 138.602 268.774 138.59 268.731C138.577 268.689 138.573 268.644 138.578 268.6C138.583 268.556 138.597 268.514 138.619 268.475C138.855 267.994 139.204 267.578 139.636 267.261C140.068 266.945 140.571 266.737 141.1 266.657C141.182 266.66 141.259 266.693 141.318 266.749C141.378 266.805 141.414 266.88 141.422 266.961C141.43 267.042 141.408 267.123 141.361 267.189C141.313 267.255 141.243 267.302 141.164 267.321C140.75 267.393 140.358 267.56 140.019 267.81C139.68 268.059 139.403 268.383 139.21 268.757C139.184 268.817 139.143 268.869 139.09 268.907C139.037 268.945 138.975 268.969 138.91 268.975Z" fill="#00273E"/>
<path d="M141.354 272.701C141.98 273.95 142.776 275.106 143.717 276.137C143.447 276.372 143.129 276.545 142.786 276.644C142.442 276.743 142.08 276.765 141.727 276.71L141.354 272.701Z" fill="#B78876"/>
<path d="M140.755 271.774C140.809 272.347 141.155 272.774 141.518 272.738C141.882 272.701 142.154 272.22 142.1 271.647C142.045 271.075 141.7 270.647 141.327 270.684C140.955 270.72 140.7 271.211 140.755 271.774Z" fill="#00273E"/>
<path d="M141.209 270.729L142.536 270.211C142.536 270.211 141.9 271.338 141.209 270.729Z" fill="#00273E"/>
<path d="M130.602 492.148H137.682L138.155 475.769H131.074L130.602 492.148Z" fill="#FFBE9D"/>
<path d="M98.4539 492.148H105.534L107.807 475.769H100.735L98.4539 492.148Z" fill="#FFBE9D"/>
<path d="M105.971 491.33H98.0179C97.8816 491.329 97.7494 491.377 97.6458 491.465C97.5422 491.554 97.4742 491.677 97.4544 491.812L96.5455 498.101C96.5276 498.26 96.5434 498.421 96.5918 498.573C96.6403 498.725 96.7203 498.866 96.8267 498.985C96.933 499.104 97.0633 499.2 97.2091 499.265C97.3548 499.33 97.5127 499.364 97.6725 499.365C100.399 499.319 101.781 499.156 105.28 499.156C107.425 499.156 110.57 499.374 113.542 499.374C116.514 499.374 116.669 496.438 115.433 496.174C109.888 494.984 109.016 493.339 107.143 491.766C106.816 491.487 106.401 491.332 105.971 491.33Z" fill="#00273E"/>
<path d="M137.919 491.33H129.975C129.838 491.326 129.705 491.374 129.601 491.463C129.497 491.552 129.429 491.676 129.411 491.812L128.502 498.101C128.486 498.26 128.503 498.421 128.553 498.574C128.602 498.726 128.683 498.866 128.79 498.985C128.897 499.104 129.028 499.199 129.174 499.265C129.32 499.33 129.478 499.364 129.639 499.365C132.365 499.319 133.747 499.156 137.237 499.156C139.391 499.156 143.836 499.374 146.808 499.374C149.78 499.374 149.934 496.438 148.698 496.174C143.154 494.984 140.973 493.339 139.1 491.766C138.771 491.485 138.352 491.33 137.919 491.33Z" fill="#00273E"/>
<path d="M138.146 475.769L137.909 484.213H130.829L131.075 475.769H138.146Z" fill="#B78876"/>
<path d="M100.726 475.769H107.807L106.634 484.213H99.5537L100.726 475.769Z" fill="#B78876"/>
<path d="M115.287 305.986C113.943 308.085 112.386 310.04 110.642 311.821L109.833 311.285L100.871 305.331C100.871 305.331 105.761 294.424 109.442 293.87C112.96 293.306 115.523 296.942 116.714 300.832C117.168 302.241 116.414 304.15 115.287 305.986Z" fill="#B19FFD"/>
<path opacity="0.6" d="M115.287 305.986C113.943 308.085 112.386 310.04 110.642 311.821L109.833 311.285L100.871 305.331C100.871 305.331 105.761 294.424 109.442 293.87C112.96 293.306 115.523 296.942 116.714 300.832C117.168 302.241 116.414 304.15 115.287 305.986Z" fill="#FDFFFE"/>
<path d="M115.287 305.986C113.944 308.085 112.387 310.04 110.643 311.821L109.834 311.284C110.234 308.012 111.506 304.768 112.961 303.741C113.851 303.831 114.642 304.777 115.287 305.986Z" fill="#B19FFD"/>
<path opacity="0.4" d="M115.287 305.986C113.944 308.085 112.387 310.04 110.643 311.821L109.834 311.284C110.234 308.012 111.506 304.768 112.961 303.741C113.851 303.831 114.642 304.777 115.287 305.986Z" fill="#FDFFFE"/>
<path d="M145.944 311.43C145.517 314.157 144.962 317.365 144.217 321.174C143.308 326.045 142.036 331.89 140.427 338.879L111.751 337.061C112.987 325.418 113.469 318.22 109.442 293.906C113.513 293.338 117.62 293.067 121.731 293.097C126.084 293.069 130.433 293.351 134.746 293.943C140.309 294.852 146.562 296.524 146.562 296.524C146.562 296.524 148.162 297.151 145.944 311.43Z" fill="#B19FFD"/>
<path opacity="0.6" d="M145.944 311.43C145.517 314.157 144.962 317.365 144.217 321.174C143.308 326.045 142.036 331.89 140.427 338.879L111.751 337.061C112.987 325.418 113.469 318.22 109.442 293.906C113.513 293.338 117.62 293.067 121.731 293.097C126.084 293.069 130.433 293.351 134.746 293.943C140.309 294.852 146.562 296.524 146.562 296.524C146.562 296.524 148.162 297.151 145.944 311.43Z" fill="#FDFFFE"/>
<path d="M145.944 311.43C145.517 314.157 144.963 317.365 144.217 321.173C142.64 317.819 141.33 314.345 140.3 310.785H145.626L145.944 311.43Z" fill="#B19FFD"/>
<path opacity="0.4" d="M145.944 311.43C145.517 314.157 144.963 317.365 144.217 321.173C142.64 317.819 141.33 314.345 140.3 310.785H145.626L145.944 311.43Z" fill="#FDFFFE"/>
<path d="M121.468 271.629C122.549 278.564 122.867 281.527 126.73 284.772C132.538 289.662 140.818 286.808 141.827 279.682C142.736 273.274 140.809 263.003 133.711 260.877C132.149 260.397 130.491 260.326 128.894 260.669C127.297 261.012 125.815 261.757 124.588 262.835C123.361 263.913 122.43 265.287 121.883 266.826C121.337 268.365 121.194 270.019 121.468 271.629Z" fill="#FFBE9D"/>
<path d="M132.847 338.388C132.847 338.388 132.392 351.013 131.302 366.937C130.393 380.298 129.02 395.967 127.102 408.456L127.048 408.801C123.603 430.906 108.343 482.568 108.343 482.568H98.6899C98.6899 482.568 106.643 432.669 108.388 410.764C112.814 355.439 101.726 349.177 111.751 336.979L132.847 338.388Z" fill="#B19FFD"/>
<path opacity="0.3" d="M132.847 338.388C132.847 338.388 132.392 351.013 131.302 366.937C130.393 380.298 129.02 395.967 127.102 408.456L127.048 408.801C123.603 430.906 108.343 482.568 108.343 482.568H98.6899C98.6899 482.568 106.643 432.669 108.388 410.764C112.814 355.439 101.726 349.177 111.751 336.979L132.847 338.388Z" fill="#00273E"/>
<path d="M131.302 366.937C130.393 380.298 129.02 395.967 127.103 408.456C123.84 392.232 118.477 368.537 125.676 353.012C127.393 357.421 129.393 362.401 131.302 366.937Z" fill="#B19FFD"/>
<path opacity="0.4" d="M131.302 366.937C130.393 380.298 129.02 395.967 127.103 408.456C123.84 392.232 118.477 368.537 125.676 353.012C127.393 357.421 129.393 362.401 131.302 366.937Z" fill="#00273E"/>
<path d="M140.427 338.888C140.427 338.888 148.608 387.369 148.117 408.947C147.635 431.397 139.409 482.568 139.409 482.568H129.848C129.848 482.568 131.357 432.696 130.511 410.655C129.602 386.624 119.423 337.516 119.423 337.516L140.427 338.888Z" fill="#B19FFD"/>
<path opacity="0.3" d="M140.427 338.888C140.427 338.888 148.608 387.369 148.117 408.947C147.635 431.397 139.409 482.568 139.409 482.568H129.848C129.848 482.568 131.357 432.696 130.511 410.655C129.602 386.624 119.423 337.516 119.423 337.516L140.427 338.888Z" fill="#00273E"/>
<path d="M128.212 483.023H141.036L142.036 478.724L127.757 478.824L128.212 483.023Z" fill="#00273E"/>
<path d="M97.2905 483.023H110.115L111.115 478.724L97.3814 478.824L97.2905 483.023Z" fill="#00273E"/>
<path d="M111.424 335.325L109.97 337.816C109.852 338.006 110.079 338.225 110.406 338.243L140.482 340.197C140.736 340.197 140.963 340.106 140.991 339.942L141.418 337.388C141.418 337.216 141.227 337.052 140.945 337.034L111.86 335.143C111.779 335.14 111.697 335.154 111.622 335.185C111.546 335.217 111.479 335.265 111.424 335.325Z" fill="#00273E"/>
<path d="M115.114 338.815L114.341 338.761C114.187 338.761 114.069 338.661 114.087 338.57L114.669 335.252C114.669 335.162 114.823 335.089 114.978 335.098L115.759 335.143C115.914 335.143 116.023 335.243 116.014 335.343L115.432 338.652C115.414 338.752 115.268 338.824 115.114 338.815Z" fill="#B19FFD"/>
<path opacity="0.3" d="M115.114 338.815L114.341 338.761C114.187 338.761 114.069 338.661 114.087 338.57L114.669 335.252C114.669 335.162 114.823 335.089 114.978 335.098L115.759 335.143C115.914 335.143 116.023 335.243 116.014 335.343L115.432 338.652C115.414 338.752 115.268 338.824 115.114 338.815Z" fill="#00273E"/>
<path d="M133.938 340.033L133.165 339.988C133.011 339.988 132.893 339.888 132.911 339.788L133.492 336.479C133.492 336.379 133.647 336.316 133.811 336.325L134.583 336.37C134.738 336.37 134.856 336.47 134.838 336.57L134.256 339.879C134.265 339.979 134.12 340.042 133.938 340.033Z" fill="#B19FFD"/>
<path opacity="0.3" d="M133.938 340.033L133.165 339.988C133.011 339.988 132.893 339.888 132.911 339.788L133.492 336.479C133.492 336.379 133.647 336.316 133.811 336.325L134.583 336.37C134.738 336.37 134.856 336.47 134.838 336.57L134.256 339.879C134.265 339.979 134.12 340.042 133.938 340.033Z" fill="#00273E"/>
<path d="M148.19 303.795C149.28 307.431 150.316 311.112 151.325 314.784L154.37 325.773L154.752 327.136L154.852 327.472L154.897 327.645V327.736C154.93 327.856 154.969 327.975 155.016 328.09C155.239 328.643 155.545 329.158 155.924 329.617C157.01 330.763 158.267 331.732 159.651 332.489C162.822 334.205 166.175 335.559 169.649 336.525L169.122 340.07C165.046 339.86 161.031 338.991 157.233 337.498C155.132 336.674 153.195 335.479 151.516 333.971C150.554 333.079 149.755 332.028 149.153 330.863C148.991 330.548 148.848 330.223 148.726 329.89L148.626 329.645L148.562 329.472L148.444 329.136L147.962 327.763C146.69 324.128 145.508 320.492 144.39 316.802C143.272 313.112 142.173 309.476 141.173 305.768L148.19 303.795Z" fill="#FFBE9D"/>
<path d="M146.563 296.488C150.198 297.678 154.016 309.567 154.016 309.567L140.891 315.22C140.891 315.22 135.438 301.877 137.856 298.86C140.273 295.842 142.391 295.124 146.563 296.488Z" fill="#B19FFD"/>
<path opacity="0.6" d="M146.563 296.488C150.198 297.678 154.016 309.567 154.016 309.567L140.891 315.22C140.891 315.22 135.438 301.877 137.856 298.86C140.273 295.842 142.391 295.124 146.563 296.488Z" fill="#FDFFFE"/>
<path d="M139.546 260.477C137.228 257.614 119.323 255.569 118.368 263.367C112.006 267.821 118.041 279.327 118.95 282.254C114.56 283.472 100.417 288.307 110.77 297.706C121.122 307.104 136.646 305.504 139.682 295.779C141.809 288.98 135.056 277.601 135.201 273.62C135.347 269.639 143.518 265.339 139.546 260.477Z" fill="#00273E"/>
<path d="M120.204 283.69C120.171 283.691 120.138 283.684 120.108 283.67C120.078 283.656 120.052 283.635 120.031 283.608C118.386 281.609 112.66 271.102 114.669 266.103C114.98 265.327 115.508 264.657 116.19 264.174C116.872 263.69 117.678 263.413 118.513 263.376C118.543 263.372 118.573 263.374 118.601 263.382C118.63 263.391 118.656 263.404 118.679 263.423C118.702 263.442 118.721 263.465 118.735 263.491C118.748 263.518 118.757 263.546 118.759 263.576C118.767 263.635 118.751 263.694 118.715 263.742C118.68 263.79 118.627 263.821 118.568 263.83C117.817 263.858 117.09 264.101 116.473 264.529C115.856 264.958 115.375 265.554 115.087 266.248C113.151 271.083 118.768 281.345 120.377 283.308C120.405 283.34 120.424 283.38 120.43 283.423C120.436 283.465 120.43 283.509 120.411 283.547C120.393 283.586 120.363 283.619 120.326 283.641C120.29 283.663 120.247 283.674 120.204 283.672V283.69Z" fill="#00273E"/>
<path d="M133.784 273.192C133.987 274.52 134.626 275.741 135.602 276.664C136.892 277.9 138.11 277.055 138.228 275.483C138.337 274.074 137.792 271.738 136.265 271.084C134.738 270.429 133.593 271.62 133.784 273.192Z" fill="#FFBE9D"/>
<path d="M165.195 335.543L170.358 333.789L169.549 339.997C169.549 339.997 167.513 340.906 164.877 338.615L162.36 337.007L164.341 335.925C164.613 335.77 164.899 335.642 165.195 335.543Z" fill="#FFBE9D"/>
<path d="M173.966 333.771L172.384 339.197L169.548 339.988L170.357 333.789L173.966 333.771Z" fill="#FFBE9D"/>
<path d="M122.746 576.474L116.914 589.974L111.163 576.474H106.438L114.592 595.374H118.912L127.093 576.474H122.746ZM134.205 595.59C138.822 595.59 142.17 592.485 142.17 588.111C142.17 583.737 138.822 580.632 134.205 580.632C129.588 580.632 126.213 583.737 126.213 588.111C126.213 592.485 129.588 595.59 134.205 595.59ZM134.205 592.134C132.099 592.134 130.479 590.622 130.479 588.111C130.479 585.6 132.099 584.088 134.205 584.088C136.311 584.088 137.904 585.6 137.904 588.111C137.904 590.622 136.311 592.134 134.205 592.134ZM144.986 595.374H149.198V575.34H144.986V595.374ZM163.475 580.848L159.317 590.73L155.294 580.848H150.947L157.049 595.374H161.396L167.525 580.848H163.475ZM183.077 588.165C183.077 583.494 179.783 580.632 175.517 580.632C171.089 580.632 167.768 583.764 167.768 588.111C167.768 592.431 171.035 595.59 176.057 595.59C178.676 595.59 180.701 594.78 182.051 593.241L179.81 590.811C178.811 591.756 177.704 592.215 176.165 592.215C173.951 592.215 172.412 591.108 172.007 589.299H182.996C183.023 588.948 183.077 588.489 183.077 588.165ZM175.544 583.818C177.434 583.818 178.811 585.006 179.108 586.842H171.953C172.25 584.979 173.627 583.818 175.544 583.818ZM189.904 582.765V580.848H185.881V595.374H190.093V588.516C190.093 585.735 191.632 584.466 193.954 584.466C194.278 584.466 194.548 584.493 194.899 584.52V580.632C192.658 580.632 190.93 581.361 189.904 582.765ZM211.014 580.632C208.692 580.632 206.343 581.253 204.75 582.387L206.262 585.33C207.315 584.493 208.908 583.98 210.447 583.98C212.715 583.98 213.795 585.033 213.795 586.842H210.447C206.019 586.842 204.21 588.624 204.21 591.189C204.21 593.7 206.235 595.59 209.637 595.59C211.77 595.59 213.282 594.888 214.065 593.565V595.374H218.007V587.085C218.007 582.684 215.442 580.632 211.014 580.632ZM210.69 592.755C209.205 592.755 208.314 592.053 208.314 591C208.314 590.028 208.935 589.299 210.906 589.299H213.795V590.784C213.309 592.107 212.094 592.755 210.69 592.755ZM221.819 595.374H226.031V575.34H221.819V595.374ZM239.693 578.823C241.259 578.823 242.312 577.797 242.312 576.393C242.312 575.097 241.259 574.125 239.693 574.125C238.127 574.125 237.074 575.151 237.074 576.474C237.074 577.797 238.127 578.823 239.693 578.823ZM237.587 595.374H241.799V580.848H237.587V595.374ZM254.537 580.632C252.566 580.632 250.865 581.307 249.731 582.549V580.848H245.708V595.374H249.92V588.192C249.92 585.519 251.378 584.277 253.403 584.277C255.266 584.277 256.346 585.357 256.346 587.706V595.374H260.558V587.058C260.558 582.63 257.966 580.632 254.537 580.632ZM266.482 578.823C268.048 578.823 269.101 577.797 269.101 576.393C269.101 575.097 268.048 574.125 266.482 574.125C264.916 574.125 263.863 575.151 263.863 576.474C263.863 577.797 264.916 578.823 266.482 578.823ZM264.376 595.374H268.588V580.848H264.376V595.374ZM279.517 595.59C282.568 595.59 284.971 594.24 286.024 591.918L282.757 590.136C281.974 591.54 280.813 592.134 279.49 592.134C277.357 592.134 275.683 590.649 275.683 588.111C275.683 585.573 277.357 584.088 279.49 584.088C280.813 584.088 281.974 584.709 282.757 586.086L286.024 584.331C284.971 581.955 282.568 580.632 279.517 580.632C274.792 580.632 271.417 583.737 271.417 588.111C271.417 592.485 274.792 595.59 279.517 595.59ZM290.555 578.823C292.121 578.823 293.174 577.797 293.174 576.393C293.174 575.097 292.121 574.125 290.555 574.125C288.989 574.125 287.936 575.151 287.936 576.474C287.936 577.797 288.989 578.823 290.555 578.823ZM288.449 595.374H292.661V580.848H288.449V595.374ZM303.482 595.59C308.099 595.59 311.447 592.485 311.447 588.111C311.447 583.737 308.099 580.632 303.482 580.632C298.865 580.632 295.49 583.737 295.49 588.111C295.49 592.485 298.865 595.59 303.482 595.59ZM303.482 592.134C301.376 592.134 299.756 590.622 299.756 588.111C299.756 585.6 301.376 584.088 303.482 584.088C305.588 584.088 307.181 585.6 307.181 588.111C307.181 590.622 305.588 592.134 303.482 592.134Z" fill="#6640FC"/>
</svg>
