<svg width="315" height="310" viewBox="0 0 315 310" fill="none" xmlns="http://www.w3.org/2000/svg">
<path d="M106.069 45.5998C106.073 43.9069 105.936 42.2166 105.66 40.5463C104.442 33.1637 100.661 26.4467 94.9806 21.5761C89.3004 16.7055 82.0852 13.993 74.6031 13.9153H74.3304C69.3108 13.9184 64.3639 15.115 59.8978 17.4065C55.4318 19.698 51.5746 23.0187 48.6447 27.0945C48.163 27.758 47.7358 28.4397 47.2995 29.1214C47.264 29.1664 47.2335 29.2151 47.2087 29.2668C44.225 34.2015 42.653 39.8605 42.6641 45.6271V45.6907C42.6828 52.3929 44.8251 58.9167 48.7833 64.3252C52.7415 69.7337 58.3119 73.7487 64.6946 75.7934C71.0772 77.8382 77.9437 77.8075 84.3079 75.7059C90.672 73.6042 96.2064 69.5397 100.116 64.0961C100.589 63.4326 101.025 62.76 101.452 62.0692C101.488 62.0242 101.518 61.9755 101.543 61.9238C104.523 57.0017 106.089 51.3537 106.069 45.5998V45.5998ZM44.0184 44.8818C44.1234 39.6923 45.5735 34.6188 48.2266 30.1575H58.1428C56.6275 34.9206 55.834 39.8837 55.7887 44.8818H44.0184ZM59.5334 30.1575H73.676V44.8818H57.1521C57.1822 39.8803 57.9855 34.9135 59.5334 30.1575V30.1575ZM75.0394 28.7942V15.2333C77.0052 15.4115 78.8878 16.1112 80.4928 17.2601C83.8649 19.5687 86.6916 23.6225 88.673 28.7942H75.0394ZM89.1638 30.1575C90.2882 33.5623 91.0201 37.0845 91.3452 40.6554C91.4815 42.0733 91.5451 43.4821 91.5633 44.8818H75.0394V30.1575H89.1638ZM71.6764 15.615C72.3289 15.4296 72.9992 15.3138 73.676 15.2696V28.8214H60.0424C62.5874 21.9683 66.7138 16.9875 71.6764 15.5877V15.615ZM73.676 46.2724V60.9967H59.5607C58.4361 57.5835 57.7102 54.0517 57.3975 50.4716C57.2703 49.0537 57.1975 47.6449 57.1794 46.2452L73.676 46.2724ZM73.676 62.3601V75.921C71.7105 75.7415 69.8282 75.0419 68.2226 73.8941C64.8596 71.5855 62.0329 67.5318 60.0424 62.3601H73.676ZM77.039 75.5665C76.3867 75.7527 75.7163 75.8685 75.0394 75.9119V62.3328H88.673C86.1281 69.1587 82.0016 74.1486 77.039 75.5392V75.5665ZM75.0394 61.024V46.2543H91.5633C91.5376 51.2561 90.7343 56.2236 89.182 60.9786L75.0394 61.024ZM92.9267 46.2543H104.742C104.632 51.4431 103.183 56.5153 100.534 60.9786H90.5726C92.0879 56.2155 92.8814 51.2524 92.9267 46.2543V46.2543ZM104.742 44.8909H92.9267C92.9267 43.4548 92.8358 42.0006 92.6995 40.5372C92.3892 37.0143 91.6912 33.5364 90.6181 30.1666H100.516C102.429 33.4143 103.72 36.9896 104.324 40.7099C104.541 42.0909 104.668 43.4844 104.706 44.8818L104.742 44.8909ZM92.1359 20.9594C95.1067 23.0993 97.6682 25.7562 99.698 28.8032H90.1182C88.0822 23.1771 85.0192 18.7235 81.2654 16.1422L80.9746 15.9513C84.9826 16.8488 88.7671 18.5494 92.0996 20.9503L92.1359 20.9594ZM67.7136 15.9695C63.8871 18.4871 60.7423 23.068 58.6245 28.8032H49.081L49.7445 27.8307C54.0608 21.8053 60.4444 17.5798 67.6772 15.9604L67.7136 15.9695ZM44.082 46.2543H55.8524C55.8524 47.6903 55.9433 49.1446 56.0796 50.6079C56.3942 54.1302 57.0922 57.6076 58.161 60.9786H48.2085C46.2918 57.7327 45.0001 54.1566 44.4001 50.4352C44.1739 49.0524 44.0463 47.6552 44.0184 46.2543H44.082ZM49.1174 62.3419H58.6245C60.6605 67.968 63.7235 72.4217 67.4773 75.003L67.7772 75.1939C60.1402 73.4593 53.4606 68.8588 49.1174 62.3419V62.3419ZM81.0291 75.1666C84.8465 72.658 87.9913 68.068 90.1182 62.3328H99.6435C99.4254 62.66 99.2072 62.9872 98.98 63.3054C94.6601 69.3336 88.2686 73.5568 81.0291 75.1666Z" fill="#B19FFD"/>
<path opacity="0.8" d="M106.069 45.5998C106.073 43.9069 105.936 42.2166 105.66 40.5463C104.442 33.1637 100.661 26.4467 94.9806 21.5761C89.3004 16.7055 82.0852 13.993 74.6031 13.9153H74.3304C69.3108 13.9184 64.3639 15.115 59.8978 17.4065C55.4318 19.698 51.5746 23.0187 48.6447 27.0945C48.163 27.758 47.7358 28.4397 47.2995 29.1214C47.264 29.1664 47.2335 29.2151 47.2087 29.2668C44.225 34.2015 42.653 39.8605 42.6641 45.6271V45.6907C42.6828 52.3929 44.8251 58.9167 48.7833 64.3252C52.7415 69.7337 58.3119 73.7487 64.6946 75.7934C71.0772 77.8382 77.9437 77.8075 84.3079 75.7059C90.672 73.6042 96.2064 69.5397 100.116 64.0961C100.589 63.4326 101.025 62.76 101.452 62.0692C101.488 62.0242 101.518 61.9755 101.543 61.9238C104.523 57.0017 106.089 51.3537 106.069 45.5998V45.5998ZM44.0184 44.8818C44.1234 39.6923 45.5735 34.6188 48.2266 30.1575H58.1428C56.6275 34.9206 55.834 39.8837 55.7887 44.8818H44.0184ZM59.5334 30.1575H73.676V44.8818H57.1521C57.1822 39.8803 57.9855 34.9135 59.5334 30.1575V30.1575ZM75.0394 28.7942V15.2333C77.0052 15.4115 78.8878 16.1112 80.4928 17.2601C83.8649 19.5687 86.6916 23.6225 88.673 28.7942H75.0394ZM89.1638 30.1575C90.2882 33.5623 91.0201 37.0845 91.3452 40.6554C91.4815 42.0733 91.5451 43.4821 91.5633 44.8818H75.0394V30.1575H89.1638ZM71.6764 15.615C72.3289 15.4296 72.9992 15.3138 73.676 15.2696V28.8214H60.0424C62.5874 21.9683 66.7138 16.9875 71.6764 15.5877V15.615ZM73.676 46.2724V60.9967H59.5607C58.4361 57.5835 57.7102 54.0517 57.3975 50.4716C57.2703 49.0537 57.1975 47.6449 57.1794 46.2452L73.676 46.2724ZM73.676 62.3601V75.921C71.7105 75.7415 69.8282 75.0419 68.2226 73.8941C64.8596 71.5855 62.0329 67.5318 60.0424 62.3601H73.676ZM77.039 75.5665C76.3867 75.7527 75.7163 75.8685 75.0394 75.9119V62.3328H88.673C86.1281 69.1587 82.0016 74.1486 77.039 75.5392V75.5665ZM75.0394 61.024V46.2543H91.5633C91.5376 51.2561 90.7343 56.2236 89.182 60.9786L75.0394 61.024ZM92.9267 46.2543H104.742C104.632 51.4431 103.183 56.5153 100.534 60.9786H90.5726C92.0879 56.2155 92.8814 51.2524 92.9267 46.2543V46.2543ZM104.742 44.8909H92.9267C92.9267 43.4548 92.8358 42.0006 92.6995 40.5372C92.3892 37.0143 91.6912 33.5364 90.6181 30.1666H100.516C102.429 33.4143 103.72 36.9896 104.324 40.7099C104.541 42.0909 104.668 43.4844 104.706 44.8818L104.742 44.8909ZM92.1359 20.9594C95.1067 23.0993 97.6682 25.7562 99.698 28.8032H90.1182C88.0822 23.1771 85.0192 18.7235 81.2654 16.1422L80.9746 15.9513C84.9826 16.8488 88.7671 18.5494 92.0996 20.9503L92.1359 20.9594ZM67.7136 15.9695C63.8871 18.4871 60.7423 23.068 58.6245 28.8032H49.081L49.7445 27.8307C54.0608 21.8053 60.4444 17.5798 67.6772 15.9604L67.7136 15.9695ZM44.082 46.2543H55.8524C55.8524 47.6903 55.9433 49.1446 56.0796 50.6079C56.3942 54.1302 57.0922 57.6076 58.161 60.9786H48.2085C46.2918 57.7327 45.0001 54.1566 44.4001 50.4352C44.1739 49.0524 44.0463 47.6552 44.0184 46.2543H44.082ZM49.1174 62.3419H58.6245C60.6605 67.968 63.7235 72.4217 67.4773 75.003L67.7772 75.1939C60.1402 73.4593 53.4606 68.8588 49.1174 62.3419V62.3419ZM81.0291 75.1666C84.8465 72.658 87.9913 68.068 90.1182 62.3328H99.6435C99.4254 62.66 99.2072 62.9872 98.98 63.3054C94.6601 69.3336 88.2686 73.5568 81.0291 75.1666Z" fill="#FDFFFE"/>
<path d="M313.064 60.7058H27.3037V129.946H313.064V60.7058Z" fill="#B19FFD"/>
<path opacity="0.6" d="M313.064 60.7058H27.3037V129.946H313.064V60.7058Z" fill="#FDFFFE"/>
<path d="M306.62 67.1499H20.8599V136.39H306.62V67.1499Z" fill="#B19FFD"/>
<path opacity="0.3" d="M306.62 67.1499H20.8599V136.39H306.62V67.1499Z" fill="#00273E"/>
<path d="M300.175 73.5941H14.415V142.835H300.175V73.5941Z" fill="#B19FFD"/>
<path opacity="0.1" d="M300.175 73.5941H14.415V142.835H300.175V73.5941Z" fill="#FDFFFE"/>
<path d="M286.542 129.201V87.2277L28.0488 87.2277V129.201H286.542Z" fill="#B19FFD"/>
<path opacity="0.9" d="M286.542 129.201V87.2277L28.0488 87.2277V129.201H286.542Z" fill="#FDFFFE"/>
<path d="M243.06 87.2277V129.201H244.578V87.2277H243.06Z" fill="#B19FFD"/>
<path opacity="0.6" d="M243.06 87.2277V129.201H244.578V87.2277H243.06Z" fill="#FDFFFE"/>
<path d="M34.4932 93.0175V123.411H36.011V93.0175H34.4932Z" fill="#B19FFD"/>
<path opacity="0.6" d="M34.4932 93.0175V123.411H36.011V93.0175H34.4932Z" fill="#FDFFFE"/>
<path d="M264.11 113.514C263.007 113.513 261.921 113.241 260.949 112.72C259.976 112.2 259.147 111.448 258.535 110.531C257.922 109.614 257.545 108.56 257.437 107.462C257.329 106.365 257.494 105.257 257.916 104.238C258.338 103.22 259.005 102.32 259.857 101.621C260.71 100.921 261.722 100.442 262.803 100.227C263.885 100.012 265.003 100.067 266.059 100.387C267.114 100.706 268.074 101.282 268.854 102.061V102.061C269.793 102.999 270.432 104.195 270.691 105.496C270.951 106.798 270.818 108.147 270.31 109.373C269.802 110.599 268.942 111.647 267.838 112.384C266.734 113.121 265.437 113.514 264.11 113.514V113.514ZM264.11 101.925C262.978 101.925 261.882 102.318 261.008 103.036C260.133 103.755 259.535 104.754 259.315 105.864C259.095 106.974 259.266 108.126 259.801 109.123C260.335 110.121 261.198 110.902 262.244 111.334C263.29 111.766 264.453 111.822 265.536 111.493C266.618 111.163 267.553 110.468 268.18 109.527C268.808 108.585 269.09 107.455 268.977 106.329C268.865 105.203 268.365 104.151 267.564 103.352V103.352C267.115 102.889 266.578 102.52 265.985 102.268C265.392 102.015 264.755 101.883 264.11 101.88V101.925Z" fill="#B19FFD"/>
<path d="M272.809 116.367C272.688 116.367 272.569 116.343 272.459 116.296C272.348 116.249 272.247 116.181 272.163 116.095L267.573 111.505C267.478 111.423 267.401 111.323 267.346 111.21C267.292 111.097 267.261 110.975 267.256 110.849C267.251 110.724 267.273 110.599 267.318 110.483C267.364 110.366 267.433 110.26 267.522 110.172C267.61 110.083 267.716 110.014 267.833 109.968C267.95 109.922 268.074 109.901 268.2 109.906C268.325 109.911 268.448 109.942 268.56 109.996C268.673 110.051 268.773 110.128 268.855 110.223L273.445 114.813C273.614 114.983 273.709 115.214 273.709 115.454C273.709 115.694 273.614 115.924 273.445 116.095C273.277 116.266 273.048 116.364 272.809 116.367V116.367Z" fill="#B19FFD"/>
<path d="M264.11 113.514C263.007 113.513 261.921 113.241 260.949 112.72C259.976 112.2 259.147 111.448 258.535 110.531C257.922 109.614 257.545 108.56 257.437 107.462C257.329 106.365 257.494 105.257 257.916 104.238C258.338 103.22 259.005 102.32 259.857 101.621C260.71 100.921 261.722 100.442 262.803 100.227C263.885 100.012 265.003 100.067 266.059 100.387C267.114 100.706 268.074 101.282 268.854 102.061V102.061C269.793 102.999 270.432 104.195 270.691 105.496C270.951 106.798 270.818 108.147 270.31 109.373C269.802 110.599 268.942 111.647 267.838 112.384C266.734 113.121 265.437 113.514 264.11 113.514V113.514ZM264.11 101.925C262.978 101.925 261.882 102.318 261.008 103.036C260.133 103.755 259.535 104.754 259.315 105.864C259.095 106.974 259.266 108.126 259.801 109.123C260.335 110.121 261.198 110.902 262.244 111.334C263.29 111.766 264.453 111.822 265.536 111.493C266.618 111.163 267.553 110.468 268.18 109.527C268.808 108.585 269.09 107.455 268.977 106.329C268.865 105.203 268.365 104.151 267.564 103.352V103.352C267.115 102.889 266.578 102.52 265.985 102.268C265.392 102.015 264.755 101.883 264.11 101.88V101.925Z" fill="#FDFFFE"/>
<path d="M272.809 116.367C272.688 116.367 272.569 116.343 272.459 116.296C272.348 116.249 272.247 116.181 272.163 116.095L267.573 111.505C267.478 111.423 267.401 111.323 267.346 111.21C267.292 111.097 267.261 110.975 267.256 110.849C267.251 110.724 267.273 110.599 267.318 110.483C267.364 110.366 267.433 110.26 267.522 110.172C267.61 110.083 267.716 110.014 267.833 109.968C267.95 109.922 268.074 109.901 268.2 109.906C268.325 109.911 268.448 109.942 268.56 109.996C268.673 110.051 268.773 110.128 268.855 110.223L273.445 114.813C273.614 114.983 273.709 115.214 273.709 115.454C273.709 115.694 273.614 115.924 273.445 116.095C273.277 116.266 273.048 116.364 272.809 116.367V116.367Z" fill="#FDFFFE"/>
<path d="M202.45 18.8506H173.874V19.5596H202.45V18.8506Z" fill="#B19FFD"/>
<path d="M202.45 21.8593H173.874V22.5683H202.45V21.8593Z" fill="#B19FFD"/>
<path d="M202.45 24.8768H173.874V25.5857H202.45V24.8768Z" fill="#B19FFD"/>
<path d="M202.45 27.8851H173.874V28.5941H202.45V27.8851Z" fill="#B19FFD"/>
<path d="M202.45 30.8938H173.874V31.6027H202.45V30.8938Z" fill="#B19FFD"/>
<path d="M192.507 33.9114H173.874V34.6203H192.507V33.9114Z" fill="#B19FFD"/>
<path d="M202.45 18.8506H173.874V19.5596H202.45V18.8506Z" fill="#FDFFFE"/>
<path d="M202.45 21.8593H173.874V22.5683H202.45V21.8593Z" fill="#FDFFFE"/>
<path d="M202.45 24.8768H173.874V25.5857H202.45V24.8768Z" fill="#FDFFFE"/>
<path d="M202.45 27.8851H173.874V28.5941H202.45V27.8851Z" fill="#FDFFFE"/>
<path d="M202.45 30.8938H173.874V31.6027H202.45V30.8938Z" fill="#FDFFFE"/>
<path d="M192.507 33.9114H173.874V34.6203H192.507V33.9114Z" fill="#FDFFFE"/>
<path d="M30.4484 148.815H0V149.27H30.4484V148.815Z" fill="#B19FFD"/>
<path d="M30.4484 150.742H0V151.197H30.4484V150.742Z" fill="#B19FFD"/>
<path d="M30.4484 152.669H0V153.124H30.4484V152.669Z" fill="#B19FFD"/>
<path d="M30.4484 154.596H0V155.05H30.4484V154.596Z" fill="#B19FFD"/>
<path d="M30.4484 156.523H0V156.977H30.4484V156.523Z" fill="#B19FFD"/>
<path d="M19.1416 158.459H0V158.913H19.1416V158.459Z" fill="#B19FFD"/>
<path d="M30.4484 148.815H0V149.27H30.4484V148.815Z" fill="#FDFFFE"/>
<path d="M30.4484 150.742H0V151.197H30.4484V150.742Z" fill="#FDFFFE"/>
<path d="M30.4484 152.669H0V153.124H30.4484V152.669Z" fill="#FDFFFE"/>
<path d="M30.4484 154.596H0V155.05H30.4484V154.596Z" fill="#FDFFFE"/>
<path d="M30.4484 156.523H0V156.977H30.4484V156.523Z" fill="#FDFFFE"/>
<path d="M19.1416 158.459H0V158.913H19.1416V158.459Z" fill="#FDFFFE"/>
<path d="M130.519 23.3135C128.995 23.3135 127.534 23.9187 126.457 24.996C125.38 26.0733 124.775 27.5343 124.775 29.0578V48.0085C124.775 49.532 125.38 50.9931 126.457 52.0704C127.534 53.1476 128.995 53.7528 130.519 53.7528V53.7528C132.042 53.7528 133.504 53.1476 134.581 52.0704C135.658 50.9931 136.263 49.532 136.263 48.0085V29.0578C136.263 27.5343 135.658 26.0733 134.581 24.996C133.504 23.9187 132.042 23.3135 130.519 23.3135V23.3135Z" fill="#B19FFD"/>
<path opacity="0.2" d="M130.519 23.3135C128.995 23.3135 127.534 23.9187 126.457 24.996C125.38 26.0733 124.775 27.5343 124.775 29.0578V48.0085C124.775 49.532 125.38 50.9931 126.457 52.0704C127.534 53.1476 128.995 53.7528 130.519 53.7528V53.7528C132.042 53.7528 133.504 53.1476 134.581 52.0704C135.658 50.9931 136.263 49.532 136.263 48.0085V29.0578C136.263 27.5343 135.658 26.0733 134.581 24.996C133.504 23.9187 132.042 23.3135 130.519 23.3135V23.3135Z" fill="#FDFFFE"/>
<path d="M144.916 12.0158C143.397 12.023 141.943 12.6314 140.872 13.7079C139.801 14.7844 139.199 16.2413 139.199 17.7601V48.0085C139.199 49.532 139.804 50.9931 140.882 52.0703C141.959 53.1476 143.42 53.7528 144.944 53.7528V53.7528C146.467 53.7528 147.928 53.1476 149.005 52.0703C150.083 50.9931 150.688 49.532 150.688 48.0085V17.7601C150.688 17.0035 150.538 16.2543 150.248 15.5555C149.958 14.8568 149.532 14.2224 148.996 13.6886C148.459 13.1548 147.823 12.7323 147.123 12.4452C146.423 12.1581 145.673 12.0122 144.916 12.0158Z" fill="#B19FFD"/>
<path opacity="0.3" d="M144.916 12.0158C143.397 12.023 141.943 12.6314 140.872 13.7079C139.801 14.7844 139.199 16.2413 139.199 17.7601V48.0085C139.199 49.532 139.804 50.9931 140.882 52.0703C141.959 53.1476 143.42 53.7528 144.944 53.7528V53.7528C146.467 53.7528 147.928 53.1476 149.005 52.0703C150.083 50.9931 150.688 49.532 150.688 48.0085V17.7601C150.688 17.0035 150.538 16.2543 150.248 15.5555C149.958 14.8568 149.532 14.2224 148.996 13.6886C148.459 13.1548 147.823 12.7323 147.123 12.4452C146.423 12.1581 145.673 12.0122 144.916 12.0158Z" fill="#00273E"/>
<path d="M159.304 34.6113C157.781 34.6113 156.32 35.2165 155.243 36.2937C154.165 37.371 153.56 38.8321 153.56 40.3556V48.0086C153.56 49.532 154.165 50.9931 155.243 52.0704C156.32 53.1476 157.781 53.7529 159.304 53.7529V53.7529C160.059 53.754 160.807 53.6063 161.505 53.3182C162.203 53.0301 162.838 52.6071 163.372 52.0736C163.906 51.5401 164.33 50.9064 164.62 50.2089C164.909 49.5114 165.058 48.7637 165.058 48.0086V40.3556C165.058 39.6005 164.909 38.8527 164.62 38.1552C164.33 37.4577 163.906 36.824 163.372 36.2905C162.838 35.757 162.203 35.3341 161.505 35.0459C160.807 34.7578 160.059 34.6101 159.304 34.6113V34.6113Z" fill="#B19FFD"/>
<path opacity="0.6" d="M159.304 34.6113C157.781 34.6113 156.32 35.2165 155.243 36.2937C154.165 37.371 153.56 38.8321 153.56 40.3556V48.0086C153.56 49.532 154.165 50.9931 155.243 52.0704C156.32 53.1476 157.781 53.7529 159.304 53.7529V53.7529C160.059 53.754 160.807 53.6063 161.505 53.3182C162.203 53.0301 162.838 52.6071 163.372 52.0736C163.906 51.5401 164.33 50.9064 164.62 50.2089C164.909 49.5114 165.058 48.7637 165.058 48.0086V40.3556C165.058 39.6005 164.909 38.8527 164.62 38.1552C164.33 37.4577 163.906 36.824 163.372 36.2905C162.838 35.757 162.203 35.3341 161.505 35.0459C160.807 34.7578 160.059 34.6101 159.304 34.6113V34.6113Z" fill="#FDFFFE"/>
<path d="M280.634 164.53H303.856L264.21 123.411L280.634 164.53Z" fill="#B19FFD"/>
<path d="M280.634 164.53H303.856L264.21 123.411L280.634 164.53Z" fill="#00273E"/>
<g style="mix-blend-mode:multiply">
<path d="M258.311 142.826L264.21 123.411L267.555 142.826H258.311Z" fill="#B19FFD"/>
</g>
<path d="M264.21 123.411V180.945L268.318 176.846L280.634 164.53L264.21 123.411Z" fill="#B19FFD"/>
<path opacity="0.3" d="M264.21 123.411V180.945L268.318 176.846L280.634 164.53L264.21 123.411Z" fill="#FDFFFE"/>
<path d="M305.275 0H254.376C251.796 0.00956195 249.325 1.03793 247.5 2.86115C245.675 4.68438 244.645 7.15479 244.633 9.73439V36.02C244.645 38.598 245.674 41.0671 247.497 42.89C249.32 44.713 251.789 45.7424 254.367 45.7544H291.714L291.441 54.9434L300.867 45.7544H305.257C307.836 45.7448 310.308 44.7164 312.133 42.8932C313.958 41.07 314.988 38.5996 315 36.02V9.73439C314.988 7.15792 313.96 4.69024 312.139 2.86752C310.318 1.04481 307.851 0.0143395 305.275 0V0ZM253.231 11.1977C253.231 10.4746 253.518 9.78101 254.029 9.26965C254.541 8.75829 255.234 8.47101 255.958 8.47101H267.673C268.397 8.47101 269.09 8.75829 269.601 9.26965C270.113 9.78101 270.4 10.4746 270.4 11.1977C270.4 11.9209 270.113 12.6145 269.601 13.1258C269.09 13.6372 268.397 13.9245 267.673 13.9245H255.948C255.227 13.922 254.536 13.6337 254.026 13.1226C253.517 12.6115 253.231 11.9193 253.231 11.1977V11.1977ZM302.385 36.6471H282.134C281.742 36.7158 281.34 36.6978 280.956 36.5945C280.571 36.4912 280.214 36.3051 279.91 36.0491C279.605 35.7932 279.36 35.4737 279.192 35.113C279.024 34.7523 278.937 34.3592 278.937 33.9613C278.937 33.5634 279.024 33.1703 279.192 32.8096C279.36 32.449 279.605 32.1294 279.91 31.8735C280.214 31.6176 280.571 31.4314 280.956 31.3281C281.34 31.2248 281.742 31.2068 282.134 31.2755H302.385C302.776 31.2068 303.179 31.2248 303.563 31.3281C303.947 31.4314 304.304 31.6176 304.609 31.8735C304.914 32.1294 305.159 32.449 305.327 32.8096C305.495 33.1703 305.582 33.5634 305.582 33.9613C305.582 34.3592 305.495 34.7523 305.327 35.113C305.159 35.4737 304.914 35.7932 304.609 36.0491C304.304 36.3051 303.947 36.4912 303.563 36.5945C303.179 36.6978 302.776 36.7158 302.385 36.6471V36.6471ZM302.385 25.2767H258.675C258.283 25.3454 257.881 25.3274 257.497 25.2241C257.112 25.1208 256.755 24.9346 256.451 24.6787C256.146 24.4228 255.901 24.1032 255.733 23.7426C255.565 23.3819 255.478 22.9888 255.478 22.5909C255.478 22.193 255.565 21.7999 255.733 21.4392C255.901 21.0785 256.146 20.759 256.451 20.5031C256.755 20.2471 257.112 20.061 257.497 19.9577C257.881 19.8544 258.283 19.8364 258.675 19.9051H302.385C302.776 19.8364 303.179 19.8544 303.563 19.9577C303.947 20.061 304.304 20.2471 304.609 20.5031C304.914 20.759 305.159 21.0785 305.327 21.4392C305.495 21.7999 305.582 22.193 305.582 22.5909C305.582 22.9888 305.495 23.3819 305.327 23.7426C305.159 24.1032 304.914 24.4228 304.609 24.6787C304.304 24.9346 303.947 25.1208 303.563 25.2241C303.179 25.3274 302.776 25.3454 302.385 25.2767V25.2767ZM302.385 13.9063H276.508C275.785 13.9063 275.091 13.619 274.58 13.1076C274.068 12.5963 273.781 11.9027 273.781 11.1796C273.781 10.4564 274.068 9.76283 274.58 9.25147C275.091 8.74011 275.785 8.45284 276.508 8.45284H302.385C303.108 8.45284 303.801 8.74011 304.313 9.25147C304.824 9.76283 305.111 10.4564 305.111 11.1796C305.111 11.9027 304.824 12.5963 304.313 13.1076C303.801 13.619 303.108 13.9063 302.385 13.9063Z" fill="#B19FFD"/>
<path d="M225.672 83.3195C223.498 77.348 220.179 71.8585 215.901 67.1592H143.634C139.356 71.8585 136.037 77.348 133.864 83.3195L143.862 133.091C151.51 141.383 161.793 146.771 172.964 148.34C184.135 149.909 195.504 147.562 205.141 141.699C214.778 135.835 222.088 126.817 225.829 116.174C229.57 105.532 229.511 93.9234 225.663 83.3195H225.672Z" fill="#B19FFD"/>
<path opacity="0.1" d="M225.672 83.3195C223.498 77.348 220.179 71.8585 215.901 67.1592H143.634C139.356 71.8585 136.037 77.348 133.864 83.3195L143.862 133.091C151.51 141.383 161.793 146.771 172.964 148.34C184.135 149.909 195.504 147.562 205.141 141.699C214.778 135.835 222.088 126.817 225.829 116.174C229.57 105.532 229.511 93.9234 225.663 83.3195H225.672Z" fill="#FDFFFE"/>
<path d="M228.553 102.252C228.037 113.728 223.478 124.652 215.683 133.091H143.879C137.818 126.504 133.68 118.38 131.917 109.604C130.154 100.828 130.834 91.7361 133.882 83.3195H225.681C227.886 89.3771 228.862 95.8131 228.553 102.252V102.252Z" fill="#B19FFD"/>
<path opacity="0.9" d="M228.553 102.252C228.037 113.728 223.478 124.652 215.683 133.091H143.879C137.818 126.504 133.68 118.38 131.917 109.604C130.154 100.828 130.834 91.7361 133.882 83.3195H225.681C227.886 89.3771 228.862 95.8131 228.553 102.252V102.252Z" fill="#FDFFFE"/>
<path opacity="0.3" d="M228.554 102.252C227.988 114.329 222.954 125.765 214.427 134.336C205.901 142.908 194.493 148.004 182.419 148.634C170.346 149.264 158.469 145.383 149.097 137.745C139.725 130.107 133.528 119.257 131.709 107.305C129.89 95.3524 132.579 83.1505 139.255 73.0703C145.93 62.9901 156.114 55.7516 167.829 52.7613C179.543 49.7711 191.951 51.2427 202.641 56.8901C213.331 62.5376 221.54 71.9576 225.672 83.3196C227.877 89.3774 228.857 95.8128 228.554 102.252V102.252Z" fill="#FDFFFE"/>
<path opacity="0.4" d="M207.294 59.6697L137.072 123.711C136.721 123.063 136.375 122.409 136.036 121.748C133.889 117.45 132.397 112.854 131.61 108.114V108.114L192.261 52.7984C197.628 54.2128 202.713 56.5369 207.294 59.6697Z" fill="#FDFFFE"/>
<path opacity="0.4" d="M226.081 84.4919L160.104 144.698C153.26 141.678 147.202 137.126 142.398 131.392L214.493 65.6412C219.747 70.9557 223.711 77.4047 226.081 84.4919V84.4919Z" fill="#FDFFFE"/>
<path d="M228.536 71.8401C222.966 62.1823 214.657 54.3937 204.659 49.4597C194.662 44.5257 183.425 42.6681 172.372 44.1218C161.318 45.5755 150.944 50.2753 142.563 57.6265C134.181 64.9777 128.168 74.6499 125.285 85.4194C122.402 96.1889 122.778 107.572 126.365 118.127C129.953 128.683 136.591 137.937 145.44 144.719C154.288 151.501 164.95 155.506 176.075 156.227C187.201 156.948 198.29 154.353 207.94 148.77C220.865 141.292 230.293 128.991 234.155 114.566C238.017 100.142 235.996 84.7752 228.536 71.8401V71.8401ZM141.281 122.23C136.886 114.619 134.847 105.876 135.422 97.1061C135.996 88.3364 139.158 79.9339 144.508 72.9612C149.857 65.9885 157.154 60.7587 165.476 57.9331C173.798 55.1075 182.771 54.813 191.26 57.0869C199.749 59.3608 207.374 64.1009 213.169 70.7078C218.965 77.3148 222.671 85.4919 223.819 94.2051C224.967 102.918 223.505 111.776 219.619 119.659C215.733 127.542 209.597 134.095 201.987 138.49C196.934 141.409 191.355 143.303 185.57 144.065C179.785 144.828 173.906 144.443 168.27 142.933C162.634 141.423 157.35 138.817 152.721 135.265C148.091 131.713 144.207 127.283 141.29 122.23H141.281Z" fill="#B19FFD"/>
<path opacity="0.1" d="M228.536 71.8401C222.966 62.1823 214.657 54.3937 204.659 49.4597C194.662 44.5257 183.425 42.6681 172.372 44.1218C161.318 45.5755 150.944 50.2753 142.563 57.6265C134.181 64.9777 128.168 74.6499 125.285 85.4194C122.402 96.1889 122.778 107.572 126.365 118.127C129.953 128.683 136.591 137.937 145.44 144.719C154.288 151.501 164.95 155.506 176.075 156.227C187.201 156.948 198.29 154.353 207.94 148.77C220.865 141.292 230.293 128.991 234.155 114.566C238.017 100.142 235.996 84.7752 228.536 71.8401V71.8401ZM141.281 122.23C136.886 114.619 134.847 105.876 135.422 97.1061C135.996 88.3364 139.158 79.9339 144.508 72.9612C149.857 65.9885 157.154 60.7587 165.476 57.9331C173.798 55.1075 182.771 54.813 191.26 57.0869C199.749 59.3608 207.374 64.1009 213.169 70.7078C218.965 77.3148 222.671 85.4919 223.819 94.2051C224.967 102.918 223.505 111.776 219.619 119.659C215.733 127.542 209.597 134.095 201.987 138.49C196.934 141.409 191.355 143.303 185.57 144.065C179.785 144.828 173.906 144.443 168.27 142.933C162.634 141.423 157.35 138.817 152.721 135.265C148.091 131.713 144.207 127.283 141.29 122.23H141.281Z" fill="#00273E"/>
<path d="M50.1804 157.95L57.1426 159.568L51.3711 163.876C51.3711 163.876 47.2355 162.004 47.0447 159.068L50.1804 157.95Z" fill="#FFBE9D"/>
<path d="M60.8692 164.203L55.852 167.548L51.3711 163.876L57.1427 159.577L60.8692 164.203Z" fill="#FFBE9D"/>
<path d="M139.626 129.674C132.228 135.127 124.638 140.308 117.013 145.371C109.387 150.433 101.661 155.369 93.8991 160.213C86.1371 165.057 78.3023 169.802 70.4403 174.41C66.5138 176.755 62.5509 179.027 58.6245 181.336C56.674 182.578 54.5475 183.518 52.3167 184.126C51.1264 184.442 49.9092 184.646 48.681 184.735C47.3174 184.847 45.9451 184.776 44.6 184.526C43.6388 184.336 42.7244 183.958 41.9094 183.414C41.0943 182.87 40.3945 182.171 39.8499 181.356C39.3054 180.542 38.9269 179.628 38.736 178.667C38.5451 177.706 38.5457 176.716 38.7376 175.755C38.7998 175.446 38.8849 175.143 38.9921 174.846C39.4308 173.558 40.0423 172.335 40.8099 171.211C41.4946 170.2 42.2737 169.257 43.1367 168.393C44.7805 166.766 46.6584 165.393 48.7083 164.321C52.6802 162.058 56.6249 159.777 60.6241 157.532C68.5861 153.033 76.6208 148.652 84.6737 144.325C92.7266 139.999 100.88 135.809 109.078 131.719C117.276 127.629 125.538 123.648 133.973 119.976C135.246 119.413 136.682 119.34 138.005 119.772C139.328 120.203 140.445 121.108 141.142 122.313C141.838 123.518 142.065 124.938 141.779 126.3C141.492 127.662 140.713 128.87 139.59 129.692L139.626 129.674Z" fill="#B19FFD"/>
<path opacity="0.1" d="M139.626 129.674C132.228 135.127 124.638 140.308 117.013 145.371C109.387 150.433 101.661 155.369 93.8991 160.213C86.1371 165.057 78.3023 169.802 70.4403 174.41C66.5138 176.755 62.5509 179.027 58.6245 181.336C56.674 182.578 54.5475 183.518 52.3167 184.126C51.1264 184.442 49.9092 184.646 48.681 184.735C47.3174 184.847 45.9451 184.776 44.6 184.526C43.6388 184.336 42.7244 183.958 41.9094 183.414C41.0943 182.87 40.3945 182.171 39.8499 181.356C39.3054 180.542 38.9269 179.628 38.736 178.667C38.5451 177.706 38.5457 176.716 38.7376 175.755C38.7998 175.446 38.8849 175.143 38.9921 174.846C39.4308 173.558 40.0423 172.335 40.8099 171.211C41.4946 170.2 42.2737 169.257 43.1367 168.393C44.7805 166.766 46.6584 165.393 48.7083 164.321C52.6802 162.058 56.6249 159.777 60.6241 157.532C68.5861 153.033 76.6208 148.652 84.6737 144.325C92.7266 139.999 100.88 135.809 109.078 131.719C117.276 127.629 125.538 123.648 133.973 119.976C135.246 119.413 136.682 119.34 138.005 119.772C139.328 120.203 140.445 121.108 141.142 122.313C141.838 123.518 142.065 124.938 141.779 126.3C141.492 127.662 140.713 128.87 139.59 129.692L139.626 129.674Z" fill="#00273E"/>
<path d="M60.2694 114.895C59.815 115.631 59.2969 116.522 58.8061 117.358C58.3153 118.194 57.8336 119.067 57.3791 119.948C56.4702 121.684 55.5613 123.448 54.6524 125.238C53.7435 127.029 53.0073 128.874 52.262 130.692C51.8984 131.6 51.5167 132.509 51.1804 133.418L50.6714 134.809C50.5714 135.072 50.5532 135.182 50.4896 135.372C50.426 135.563 50.3987 135.745 50.3442 135.927C49.9894 137.723 49.8098 139.549 49.8079 141.38C49.7625 143.334 49.8079 145.325 49.917 147.334C50.026 149.342 50.1351 151.36 50.3169 153.378C50.4987 155.396 50.6805 157.45 50.8713 159.449L47.3629 160.167C46.7449 158.141 46.2632 156.123 45.7814 154.078C45.2997 152.033 44.9362 149.979 44.5817 147.888C44.2272 145.798 43.9909 143.698 43.8364 141.526C43.6473 139.251 43.7052 136.962 44.0091 134.7C44.0636 134.382 44.1091 134.082 44.1909 133.791C44.2727 133.5 44.3545 133.091 44.4272 132.882L44.8725 131.337C45.1634 130.31 45.4997 129.292 45.8451 128.283C46.5449 126.256 47.3084 124.266 48.1628 122.302C49.0172 120.339 49.9261 118.421 50.8895 116.531C51.3894 115.622 51.9166 114.649 52.4528 113.713C52.9891 112.777 53.5253 111.895 54.1979 110.905L60.2694 114.895Z" fill="#FFBE9D"/>
<path d="M56.3884 302.566C55.775 302.547 55.1656 302.462 54.5706 302.312C54.5387 302.307 54.5093 302.291 54.4865 302.269C54.4637 302.246 54.4486 302.216 54.4433 302.185C54.4375 302.152 54.4413 302.118 54.4542 302.087C54.4671 302.057 54.4886 302.031 54.516 302.012C54.7614 301.848 56.9064 300.467 57.7335 300.839C57.8255 300.882 57.9044 300.948 57.962 301.031C58.0195 301.114 58.0536 301.211 58.0608 301.312C58.1034 301.474 58.1006 301.644 58.0524 301.805C58.0043 301.965 57.9128 302.109 57.7881 302.221C57.3786 302.501 56.8813 302.624 56.3884 302.566ZM54.9977 302.075C56.2339 302.321 57.1609 302.275 57.5154 301.948C57.5933 301.873 57.6502 301.779 57.6805 301.676C57.7108 301.572 57.7135 301.462 57.6881 301.357C57.687 301.311 57.6727 301.266 57.647 301.227C57.6212 301.189 57.5851 301.158 57.5427 301.139C57.1155 300.948 55.8703 301.548 54.9977 302.075V302.075Z" fill="#B19FFD"/>
<path d="M54.5616 302.321C54.5349 302.328 54.5065 302.328 54.4798 302.321C54.4536 302.307 54.432 302.286 54.4175 302.26C54.403 302.234 54.3963 302.205 54.398 302.175C54.398 302.093 54.398 300.057 55.1705 299.376C55.266 299.29 55.3785 299.225 55.5007 299.186C55.6229 299.147 55.752 299.134 55.8795 299.148C56.0135 299.15 56.1427 299.198 56.2454 299.284C56.3481 299.371 56.4179 299.49 56.443 299.621C56.6066 300.412 55.316 301.939 54.6252 302.348C54.6021 302.344 54.5803 302.335 54.5616 302.321ZM55.7704 299.448C55.6326 299.45 55.5 299.501 55.3978 299.594C54.9509 300.252 54.722 301.034 54.7434 301.83C55.4159 301.284 56.2158 300.139 56.1158 299.657C56.1158 299.576 56.0522 299.485 55.8431 299.458L55.7704 299.448Z" fill="#B19FFD"/>
<path d="M88.5818 302.566C87.833 302.555 87.0871 302.469 86.355 302.312C86.3202 302.308 86.2877 302.292 86.263 302.267C86.2382 302.242 86.2226 302.21 86.2187 302.175C86.2147 302.141 86.2212 302.106 86.2374 302.075C86.2536 302.044 86.2788 302.019 86.3096 302.002C86.6277 301.839 89.4453 300.403 90.3088 300.875C90.3918 300.918 90.4623 300.981 90.5133 301.06C90.5643 301.138 90.5941 301.228 90.5996 301.321C90.6195 301.471 90.6016 301.623 90.5476 301.764C90.4937 301.906 90.4053 302.031 90.2906 302.13C89.788 302.467 89.1846 302.621 88.5818 302.566V302.566ZM86.9095 302.075C88.4819 302.339 89.6362 302.266 90.0724 301.884C90.1449 301.817 90.2001 301.733 90.2333 301.639C90.2665 301.546 90.2768 301.446 90.2633 301.348C90.263 301.311 90.2527 301.274 90.2335 301.242C90.2144 301.21 90.187 301.184 90.1542 301.166C89.6816 300.912 88.0638 301.521 86.9095 302.075Z" fill="#B19FFD"/>
<path d="M86.382 302.321C86.3676 302.327 86.3521 302.33 86.3365 302.33C86.3209 302.33 86.3055 302.327 86.2911 302.321C86.265 302.307 86.2438 302.286 86.2307 302.26C86.2176 302.234 86.2133 302.204 86.2184 302.175C86.2184 302.093 86.3911 300.185 87.2727 299.448C87.526 299.236 87.8523 299.132 88.1816 299.158C88.6452 299.203 88.7724 299.439 88.8088 299.63C88.936 300.43 87.2727 301.957 86.4274 302.357L86.382 302.321ZM88.0726 299.448C87.8591 299.451 87.6531 299.528 87.4909 299.667C86.9695 300.282 86.652 301.044 86.582 301.848C87.4363 301.33 88.5725 300.13 88.4907 299.648C88.4907 299.648 88.4907 299.485 88.1635 299.458L88.0726 299.448Z" fill="#B19FFD"/>
<path d="M71.0304 87.6005C71.5849 91.8451 72.8482 100.452 69.7761 103.052C69.7761 103.052 70.685 107.378 78.4289 107.878C86.9908 108.433 82.7917 103.897 82.7917 103.897C78.1926 102.479 78.538 99.0163 79.5651 95.817L71.0304 87.6005Z" fill="#FFBE9D"/>
<path d="M86.91 78.9749C86.8553 78.9737 86.802 78.958 86.7555 78.9294C86.7158 78.9094 86.6807 78.8815 86.6522 78.8475C86.6238 78.8135 86.6025 78.774 86.5897 78.7315C86.577 78.689 86.573 78.6443 86.5781 78.6002C86.5831 78.5561 86.5971 78.5135 86.6191 78.475C86.8552 77.9942 87.2043 77.5777 87.6364 77.2611C88.0685 76.9446 88.5708 76.7373 89.1004 76.6572C89.1818 76.6603 89.2592 76.6928 89.3184 76.7487C89.3776 76.8046 89.4144 76.8801 89.4222 76.9611C89.43 77.0421 89.4081 77.1232 89.3606 77.1894C89.3132 77.2555 89.2433 77.3021 89.1641 77.3207V77.3207C88.7496 77.3931 88.3576 77.5604 88.0185 77.8095C87.6795 78.0586 87.4028 78.3828 87.2099 78.7567C87.1841 78.8167 87.1426 78.8686 87.0898 78.9069C87.0371 78.9453 86.9749 78.9688 86.91 78.9749V78.9749Z" fill="#00273E"/>
<path d="M89.3542 82.7014C89.9805 83.9497 90.7756 85.1058 91.7174 86.1371C91.4474 86.3719 91.1294 86.5448 90.7855 86.6437C90.4417 86.7426 90.0804 86.7651 89.7269 86.7097L89.3542 82.7014Z" fill="#B78876"/>
<path d="M88.7547 81.7744C88.8092 82.347 89.1546 82.7742 89.5181 82.7378C89.8817 82.7014 90.1544 82.2197 90.0998 81.6471C90.0453 81.0745 89.6999 80.6473 89.3273 80.6837C88.9546 80.72 88.7001 81.2108 88.7547 81.7744Z" fill="#00273E"/>
<path d="M89.2092 80.7293L90.5362 80.2112C90.5362 80.2112 89.9 81.3382 89.2092 80.7293Z" fill="#00273E"/>
<path d="M78.6016 302.148H85.6819L86.1546 285.769H79.0742L78.6016 302.148Z" fill="#FFBE9D"/>
<path d="M46.4539 302.148H53.5342L55.8065 285.769H48.7352L46.4539 302.148Z" fill="#FFBE9D"/>
<path d="M53.9708 301.33H46.0179C45.8816 301.329 45.7494 301.377 45.6458 301.465C45.5422 301.554 45.4742 301.677 45.4544 301.812L44.5455 308.101C44.5276 308.26 44.5434 308.421 44.5918 308.573C44.6403 308.725 44.7203 308.866 44.8267 308.985C44.933 309.104 45.0633 309.2 45.2091 309.265C45.3548 309.33 45.5127 309.364 45.6725 309.365C48.3992 309.319 49.7808 309.156 53.2801 309.156C55.4251 309.156 58.5699 309.374 61.542 309.374C64.5142 309.374 64.6687 306.438 63.4326 306.174C57.8882 304.984 57.0157 303.339 55.1433 301.766C54.8164 301.487 54.401 301.332 53.9708 301.33V301.33Z" fill="#00273E"/>
<path d="M85.9187 301.33H77.9749C77.8381 301.326 77.7048 301.374 77.6008 301.463C77.4967 301.552 77.4293 301.676 77.4114 301.812L76.5025 308.101C76.4859 308.26 76.503 308.421 76.5525 308.574C76.602 308.726 76.683 308.866 76.79 308.985C76.8971 309.104 77.0279 309.199 77.1741 309.265C77.3202 309.33 77.4785 309.364 77.6386 309.365C80.3653 309.319 81.7468 309.156 85.237 309.156C87.3912 309.156 91.8357 309.374 94.8078 309.374C97.78 309.374 97.9345 306.438 96.6984 306.174C91.154 304.984 88.9726 303.339 87.1003 301.766C86.771 301.485 86.352 301.33 85.9187 301.33V301.33Z" fill="#00273E"/>
<path d="M86.1458 285.769L85.9095 294.213H78.8291L79.0745 285.769H86.1458Z" fill="#B78876"/>
<path d="M48.7262 285.769H55.8066L54.6341 294.213H47.5537L48.7262 285.769Z" fill="#B78876"/>
<path d="M63.2866 115.986C61.9429 118.085 60.3865 120.04 58.6421 121.821L57.8332 121.285L48.8713 115.331C48.8713 115.331 53.7613 104.424 57.4423 103.87C60.9598 103.306 63.5229 106.942 64.7136 110.832C65.168 112.241 64.4136 114.15 63.2866 115.986Z" fill="#B19FFD"/>
<path opacity="0.6" d="M63.2866 115.986C61.9429 118.085 60.3865 120.04 58.6421 121.821L57.8332 121.285L48.8713 115.331C48.8713 115.331 53.7613 104.424 57.4423 103.87C60.9598 103.306 63.5229 106.942 64.7136 110.832C65.168 112.241 64.4136 114.15 63.2866 115.986Z" fill="#FDFFFE"/>
<path d="M63.2874 115.986C61.9437 118.085 60.3873 120.04 58.6429 121.821L57.834 121.284C58.2339 118.012 59.5064 114.768 60.9606 113.741C61.8514 113.831 62.6421 114.777 63.2874 115.986Z" fill="#B19FFD"/>
<path opacity="0.4" d="M63.2874 115.986C61.9437 118.085 60.3873 120.04 58.6429 121.821L57.834 121.284C58.2339 118.012 59.5064 114.768 60.9606 113.741C61.8514 113.831 62.6421 114.777 63.2874 115.986Z" fill="#FDFFFE"/>
<path d="M93.9441 121.43C93.5169 124.157 92.9625 127.365 92.2172 131.174C91.3082 136.045 90.0358 141.89 88.427 148.879L59.751 147.061C60.9871 135.418 61.4688 128.22 57.4424 103.906C61.5133 103.338 65.6204 103.067 69.7308 103.097C74.0839 103.069 78.4335 103.351 82.7463 103.943C88.3089 104.852 94.5621 106.524 94.5621 106.524C94.5621 106.524 96.1618 107.151 93.9441 121.43Z" fill="#B19FFD"/>
<path opacity="0.6" d="M93.9441 121.43C93.5169 124.157 92.9625 127.365 92.2172 131.174C91.3082 136.045 90.0358 141.89 88.427 148.879L59.751 147.061C60.9871 135.418 61.4688 128.22 57.4424 103.906C61.5133 103.338 65.6204 103.067 69.7308 103.097C74.0839 103.069 78.4335 103.351 82.7463 103.943C88.3089 104.852 94.5621 106.524 94.5621 106.524C94.5621 106.524 96.1618 107.151 93.9441 121.43Z" fill="#FDFFFE"/>
<path d="M93.9444 121.43C93.5172 124.157 92.9627 127.365 92.2174 131.173C90.6403 127.819 89.3304 124.345 88.3 120.785H93.6262L93.9444 121.43Z" fill="#B19FFD"/>
<path opacity="0.4" d="M93.9444 121.43C93.5172 124.157 92.9627 127.365 92.2174 131.173C90.6403 127.819 89.3304 124.345 88.3 120.785H93.6262L93.9444 121.43Z" fill="#FDFFFE"/>
<path d="M69.4676 81.6289C70.5492 88.5639 70.8674 91.5269 74.7302 94.7717C80.5381 99.6616 88.8183 96.8077 89.8272 89.6818C90.7361 83.274 88.8092 73.0034 81.7106 70.8765C80.1492 70.3975 78.4912 70.326 76.8943 70.6688C75.2974 71.0116 73.8149 71.7574 72.5877 72.8352C71.3605 73.913 70.4296 75.2868 69.8834 76.8261C69.3373 78.3653 69.1942 80.0187 69.4676 81.6289V81.6289Z" fill="#FFBE9D"/>
<path d="M80.8467 148.388C80.8467 148.388 80.3922 161.013 79.3015 176.937C78.3926 190.298 77.0202 205.967 75.1024 218.456L75.0478 218.801C71.6031 240.906 56.3425 292.568 56.3425 292.568H46.6899C46.6899 292.568 54.6429 242.669 56.388 220.764C60.8144 165.439 49.7257 159.177 59.7509 146.979L80.8467 148.388Z" fill="#B19FFD"/>
<path opacity="0.3" d="M80.8467 148.388C80.8467 148.388 80.3922 161.013 79.3015 176.937C78.3926 190.298 77.0202 205.967 75.1024 218.456L75.0478 218.801C71.6031 240.906 56.3425 292.568 56.3425 292.568H46.6899C46.6899 292.568 54.6429 242.669 56.388 220.764C60.8144 165.439 49.7257 159.177 59.7509 146.979L80.8467 148.388Z" fill="#00273E"/>
<path d="M79.3017 176.937C78.3928 190.298 77.0203 205.967 75.1026 218.456C71.8396 202.232 66.477 178.537 73.6756 163.012C75.3934 167.421 77.393 172.401 79.3017 176.937Z" fill="#B19FFD"/>
<path opacity="0.4" d="M79.3017 176.937C78.3928 190.298 77.0203 205.967 75.1026 218.456C71.8396 202.232 66.477 178.537 73.6756 163.012C75.3934 167.421 77.393 172.401 79.3017 176.937Z" fill="#00273E"/>
<path d="M88.4274 148.888C88.4274 148.888 96.6076 197.369 96.1168 218.947C95.6351 241.397 87.4095 292.568 87.4095 292.568H77.8478C77.8478 292.568 79.3566 242.696 78.5113 220.655C77.6024 196.624 67.4226 147.516 67.4226 147.516L88.4274 148.888Z" fill="#B19FFD"/>
<path opacity="0.3" d="M88.4274 148.888C88.4274 148.888 96.6076 197.369 96.1168 218.947C95.6351 241.397 87.4095 292.568 87.4095 292.568H77.8478C77.8478 292.568 79.3566 242.696 78.5113 220.655C77.6024 196.624 67.4226 147.516 67.4226 147.516L88.4274 148.888Z" fill="#00273E"/>
<path d="M76.2118 293.023H89.0365L90.0363 288.724L75.7573 288.824L76.2118 293.023Z" fill="#00273E"/>
<path d="M45.2905 293.023H58.1152L59.115 288.724L45.3814 288.824L45.2905 293.023Z" fill="#00273E"/>
<path d="M59.4239 145.325L57.9697 147.816C57.8515 148.006 58.0787 148.225 58.4059 148.243L88.4817 150.197C88.7362 150.197 88.9634 150.106 88.9906 149.942L89.4178 147.388C89.4178 147.216 89.227 147.052 88.9452 147.034L59.8602 145.143C59.7786 145.14 59.6971 145.154 59.6217 145.185C59.5463 145.217 59.4787 145.265 59.4239 145.325V145.325Z" fill="#00273E"/>
<path d="M63.1139 148.815L62.3413 148.761C62.1868 148.761 62.0686 148.661 62.0868 148.57L62.6685 145.252C62.6685 145.162 62.823 145.089 62.9775 145.098L63.7592 145.143C63.9137 145.143 64.0228 145.243 64.0137 145.343L63.432 148.652C63.4138 148.752 63.2684 148.824 63.1139 148.815Z" fill="#B19FFD"/>
<path opacity="0.3" d="M63.1139 148.815L62.3413 148.761C62.1868 148.761 62.0686 148.661 62.0868 148.57L62.6685 145.252C62.6685 145.162 62.823 145.089 62.9775 145.098L63.7592 145.143C63.9137 145.143 64.0228 145.243 64.0137 145.343L63.432 148.652C63.4138 148.752 63.2684 148.824 63.1139 148.815Z" fill="#00273E"/>
<path d="M81.9379 150.033L81.1653 149.988C81.0108 149.988 80.8926 149.888 80.9108 149.788L81.4925 146.479C81.4925 146.379 81.647 146.316 81.8106 146.325L82.5832 146.37C82.7377 146.37 82.8559 146.47 82.8377 146.57L82.256 149.879C82.2651 149.979 82.1196 150.042 81.9379 150.033Z" fill="#B19FFD"/>
<path opacity="0.3" d="M81.9379 150.033L81.1653 149.988C81.0108 149.988 80.8926 149.888 80.9108 149.788L81.4925 146.479C81.4925 146.379 81.647 146.316 81.8106 146.325L82.5832 146.37C82.7377 146.37 82.8559 146.47 82.8377 146.57L82.256 149.879C82.2651 149.979 82.1196 150.042 81.9379 150.033Z" fill="#00273E"/>
<path d="M96.1896 113.795C97.2803 117.431 98.3165 121.112 99.3253 124.784L102.37 135.773L102.752 137.136L102.852 137.472L102.897 137.645V137.736C102.93 137.856 102.969 137.975 103.016 138.09C103.239 138.643 103.545 139.158 103.924 139.617C105.01 140.763 106.267 141.732 107.651 142.489C110.822 144.205 114.175 145.559 117.649 146.525L117.122 150.07C113.046 149.86 109.031 148.991 105.233 147.498C103.132 146.674 101.195 145.479 99.5162 143.971C98.5545 143.079 97.7549 142.028 97.1531 140.863C96.9905 140.548 96.8479 140.223 96.7259 139.89L96.6259 139.645L96.5623 139.472L96.4441 139.136L95.9624 137.763C94.6899 134.128 93.5083 130.492 92.3904 126.802C91.2724 123.112 90.1726 119.476 89.1729 115.768L96.1896 113.795Z" fill="#FFBE9D"/>
<path d="M94.5629 106.488C98.1985 107.678 102.016 119.567 102.016 119.567L88.8913 125.22C88.8913 125.22 83.4378 111.877 85.8555 108.86C88.2732 105.842 90.391 105.124 94.5629 106.488Z" fill="#B19FFD"/>
<path opacity="0.6" d="M94.5629 106.488C98.1985 107.678 102.016 119.567 102.016 119.567L88.8913 125.22C88.8913 125.22 83.4378 111.877 85.8555 108.86C88.2732 105.842 90.391 105.124 94.5629 106.488Z" fill="#FDFFFE"/>
<path d="M87.5458 70.4767C85.2281 67.6137 67.3226 65.5686 66.3683 73.3671C60.0059 77.8207 66.041 89.3275 66.95 92.2541C62.5599 93.4721 48.4173 98.3075 58.7698 107.706C69.1222 117.104 84.6464 115.504 87.6821 105.779C89.809 98.9801 83.0558 87.6005 83.2012 83.6195C83.3466 79.6385 91.5177 75.3394 87.5458 70.4767Z" fill="#00273E"/>
<path d="M68.204 93.6899C68.1708 93.691 68.1378 93.6842 68.1078 93.6699C68.0777 93.6557 68.0515 93.6345 68.0313 93.6082C66.3862 91.6086 60.6601 81.1016 62.6688 76.1026C62.9803 75.327 63.5084 74.6575 64.1902 74.1739C64.872 73.6904 65.6785 73.4134 66.5135 73.3759C66.5428 73.3721 66.5727 73.3743 66.6012 73.3824C66.6296 73.3906 66.6562 73.4044 66.6791 73.4231C66.7021 73.4418 66.721 73.465 66.7347 73.4913C66.7484 73.5175 66.7566 73.5463 66.7589 73.5758C66.7667 73.6348 66.7511 73.6945 66.7154 73.7421C66.6797 73.7896 66.6268 73.8213 66.568 73.8303C65.8172 73.8581 65.0902 74.1006 64.4732 74.5291C63.8562 74.9577 63.375 75.5542 63.0869 76.248C61.1509 81.0834 66.7679 91.345 68.3767 93.3082C68.4054 93.3402 68.4241 93.38 68.4302 93.4226C68.4364 93.4652 68.4298 93.5086 68.4114 93.5475C68.3929 93.5863 68.3634 93.6189 68.3265 93.641C68.2896 93.6631 68.247 93.6738 68.204 93.6718V93.6899Z" fill="#00273E"/>
<path d="M81.7838 83.1922C81.9866 84.5196 82.6263 85.7414 83.6016 86.6643C84.8922 87.9004 86.1101 87.0551 86.2283 85.4827C86.3374 84.0739 85.792 81.738 84.2651 81.0836C82.7381 80.4292 81.5929 81.6198 81.7838 83.1922Z" fill="#FFBE9D"/>
<path d="M113.195 145.543L118.358 143.789L117.549 149.997C117.549 149.997 115.513 150.906 112.877 148.615L110.36 147.007L112.341 145.925C112.613 145.77 112.899 145.642 113.195 145.543Z" fill="#FFBE9D"/>
<path d="M121.966 143.771L120.384 149.197L117.548 149.988L118.357 143.789L121.966 143.771Z" fill="#FFBE9D"/>
</svg>
